<svg xmlns="http://www.w3.org/2000/svg" xmlns:v="https://svgstorm.com"
viewBox = "0 0 893 888"
width="893"
height="888">
<g fill="None" fill-opacity="0.0" stroke="#FEFEFE" stroke-opacity="1.00" stroke-width="0.3"><path d="
M 0.00 888.00 
L 423.00 888.00
C 423.00 887.50 423.00 887.00 423.00 887.00
C 404.65 887.00 384.29 883.67 366.93 881.07 C 349.57 878.48 332.90 873.75 316.78 869.22 C 300.65 864.70 285.76 859.32 270.92 853.08 C 256.09 846.83 241.97 840.32 228.30 832.70 C 214.64 825.07 202.47 817.66 189.92 809.08 C 177.37 800.51 166.30 791.90 154.75 782.25 C 143.20 772.60 133.03 762.53 122.25 751.75 C 111.46 740.98 102.47 730.53 93.25 718.75 C 84.02 706.98 75.27 695.50 67.25 682.75 C 59.22 670.01 51.29 656.04 44.69 642.31 C 38.10 628.57 30.41 613.39 26.02 598.98 C 21.64 584.56 13.25 566.08 11.22 551.78 C 9.19 537.48 -3.82 512.01 16.68 506.68 C 37.18 501.35 36.90 529.84 40.33 543.67 C 43.75 557.50 49.42 577.05 54.93 591.07 C 60.43 605.10 67.11 621.29 74.31 634.70 C 81.50 648.10 88.87 661.32 97.25 673.75 C 105.64 686.17 114.21 697.77 123.92 709.08 C 133.63 720.39 142.77 730.89 153.75 741.25 C 164.73 751.61 175.74 761.19 187.75 770.25 C 199.75 779.31 211.01 788.02 224.23 795.77 C 237.45 803.52 249.71 811.24 264.23 817.77 C 278.75 824.30 293.53 830.50 309.22 835.78 C 324.92 841.05 340.98 845.62 358.02 848.98 C 375.07 852.33 393.78 855.53 412.02 856.98 C 430.27 858.43 454.72 858.34 473.00 857.00 C 491.28 855.66 510.89 853.42 528.00 850.00 C 545.12 846.59 561.14 841.96 577.02 837.02 C 592.91 832.09 607.54 825.68 622.08 819.08 C 636.61 812.47 649.54 805.73 662.70 797.70 C 675.85 789.66 687.67 781.90 699.75 772.75 C 711.83 763.59 722.60 754.12 733.75 743.75 C 744.91 733.38 753.84 722.97 763.77 711.77 C 773.70 700.57 782.13 689.03 790.77 676.77 C 799.41 664.51 806.49 651.19 813.92 637.92 C 821.36 624.66 827.69 608.87 833.92 594.92 C 840.16 580.98 843.17 561.37 848.93 547.93 C 854.68 534.49 848.05 506.60 869.01 506.01 C 889.97 505.41 884.11 533.93 879.67 547.67 C 875.23 561.42 871.30 581.51 865.68 595.68 C 860.06 609.85 854.02 625.50 847.23 639.23 C 840.43 652.95 832.93 667.06 824.75 679.75 C 816.56 692.43 808.49 704.53 799.23 716.23 C 789.97 727.93 781.08 738.72 770.25 749.25 C 759.41 759.78 749.80 770.73 738.25 780.25 C 726.70 789.77 715.66 798.61 703.25 807.25 C 690.85 815.90 678.51 823.52 664.92 830.92 C 651.34 838.33 637.72 845.95 622.92 851.92 C 608.13 857.89 593.35 863.88 577.32 868.32 C 561.30 872.76 544.95 878.00 527.78 880.78 C 510.60 883.55 489.04 887.00 471.00 887.00
C 471.04 887.00 471.00 888.00 471.00 888.00
L 893.00 888.00
L 893.00 0.00
L 482.00 0.00
C 482.00 0.50 482.00 1.00 482.00 1.00
C 499.18 1.66 517.85 4.97 534.22 7.78 C 550.60 10.58 567.33 14.80 582.68 19.32 C 598.03 23.84 612.47 29.34 626.69 35.31 C 640.92 41.27 653.90 47.89 667.23 54.77 C 680.56 61.65 691.97 69.83 704.25 77.75 C 716.52 85.67 726.97 94.68 738.25 103.75 C 749.53 112.83 758.82 122.38 769.25 132.75 C 779.67 143.12 788.41 153.31 797.25 164.75 C 806.10 176.18 814.95 186.89 822.75 199.25 C 830.56 211.61 837.87 224.28 844.32 237.68 C 850.77 251.07 858.33 264.61 862.93 279.07 C 867.53 293.54 875.18 308.95 877.78 324.22 C 880.38 339.50 887.84 359.40 887.00 375.00 C 886.16 390.60 901.65 413.35 884.77 424.77 C 867.89 436.19 857.11 410.60 859.07 394.93 C 861.04 379.25 853.07 358.43 851.02 342.98 C 848.98 327.52 841.92 311.31 837.23 296.77 C 832.54 282.23 826.03 268.15 819.23 254.77 C 812.43 241.39 806.01 228.39 797.70 216.30 C 789.39 204.21 781.95 192.46 772.70 181.30 C 763.44 170.15 754.53 160.09 744.25 149.75 C 733.97 139.42 723.90 130.53 712.75 121.25 C 701.60 111.97 690.10 104.24 677.77 96.23 C 665.44 88.22 653.41 81.00 639.77 74.23 C 626.13 67.46 612.70 61.54 597.93 56.07 C 583.15 50.60 567.99 45.98 551.98 42.02 C 535.96 38.07 519.27 35.27 502.00 33.00 C 484.73 30.73 463.28 29.86 445.00 30.00 C 426.72 30.14 406.08 31.18 388.93 33.93 C 371.77 36.67 354.33 39.21 338.33 43.33 C 322.33 47.45 307.75 52.50 292.92 57.92 C 278.10 63.35 264.62 69.23 250.92 75.92 C 237.23 82.62 225.19 89.89 212.75 97.75 C 200.32 105.62 189.06 113.66 177.75 122.75 C 166.45 131.84 155.93 140.19 145.75 150.75 C 135.57 161.31 125.71 170.71 117.25 182.25 C 108.78 193.78 98.92 204.36 91.75 216.75 C 84.57 229.13 75.56 241.83 70.23 255.23 C 64.90 268.63 54.29 282.95 52.22 297.22 C 50.15 311.50 36.76 331.98 22.75 318.25 C 8.75 304.51 26.21 288.20 28.98 273.98 C 31.74 259.75 42.32 246.09 47.92 232.92 C 53.52 219.75 62.71 207.33 70.25 195.25 C 77.80 183.18 87.02 172.04 95.77 160.77 C 104.52 149.50 114.56 140.13 124.75 129.75 C 134.94 119.37 144.85 110.00 156.25 101.25 C 167.65 92.50 178.51 83.74 190.75 75.75 C 202.98 67.75 215.45 60.80 228.70 53.69 C 241.94 46.59 255.36 40.49 269.69 34.69 C 284.03 28.90 298.61 23.50 314.07 19.07 C 329.53 14.65 346.12 10.24 362.67 7.67 C 379.22 5.10 398.60 1.00 416.00 1.00
C 415.96 1.00 416.00 0.00 416.00 0.00
L 0.00 0.00
L 0.00 888.00
M 628.00 122.00 
C 640.74 122.87 646.94 132.42 648.93 144.07 C 650.91 155.72 654.72 167.15 657.33 178.67 C 659.94 190.19 663.45 201.47 665.98 213.02 C 668.50 224.58 672.28 235.54 674.93 247.07 C 677.57 258.61 680.49 269.87 683.78 281.22 C 687.06 292.58 688.65 304.64 692.00 316.00 C 695.34 327.36 698.26 338.39 700.99 350.01 C 703.73 361.63 707.24 372.18 709.98 384.02 C 712.71 395.87 716.28 405.69 718.93 418.07 C 721.57 430.46 725.50 439.62 727.98 453.02 C 730.46 466.43 749.24 461.54 762.00 462.00 C 774.76 462.46 791.91 461.54 805.00 462.00 C 818.09 462.46 835.42 461.22 848.00 462.00 C 860.58 462.78 874.98 457.08 882.75 468.25 C 890.52 479.42 880.83 492.78 868.00 492.00 C 855.17 491.22 838.43 492.35 825.00 492.00 C 811.57 491.65 795.42 492.15 782.00 492.00 C 768.58 491.85 751.80 492.05 739.00 492.00 C 726.20 491.95 708.19 495.53 704.67 482.33 C 701.15 469.13 699.28 460.19 696.01 447.99 C 692.74 435.79 689.94 425.78 687.01 413.99 C 684.08 402.20 680.90 391.56 678.02 379.98 C 675.14 368.39 671.89 357.45 669.07 345.93 C 666.26 334.40 663.49 323.12 660.22 311.78 C 656.95 300.43 655.08 288.63 651.67 277.33 C 648.27 266.03 646.03 254.42 643.01 242.99 C 639.99 231.56 636.86 220.45 634.07 208.93 C 631.29 197.40 628.20 185.08 625.00 174.00
C 619.26 190.21 616.37 207.78 611.67 224.67 C 606.97 241.56 603.22 258.60 598.67 275.67 C 594.12 292.75 590.27 309.69 586.00 327.00 C 581.74 344.31 577.43 360.42 573.01 378.01 C 568.58 395.59 565.37 411.16 560.22 429.22 C 555.07 447.28 553.92 461.71 548.00 481.00 C 542.09 500.29 511.26 488.83 518.98 469.98 C 526.69 451.12 526.35 436.89 531.98 418.98 C 537.60 401.07 539.68 385.24 544.93 367.93 C 550.17 350.61 552.33 333.37 557.33 316.33 C 562.32 299.29 565.19 281.82 570.00 265.00 C 574.80 248.18 578.48 230.55 582.99 213.99 C 587.50 197.43 591.44 178.93 595.99 162.99 C 600.55 147.05 600.40 126.25 619.00 122.00
C 622.26 121.28 624.83 121.43 628.00 122.00
M 23.00 363.00 
C 31.70 364.41 43.74 372.46 48.25 380.75 C 52.76 389.04 63.61 402.53 71.25 392.25 C 78.89 381.96 82.38 375.98 92.08 369.08 C 101.78 362.18 116.73 360.10 127.08 365.92 C 137.42 371.75 142.94 375.36 149.25 386.75 C 155.57 398.13 166.52 397.75 172.30 386.30 C 178.09 374.86 184.86 370.61 195.22 365.22 C 205.59 359.84 221.05 362.69 230.70 369.31 C 240.34 375.92 242.03 384.83 250.75 393.25 C 259.48 401.66 267.24 388.88 273.30 380.30 C 279.37 371.72 288.89 365.27 300.02 363.02 C 311.16 360.78 324.32 367.41 332.75 374.25 C 341.19 381.08 342.53 395.03 354.03 396.97 C 365.52 398.92 373.53 413.08 363.25 422.25 C 352.97 431.41 342.26 425.65 332.30 419.70 C 322.34 413.74 320.84 403.68 311.75 396.25 C 302.66 388.81 293.91 400.78 288.25 410.25 C 282.59 419.71 270.81 424.17 260.00 426.00 C 249.19 427.83 237.21 421.00 229.75 414.25 C 222.29 407.49 218.26 391.79 208.00 393.00 C 197.73 394.21 194.95 409.44 186.75 415.75 C 178.55 422.06 165.74 428.96 155.00 426.00 C 144.25 423.05 133.59 418.68 128.23 408.77 C 122.87 398.86 112.95 388.19 104.75 397.75 C 96.56 407.31 93.81 413.55 84.30 420.30 C 74.79 427.05 60.16 429.73 49.98 424.02 C 39.79 418.32 32.92 414.22 27.23 402.77 C 21.54 391.32 7.30 396.93 2.03 383.97 C -3.25 371.02 8.88 360.71 23.00 363.00
M 605.00 426.00 
C 601.05 426.38 597.04 427.28 593.00 426.00
C 577.74 421.18 578.78 397.73 596.01 396.01 C 613.24 394.28 633.65 399.41 651.00 396.00 C 668.35 392.59 675.43 420.95 658.97 424.97 C 642.51 429.00 622.15 426.00 605.00 426.00
M 207.00 432.00 
C 210.20 431.43 212.85 431.44 216.00 432.00
C 228.88 432.88 240.82 439.96 247.75 453.25 C 254.68 466.54 268.61 467.55 274.92 452.92 C 281.23 438.28 294.64 434.11 307.00 432.00 C 319.36 429.89 335.40 435.85 341.92 448.08 C 348.44 460.31 363.18 463.02 366.98 476.02 C 370.77 489.03 376.66 503.03 380.77 516.23 C 384.88 529.43 389.16 543.07 393.78 556.22 C 398.39 569.38 402.32 582.97 406.78 596.22 C 411.23 609.47 415.42 622.78 419.93 636.07 C 424.43 649.36 428.18 662.74 432.93 676.07 C 437.67 689.41 441.52 703.51 446.00 717.00
C 450.89 705.69 453.19 693.06 456.98 680.98 C 460.76 668.89 464.42 656.14 467.93 643.93 C 471.43 631.72 474.87 619.55 478.33 607.33 C 481.78 595.10 486.55 582.43 488.99 569.99 C 491.43 557.55 498.70 546.52 499.93 533.93 C 501.16 521.33 513.62 508.38 525.75 518.25 C 537.88 528.12 528.49 540.74 525.68 552.68 C 522.86 564.61 517.91 577.78 515.01 590.01 C 512.11 602.24 507.15 613.73 504.07 626.07 C 501.00 638.41 496.84 650.95 493.22 663.22 C 489.61 675.50 486.55 687.62 483.02 700.02 C 479.50 712.43 475.29 724.38 472.07 737.07 C 468.86 749.76 464.08 760.61 462.01 774.01 C 459.93 787.41 437.86 788.98 433.70 776.31 C 429.53 763.63 426.18 753.09 422.22 740.78 C 418.27 728.47 414.50 716.43 410.67 704.33 C 406.85 692.22 402.69 681.03 399.02 668.98 C 395.36 656.92 390.88 644.92 387.07 632.93 C 383.27 620.93 379.41 609.55 375.23 597.77 C 371.04 586.00 368.72 572.76 363.68 561.32 C 358.63 549.89 357.24 536.10 352.01 524.99 C 346.78 513.89 347.43 500.23 339.25 490.75 C 331.06 481.28 325.20 474.99 317.08 464.92 C 308.97 454.85 298.01 471.25 292.75 479.75 C 287.49 488.25 271.37 496.76 261.00 496.00 C 250.63 495.24 235.32 490.01 229.75 480.25 C 224.18 470.49 213.65 456.04 204.25 466.25 C 194.85 476.46 193.44 484.36 181.77 490.77 C 170.10 497.18 155.30 498.48 143.92 491.08 C 132.54 483.67 130.15 477.79 121.25 466.75 C 112.34 455.72 103.16 469.27 96.75 478.75 C 90.34 488.22 78.56 495.44 66.99 495.99 C 55.42 496.54 41.19 491.48 34.08 480.92 C 26.98 470.35 21.29 462.98 8.31 459.69 C -4.68 456.41 0.79 431.78 13.22 431.22 C 25.66 430.67 38.04 437.85 44.77 446.23 C 51.50 454.61 60.28 470.98 70.25 463.25 C 80.21 455.52 81.18 444.54 92.23 438.23 C 103.28 431.92 117.45 428.02 129.08 434.92 C 140.70 441.83 145.29 445.74 152.75 458.25 C 160.22 470.75 172.57 462.27 177.92 450.92 C 183.27 439.56 195.99 433.97 207.00 432.00 Z"/>
</g>
<g fill="None" fill-opacity="0.0" stroke="#87A5CE" stroke-opacity="1.00" stroke-width="0.3"><path d="
M 416.00 1.00 
C 419.17 1.00 423.65 1.80 426.00 0.00
L 416.00 0.00
C 416.00 0.00 415.96 1.00 416.00 1.00 Z"/>
</g>
<g fill="None" fill-opacity="0.0" stroke="#2158A4" stroke-opacity="1.00" stroke-width="0.3"><path d="
M 416.00 1.00 
C 398.60 1.00 379.22 5.10 362.67 7.67 C 346.12 10.24 329.53 14.65 314.07 19.07 C 298.61 23.50 284.03 28.90 269.69 34.69 C 255.36 40.49 241.94 46.59 228.70 53.69 C 215.45 60.80 202.98 67.75 190.75 75.75 C 178.51 83.74 167.65 92.50 156.25 101.25 C 144.85 110.00 134.94 119.37 124.75 129.75 C 114.56 140.13 104.52 149.50 95.77 160.77 C 87.02 172.04 77.80 183.18 70.25 195.25 C 62.71 207.33 53.52 219.75 47.92 232.92 C 42.32 246.09 31.74 259.75 28.98 273.98 C 26.21 288.20 8.75 304.51 22.75 318.25 C 36.76 331.98 50.15 311.50 52.22 297.22 C 54.29 282.95 64.90 268.63 70.23 255.23 C 75.56 241.83 84.57 229.13 91.75 216.75 C 98.92 204.36 108.78 193.78 117.25 182.25 C 125.71 170.71 135.57 161.31 145.75 150.75 C 155.93 140.19 166.45 131.84 177.75 122.75 C 189.06 113.66 200.32 105.62 212.75 97.75 C 225.19 89.89 237.23 82.62 250.92 75.92 C 264.62 69.23 278.10 63.35 292.92 57.92 C 307.75 52.50 322.33 47.45 338.33 43.33 C 354.33 39.21 371.77 36.67 388.93 33.93 C 406.08 31.18 426.72 30.14 445.00 30.00 C 463.28 29.86 484.73 30.73 502.00 33.00 C 519.27 35.27 535.96 38.07 551.98 42.02 C 567.99 45.98 583.15 50.60 597.93 56.07 C 612.70 61.54 626.13 67.46 639.77 74.23 C 653.41 81.00 665.44 88.22 677.77 96.23 C 690.10 104.24 701.60 111.97 712.75 121.25 C 723.90 130.53 733.97 139.42 744.25 149.75 C 754.53 160.09 763.44 170.15 772.70 181.30 C 781.95 192.46 789.39 204.21 797.70 216.30 C 806.01 228.39 812.43 241.39 819.23 254.77 C 826.03 268.15 832.54 282.23 837.23 296.77 C 841.92 311.31 848.98 327.52 851.02 342.98 C 853.07 358.43 861.04 379.25 859.07 394.93 C 857.11 410.60 867.89 436.19 884.77 424.77 C 901.65 413.35 886.16 390.60 887.00 375.00 C 887.84 359.40 880.38 339.50 877.78 324.22 C 875.18 308.95 867.53 293.54 862.93 279.07 C 858.33 264.61 850.77 251.07 844.32 237.68 C 837.87 224.28 830.56 211.61 822.75 199.25 C 814.95 186.89 806.10 176.18 797.25 164.75 C 788.41 153.31 779.67 143.12 769.25 132.75 C 758.82 122.38 749.53 112.83 738.25 103.75 C 726.97 94.68 716.52 85.67 704.25 77.75 C 691.97 69.83 680.56 61.65 667.23 54.77 C 653.90 47.89 640.92 41.27 626.69 35.31 C 612.47 29.34 598.03 23.84 582.68 19.32 C 567.33 14.80 550.60 10.58 534.22 7.78 C 517.85 4.97 499.18 1.66 482.00 1.00
C 478.81 0.88 474.36 1.89 472.00 0.00
L 426.00 0.00
C 423.65 1.80 419.17 1.00 416.00 1.00 Z"/>
</g>
<g fill="None" fill-opacity="0.0" stroke="#8BA8D0" stroke-opacity="1.00" stroke-width="0.3"><path d="
M 482.00 1.00 
C 482.00 1.00 482.00 0.50 482.00 0.00
L 472.00 0.00
C 474.36 1.89 478.81 0.88 482.00 1.00 Z"/>
</g>
<g fill="None" fill-opacity="0.0" stroke="#92ADD2" stroke-opacity="1.00" stroke-width="0.3"><path d="
M 619.00 122.00 
C 621.85 121.71 625.14 121.81 628.00 122.00
C 624.83 121.43 622.26 121.28 619.00 122.00 Z"/>
</g>
<g fill="None" fill-opacity="0.0" stroke="#2158A4" stroke-opacity="1.00" stroke-width="0.3"><path d="
M 628.00 122.00 
C 625.14 121.81 621.85 121.71 619.00 122.00
C 600.40 126.25 600.55 147.05 595.99 162.99 C 591.44 178.93 587.50 197.43 582.99 213.99 C 578.48 230.55 574.80 248.18 570.00 265.00 C 565.19 281.82 562.32 299.29 557.33 316.33 C 552.33 333.37 550.17 350.61 544.93 367.93 C 539.68 385.24 537.60 401.07 531.98 418.98 C 526.35 436.89 526.69 451.12 518.98 469.98 C 511.26 488.83 542.09 500.29 548.00 481.00 C 553.92 461.71 555.07 447.28 560.22 429.22 C 565.37 411.16 568.58 395.59 573.01 378.01 C 577.43 360.42 581.74 344.31 586.00 327.00 C 590.27 309.69 594.12 292.75 598.67 275.67 C 603.22 258.60 606.97 241.56 611.67 224.67 C 616.37 207.78 619.26 190.21 625.00 174.00
C 628.20 185.08 631.29 197.40 634.07 208.93 C 636.86 220.45 639.99 231.56 643.01 242.99 C 646.03 254.42 648.27 266.03 651.67 277.33 C 655.08 288.63 656.95 300.43 660.22 311.78 C 663.49 323.12 666.26 334.40 669.07 345.93 C 671.89 357.45 675.14 368.39 678.02 379.98 C 680.90 391.56 684.08 402.20 687.01 413.99 C 689.94 425.78 692.74 435.79 696.01 447.99 C 699.28 460.19 701.15 469.13 704.67 482.33 C 708.19 495.53 726.20 491.95 739.00 492.00 C 751.80 492.05 768.58 491.85 782.00 492.00 C 795.42 492.15 811.57 491.65 825.00 492.00 C 838.43 492.35 855.17 491.22 868.00 492.00 C 880.83 492.78 890.52 479.42 882.75 468.25 C 874.98 457.08 860.58 462.78 848.00 462.00 C 835.42 461.22 818.09 462.46 805.00 462.00 C 791.91 461.54 774.76 462.46 762.00 462.00 C 749.24 461.54 730.46 466.43 727.98 453.02 C 725.50 439.62 721.57 430.46 718.93 418.07 C 716.28 405.69 712.71 395.87 709.98 384.02 C 707.24 372.18 703.73 361.63 700.99 350.01 C 698.26 338.39 695.34 327.36 692.00 316.00 C 688.65 304.64 687.06 292.58 683.78 281.22 C 680.49 269.87 677.57 258.61 674.93 247.07 C 672.28 235.54 668.50 224.58 665.98 213.02 C 663.45 201.47 659.94 190.19 657.33 178.67 C 654.72 167.15 650.91 155.72 648.93 144.07 C 646.94 132.42 640.74 122.87 628.00 122.00 Z"/>
</g>
<g fill="None" fill-opacity="0.0" stroke="#2459A4" stroke-opacity="1.00" stroke-width="0.3"><path d="
M 23.00 363.00 
C 8.88 360.71 -3.25 371.02 2.03 383.97 C 7.30 396.93 21.54 391.32 27.23 402.77 C 32.92 414.22 39.79 418.32 49.98 424.02 C 60.16 429.73 74.79 427.05 84.30 420.30 C 93.81 413.55 96.56 407.31 104.75 397.75 C 112.95 388.19 122.87 398.86 128.23 408.77 C 133.59 418.68 144.25 423.05 155.00 426.00 C 165.74 428.96 178.55 422.06 186.75 415.75 C 194.95 409.44 197.73 394.21 208.00 393.00 C 218.26 391.79 222.29 407.49 229.75 414.25 C 237.21 421.00 249.19 427.83 260.00 426.00 C 270.81 424.17 282.59 419.71 288.25 410.25 C 293.91 400.78 302.66 388.81 311.75 396.25 C 320.84 403.68 322.34 413.74 332.30 419.70 C 342.26 425.65 352.97 431.41 363.25 422.25 C 373.53 413.08 365.52 398.92 354.03 396.97 C 342.53 395.03 341.19 381.08 332.75 374.25 C 324.32 367.41 311.16 360.78 300.02 363.02 C 288.89 365.27 279.37 371.72 273.30 380.30 C 267.24 388.88 259.48 401.66 250.75 393.25 C 242.03 384.83 240.34 375.92 230.70 369.31 C 221.05 362.69 205.59 359.84 195.22 365.22 C 184.86 370.61 178.09 374.86 172.30 386.30 C 166.52 397.75 155.57 398.13 149.25 386.75 C 142.94 375.36 137.42 371.75 127.08 365.92 C 116.73 360.10 101.78 362.18 92.08 369.08 C 82.38 375.98 78.89 381.96 71.25 392.25 C 63.61 402.53 52.76 389.04 48.25 380.75 C 43.74 372.46 31.70 364.41 23.00 363.00 Z"/>
</g>
<g fill="None" fill-opacity="0.0" stroke="#2158A4" stroke-opacity="1.00" stroke-width="0.3"><path d="
M 593.00 426.00 
C 596.73 426.67 601.20 426.00 605.00 426.00
C 622.15 426.00 642.51 429.00 658.97 424.97 C 675.43 420.95 668.35 392.59 651.00 396.00 C 633.65 399.41 613.24 394.28 596.01 396.01 C 578.78 397.73 577.74 421.18 593.00 426.00 Z"/>
</g>
<g fill="None" fill-opacity="0.0" stroke="#9EB7D7" stroke-opacity="1.00" stroke-width="0.3"><path d="
M 605.00 426.00 
C 601.20 426.00 596.73 426.67 593.00 426.00
C 597.04 427.28 601.05 426.38 605.00 426.00 Z"/>
</g>
<g fill="None" fill-opacity="0.0" stroke="#2158A4" stroke-opacity="1.00" stroke-width="0.3"><path d="
M 216.00 432.00 
C 213.09 431.80 209.91 431.80 207.00 432.00
C 195.99 433.97 183.27 439.56 177.92 450.92 C 172.57 462.27 160.22 470.75 152.75 458.25 C 145.29 445.74 140.70 441.83 129.08 434.92 C 117.45 428.02 103.28 431.92 92.23 438.23 C 81.18 444.54 80.21 455.52 70.25 463.25 C 60.28 470.98 51.50 454.61 44.77 446.23 C 38.04 437.85 25.66 430.67 13.22 431.22 C 0.79 431.78 -4.68 456.41 8.31 459.69 C 21.29 462.98 26.98 470.35 34.08 480.92 C 41.19 491.48 55.42 496.54 66.99 495.99 C 78.56 495.44 90.34 488.22 96.75 478.75 C 103.16 469.27 112.34 455.72 121.25 466.75 C 130.15 477.79 132.54 483.67 143.92 491.08 C 155.30 498.48 170.10 497.18 181.77 490.77 C 193.44 484.36 194.85 476.46 204.25 466.25 C 213.65 456.04 224.18 470.49 229.75 480.25 C 235.32 490.01 250.63 495.24 261.00 496.00 C 271.37 496.76 287.49 488.25 292.75 479.75 C 298.01 471.25 308.97 454.85 317.08 464.92 C 325.20 474.99 331.06 481.28 339.25 490.75 C 347.43 500.23 346.78 513.89 352.01 524.99 C 357.24 536.10 358.63 549.89 363.68 561.32 C 368.72 572.76 371.04 586.00 375.23 597.77 C 379.41 609.55 383.27 620.93 387.07 632.93 C 390.88 644.92 395.36 656.92 399.02 668.98 C 402.69 681.03 406.85 692.22 410.67 704.33 C 414.50 716.43 418.27 728.47 422.22 740.78 C 426.18 753.09 429.53 763.63 433.70 776.31 C 437.86 788.98 459.93 787.41 462.01 774.01 C 464.08 760.61 468.86 749.76 472.07 737.07 C 475.29 724.38 479.50 712.43 483.02 700.02 C 486.55 687.62 489.61 675.50 493.22 663.22 C 496.84 650.95 501.00 638.41 504.07 626.07 C 507.15 613.73 512.11 602.24 515.01 590.01 C 517.91 577.78 522.86 564.61 525.68 552.68 C 528.49 540.74 537.88 528.12 525.75 518.25 C 513.62 508.38 501.16 521.33 499.93 533.93 C 498.70 546.52 491.43 557.55 488.99 569.99 C 486.55 582.43 481.78 595.10 478.33 607.33 C 474.87 619.55 471.43 631.72 467.93 643.93 C 464.42 656.14 460.76 668.89 456.98 680.98 C 453.19 693.06 450.89 705.69 446.00 717.00
C 441.52 703.51 437.67 689.41 432.93 676.07 C 428.18 662.74 424.43 649.36 419.93 636.07 C 415.42 622.78 411.23 609.47 406.78 596.22 C 402.32 582.97 398.39 569.38 393.78 556.22 C 389.16 543.07 384.88 529.43 380.77 516.23 C 376.66 503.03 370.77 489.03 366.98 476.02 C 363.18 463.02 348.44 460.31 341.92 448.08 C 335.40 435.85 319.36 429.89 307.00 432.00 C 294.64 434.11 281.23 438.28 274.92 452.92 C 268.61 467.55 254.68 466.54 247.75 453.25 C 240.82 439.96 228.88 432.88 216.00 432.00 Z"/>
</g>
<g fill="None" fill-opacity="0.0" stroke="#87A5CD" stroke-opacity="1.00" stroke-width="0.3"><path d="
M 207.00 432.00 
C 209.91 431.80 213.09 431.80 216.00 432.00
C 212.85 431.44 210.20 431.43 207.00 432.00 Z"/>
</g>
<g fill="None" fill-opacity="0.0" stroke="#2158A4" stroke-opacity="1.00" stroke-width="0.3"><path d="
M 423.00 887.00 
C 425.84 887.00 429.98 886.21 432.00 888.00
L 458.00 888.00
C 461.42 886.22 466.82 887.00 471.00 887.00
C 489.04 887.00 510.60 883.55 527.78 880.78 C 544.95 878.00 561.30 872.76 577.32 868.32 C 593.35 863.88 608.13 857.89 622.92 851.92 C 637.72 845.95 651.34 838.33 664.92 830.92 C 678.51 823.52 690.85 815.90 703.25 807.25 C 715.66 798.61 726.70 789.77 738.25 780.25 C 749.80 770.73 759.41 759.78 770.25 749.25 C 781.08 738.72 789.97 727.93 799.23 716.23 C 808.49 704.53 816.56 692.43 824.75 679.75 C 832.93 667.06 840.43 652.95 847.23 639.23 C 854.02 625.50 860.06 609.85 865.68 595.68 C 871.30 581.51 875.23 561.42 879.67 547.67 C 884.11 533.93 889.97 505.41 869.01 506.01 C 848.05 506.60 854.68 534.49 848.93 547.93 C 843.17 561.37 840.16 580.98 833.92 594.92 C 827.69 608.87 821.36 624.66 813.92 637.92 C 806.49 651.19 799.41 664.51 790.77 676.77 C 782.13 689.03 773.70 700.57 763.77 711.77 C 753.84 722.97 744.91 733.38 733.75 743.75 C 722.60 754.12 711.83 763.59 699.75 772.75 C 687.67 781.90 675.85 789.66 662.70 797.70 C 649.54 805.73 636.61 812.47 622.08 819.08 C 607.54 825.68 592.91 832.09 577.02 837.02 C 561.14 841.96 545.12 846.59 528.00 850.00 C 510.89 853.42 491.28 855.66 473.00 857.00 C 454.72 858.34 430.27 858.43 412.02 856.98 C 393.78 855.53 375.07 852.33 358.02 848.98 C 340.98 845.62 324.92 841.05 309.22 835.78 C 293.53 830.50 278.75 824.30 264.23 817.77 C 249.71 811.24 237.45 803.52 224.23 795.77 C 211.01 788.02 199.75 779.31 187.75 770.25 C 175.74 761.19 164.73 751.61 153.75 741.25 C 142.77 730.89 133.63 720.39 123.92 709.08 C 114.21 697.77 105.64 686.17 97.25 673.75 C 88.87 661.32 81.50 648.10 74.31 634.70 C 67.11 621.29 60.43 605.10 54.93 591.07 C 49.42 577.05 43.75 557.50 40.33 543.67 C 36.90 529.84 37.18 501.35 16.68 506.68 C -3.82 512.01 9.19 537.48 11.22 551.78 C 13.25 566.08 21.64 584.56 26.02 598.98 C 30.41 613.39 38.10 628.57 44.69 642.31 C 51.29 656.04 59.22 670.01 67.25 682.75 C 75.27 695.50 84.02 706.98 93.25 718.75 C 102.47 730.53 111.46 740.98 122.25 751.75 C 133.03 762.53 143.20 772.60 154.75 782.25 C 166.30 791.90 177.37 800.51 189.92 809.08 C 202.47 817.66 214.64 825.07 228.30 832.70 C 241.97 840.32 256.09 846.83 270.92 853.08 C 285.76 859.32 300.65 864.70 316.78 869.22 C 332.90 873.75 349.57 878.48 366.93 881.07 C 384.29 883.67 404.65 887.00 423.00 887.00 Z"/>
</g>
<g fill="None" fill-opacity="0.0" stroke="#7799C7" stroke-opacity="1.00" stroke-width="0.3"><path d="
M 423.00 888.00 
L 432.00 888.00
C 429.98 886.21 425.84 887.00 423.00 887.00
C 423.00 887.00 423.00 887.50 423.00 888.00 Z"/>
</g>
<g fill="None" fill-opacity="0.0" stroke="#8BA8CF" stroke-opacity="1.00" stroke-width="0.3"><path d="
M 458.00 888.00 
L 471.00 888.00
C 471.00 888.00 471.04 887.00 471.00 887.00
C 466.82 887.00 461.42 886.22 458.00 888.00 Z"/>
</g>
<g fill="#FEFEFE" fill-opacity="1.00" stroke="None">
<path d="
M 0.00 888.00 
L 423.00 888.00
C 423.00 887.50 423.00 887.00 423.00 887.00
C 404.65 887.00 384.29 883.67 366.93 881.07 C 349.57 878.48 332.90 873.75 316.78 869.22 C 300.65 864.70 285.76 859.32 270.92 853.08 C 256.09 846.83 241.97 840.32 228.30 832.70 C 214.64 825.07 202.47 817.66 189.92 809.08 C 177.37 800.51 166.30 791.90 154.75 782.25 C 143.20 772.60 133.03 762.53 122.25 751.75 C 111.46 740.98 102.47 730.53 93.25 718.75 C 84.02 706.98 75.27 695.50 67.25 682.75 C 59.22 670.01 51.29 656.04 44.69 642.31 C 38.10 628.57 30.41 613.39 26.02 598.98 C 21.64 584.56 13.25 566.08 11.22 551.78 C 9.19 537.48 -3.82 512.01 16.68 506.68 C 37.18 501.35 36.90 529.84 40.33 543.67 C 43.75 557.50 49.42 577.05 54.93 591.07 C 60.43 605.10 67.11 621.29 74.31 634.70 C 81.50 648.10 88.87 661.32 97.25 673.75 C 105.64 686.17 114.21 697.77 123.92 709.08 C 133.63 720.39 142.77 730.89 153.75 741.25 C 164.73 751.61 175.74 761.19 187.75 770.25 C 199.75 779.31 211.01 788.02 224.23 795.77 C 237.45 803.52 249.71 811.24 264.23 817.77 C 278.75 824.30 293.53 830.50 309.22 835.78 C 324.92 841.05 340.98 845.62 358.02 848.98 C 375.07 852.33 393.78 855.53 412.02 856.98 C 430.27 858.43 454.72 858.34 473.00 857.00 C 491.28 855.66 510.89 853.42 528.00 850.00 C 545.12 846.59 561.14 841.96 577.02 837.02 C 592.91 832.09 607.54 825.68 622.08 819.08 C 636.61 812.47 649.54 805.73 662.70 797.70 C 675.85 789.66 687.67 781.90 699.75 772.75 C 711.83 763.59 722.60 754.12 733.75 743.75 C 744.91 733.38 753.84 722.97 763.77 711.77 C 773.70 700.57 782.13 689.03 790.77 676.77 C 799.41 664.51 806.49 651.19 813.92 637.92 C 821.36 624.66 827.69 608.87 833.92 594.92 C 840.16 580.98 843.17 561.37 848.93 547.93 C 854.68 534.49 848.05 506.60 869.01 506.01 C 889.97 505.41 884.11 533.93 879.67 547.67 C 875.23 561.42 871.30 581.51 865.68 595.68 C 860.06 609.85 854.02 625.50 847.23 639.23 C 840.43 652.95 832.93 667.06 824.75 679.75 C 816.56 692.43 808.49 704.53 799.23 716.23 C 789.97 727.93 781.08 738.72 770.25 749.25 C 759.41 759.78 749.80 770.73 738.25 780.25 C 726.70 789.77 715.66 798.61 703.25 807.25 C 690.85 815.90 678.51 823.52 664.92 830.92 C 651.34 838.33 637.72 845.95 622.92 851.92 C 608.13 857.89 593.35 863.88 577.32 868.32 C 561.30 872.76 544.95 878.00 527.78 880.78 C 510.60 883.55 489.04 887.00 471.00 887.00
C 471.04 887.00 471.00 888.00 471.00 888.00
L 893.00 888.00
L 893.00 0.00
L 482.00 0.00
C 482.00 0.50 482.00 1.00 482.00 1.00
C 499.18 1.66 517.85 4.97 534.22 7.78 C 550.60 10.58 567.33 14.80 582.68 19.32 C 598.03 23.84 612.47 29.34 626.69 35.31 C 640.92 41.27 653.90 47.89 667.23 54.77 C 680.56 61.65 691.97 69.83 704.25 77.75 C 716.52 85.67 726.97 94.68 738.25 103.75 C 749.53 112.83 758.82 122.38 769.25 132.75 C 779.67 143.12 788.41 153.31 797.25 164.75 C 806.10 176.18 814.95 186.89 822.75 199.25 C 830.56 211.61 837.87 224.28 844.32 237.68 C 850.77 251.07 858.33 264.61 862.93 279.07 C 867.53 293.54 875.18 308.95 877.78 324.22 C 880.38 339.50 887.84 359.40 887.00 375.00 C 886.16 390.60 901.65 413.35 884.77 424.77 C 867.89 436.19 857.11 410.60 859.07 394.93 C 861.04 379.25 853.07 358.43 851.02 342.98 C 848.98 327.52 841.92 311.31 837.23 296.77 C 832.54 282.23 826.03 268.15 819.23 254.77 C 812.43 241.39 806.01 228.39 797.70 216.30 C 789.39 204.21 781.95 192.46 772.70 181.30 C 763.44 170.15 754.53 160.09 744.25 149.75 C 733.97 139.42 723.90 130.53 712.75 121.25 C 701.60 111.97 690.10 104.24 677.77 96.23 C 665.44 88.22 653.41 81.00 639.77 74.23 C 626.13 67.46 612.70 61.54 597.93 56.07 C 583.15 50.60 567.99 45.98 551.98 42.02 C 535.96 38.07 519.27 35.27 502.00 33.00 C 484.73 30.73 463.28 29.86 445.00 30.00 C 426.72 30.14 406.08 31.18 388.93 33.93 C 371.77 36.67 354.33 39.21 338.33 43.33 C 322.33 47.45 307.75 52.50 292.92 57.92 C 278.10 63.35 264.62 69.23 250.92 75.92 C 237.23 82.62 225.19 89.89 212.75 97.75 C 200.32 105.62 189.06 113.66 177.75 122.75 C 166.45 131.84 155.93 140.19 145.75 150.75 C 135.57 161.31 125.71 170.71 117.25 182.25 C 108.78 193.78 98.92 204.36 91.75 216.75 C 84.57 229.13 75.56 241.83 70.23 255.23 C 64.90 268.63 54.29 282.95 52.22 297.22 C 50.15 311.50 36.76 331.98 22.75 318.25 C 8.75 304.51 26.21 288.20 28.98 273.98 C 31.74 259.75 42.32 246.09 47.92 232.92 C 53.52 219.75 62.71 207.33 70.25 195.25 C 77.80 183.18 87.02 172.04 95.77 160.77 C 104.52 149.50 114.56 140.13 124.75 129.75 C 134.94 119.37 144.85 110.00 156.25 101.25 C 167.65 92.50 178.51 83.74 190.75 75.75 C 202.98 67.75 215.45 60.80 228.70 53.69 C 241.94 46.59 255.36 40.49 269.69 34.69 C 284.03 28.90 298.61 23.50 314.07 19.07 C 329.53 14.65 346.12 10.24 362.67 7.67 C 379.22 5.10 398.60 1.00 416.00 1.00
C 415.96 1.00 416.00 0.00 416.00 0.00
L 0.00 0.00
L 0.00 888.00
M 628.00 122.00 
C 640.74 122.87 646.94 132.42 648.93 144.07 C 650.91 155.72 654.72 167.15 657.33 178.67 C 659.94 190.19 663.45 201.47 665.98 213.02 C 668.50 224.58 672.28 235.54 674.93 247.07 C 677.57 258.61 680.49 269.87 683.78 281.22 C 687.06 292.58 688.65 304.64 692.00 316.00 C 695.34 327.36 698.26 338.39 700.99 350.01 C 703.73 361.63 707.24 372.18 709.98 384.02 C 712.71 395.87 716.28 405.69 718.93 418.07 C 721.57 430.46 725.50 439.62 727.98 453.02 C 730.46 466.43 749.24 461.54 762.00 462.00 C 774.76 462.46 791.91 461.54 805.00 462.00 C 818.09 462.46 835.42 461.22 848.00 462.00 C 860.58 462.78 874.98 457.08 882.75 468.25 C 890.52 479.42 880.83 492.78 868.00 492.00 C 855.17 491.22 838.43 492.35 825.00 492.00 C 811.57 491.65 795.42 492.15 782.00 492.00 C 768.58 491.85 751.80 492.05 739.00 492.00 C 726.20 491.95 708.19 495.53 704.67 482.33 C 701.15 469.13 699.28 460.19 696.01 447.99 C 692.74 435.79 689.94 425.78 687.01 413.99 C 684.08 402.20 680.90 391.56 678.02 379.98 C 675.14 368.39 671.89 357.45 669.07 345.93 C 666.26 334.40 663.49 323.12 660.22 311.78 C 656.95 300.43 655.08 288.63 651.67 277.33 C 648.27 266.03 646.03 254.42 643.01 242.99 C 639.99 231.56 636.86 220.45 634.07 208.93 C 631.29 197.40 628.20 185.08 625.00 174.00
C 619.26 190.21 616.37 207.78 611.67 224.67 C 606.97 241.56 603.22 258.60 598.67 275.67 C 594.12 292.75 590.27 309.69 586.00 327.00 C 581.74 344.31 577.43 360.42 573.01 378.01 C 568.58 395.59 565.37 411.16 560.22 429.22 C 555.07 447.28 553.92 461.71 548.00 481.00 C 542.09 500.29 511.26 488.83 518.98 469.98 C 526.69 451.12 526.35 436.89 531.98 418.98 C 537.60 401.07 539.68 385.24 544.93 367.93 C 550.17 350.61 552.33 333.37 557.33 316.33 C 562.32 299.29 565.19 281.82 570.00 265.00 C 574.80 248.18 578.48 230.55 582.99 213.99 C 587.50 197.43 591.44 178.93 595.99 162.99 C 600.55 147.05 600.40 126.25 619.00 122.00
C 622.26 121.28 624.83 121.43 628.00 122.00
M 23.00 363.00 
C 31.70 364.41 43.74 372.46 48.25 380.75 C 52.76 389.04 63.61 402.53 71.25 392.25 C 78.89 381.96 82.38 375.98 92.08 369.08 C 101.78 362.18 116.73 360.10 127.08 365.92 C 137.42 371.75 142.94 375.36 149.25 386.75 C 155.57 398.13 166.52 397.75 172.30 386.30 C 178.09 374.86 184.86 370.61 195.22 365.22 C 205.59 359.84 221.05 362.69 230.70 369.31 C 240.34 375.92 242.03 384.83 250.75 393.25 C 259.48 401.66 267.24 388.88 273.30 380.30 C 279.37 371.72 288.89 365.27 300.02 363.02 C 311.16 360.78 324.32 367.41 332.75 374.25 C 341.19 381.08 342.53 395.03 354.03 396.97 C 365.52 398.92 373.53 413.08 363.25 422.25 C 352.97 431.41 342.26 425.65 332.30 419.70 C 322.34 413.74 320.84 403.68 311.75 396.25 C 302.66 388.81 293.91 400.78 288.25 410.25 C 282.59 419.71 270.81 424.17 260.00 426.00 C 249.19 427.83 237.21 421.00 229.75 414.25 C 222.29 407.49 218.26 391.79 208.00 393.00 C 197.73 394.21 194.95 409.44 186.75 415.75 C 178.55 422.06 165.74 428.96 155.00 426.00 C 144.25 423.05 133.59 418.68 128.23 408.77 C 122.87 398.86 112.95 388.19 104.75 397.75 C 96.56 407.31 93.81 413.55 84.30 420.30 C 74.79 427.05 60.16 429.73 49.98 424.02 C 39.79 418.32 32.92 414.22 27.23 402.77 C 21.54 391.32 7.30 396.93 2.03 383.97 C -3.25 371.02 8.88 360.71 23.00 363.00
M 605.00 426.00 
C 601.05 426.38 597.04 427.28 593.00 426.00
C 577.74 421.18 578.78 397.73 596.01 396.01 C 613.24 394.28 633.65 399.41 651.00 396.00 C 668.35 392.59 675.43 420.95 658.97 424.97 C 642.51 429.00 622.15 426.00 605.00 426.00
M 207.00 432.00 
C 210.20 431.43 212.85 431.44 216.00 432.00
C 228.88 432.88 240.82 439.96 247.75 453.25 C 254.68 466.54 268.61 467.55 274.92 452.92 C 281.23 438.28 294.64 434.11 307.00 432.00 C 319.36 429.89 335.40 435.85 341.92 448.08 C 348.44 460.31 363.18 463.02 366.98 476.02 C 370.77 489.03 376.66 503.03 380.77 516.23 C 384.88 529.43 389.16 543.07 393.78 556.22 C 398.39 569.38 402.32 582.97 406.78 596.22 C 411.23 609.47 415.42 622.78 419.93 636.07 C 424.43 649.36 428.18 662.74 432.93 676.07 C 437.67 689.41 441.52 703.51 446.00 717.00
C 450.89 705.69 453.19 693.06 456.98 680.98 C 460.76 668.89 464.42 656.14 467.93 643.93 C 471.43 631.72 474.87 619.55 478.33 607.33 C 481.78 595.10 486.55 582.43 488.99 569.99 C 491.43 557.55 498.70 546.52 499.93 533.93 C 501.16 521.33 513.62 508.38 525.75 518.25 C 537.88 528.12 528.49 540.74 525.68 552.68 C 522.86 564.61 517.91 577.78 515.01 590.01 C 512.11 602.24 507.15 613.73 504.07 626.07 C 501.00 638.41 496.84 650.95 493.22 663.22 C 489.61 675.50 486.55 687.62 483.02 700.02 C 479.50 712.43 475.29 724.38 472.07 737.07 C 468.86 749.76 464.08 760.61 462.01 774.01 C 459.93 787.41 437.86 788.98 433.70 776.31 C 429.53 763.63 426.18 753.09 422.22 740.78 C 418.27 728.47 414.50 716.43 410.67 704.33 C 406.85 692.22 402.69 681.03 399.02 668.98 C 395.36 656.92 390.88 644.92 387.07 632.93 C 383.27 620.93 379.41 609.55 375.23 597.77 C 371.04 586.00 368.72 572.76 363.68 561.32 C 358.63 549.89 357.24 536.10 352.01 524.99 C 346.78 513.89 347.43 500.23 339.25 490.75 C 331.06 481.28 325.20 474.99 317.08 464.92 C 308.97 454.85 298.01 471.25 292.75 479.75 C 287.49 488.25 271.37 496.76 261.00 496.00 C 250.63 495.24 235.32 490.01 229.75 480.25 C 224.18 470.49 213.65 456.04 204.25 466.25 C 194.85 476.46 193.44 484.36 181.77 490.77 C 170.10 497.18 155.30 498.48 143.92 491.08 C 132.54 483.67 130.15 477.79 121.25 466.75 C 112.34 455.72 103.16 469.27 96.75 478.75 C 90.34 488.22 78.56 495.44 66.99 495.99 C 55.42 496.54 41.19 491.48 34.08 480.92 C 26.98 470.35 21.29 462.98 8.31 459.69 C -4.68 456.41 0.79 431.78 13.22 431.22 C 25.66 430.67 38.04 437.85 44.77 446.23 C 51.50 454.61 60.28 470.98 70.25 463.25 C 80.21 455.52 81.18 444.54 92.23 438.23 C 103.28 431.92 117.45 428.02 129.08 434.92 C 140.70 441.83 145.29 445.74 152.75 458.25 C 160.22 470.75 172.57 462.27 177.92 450.92 C 183.27 439.56 195.99 433.97 207.00 432.00 Z"/>
</g>
<g fill="#FEFEFE" fill-opacity="1.00" stroke="None">
<path d="
M 416.00 1.00 
C 419.17 1.00 423.65 1.80 426.00 0.00
L 416.00 0.00
C 416.00 0.00 415.96 1.00 416.00 1.00 Z"/>
</g>
<g fill="#FEFEFE" fill-opacity="1.00" stroke="None">
<path d="
M 416.00 1.00 
C 398.60 1.00 379.22 5.10 362.67 7.67 C 346.12 10.24 329.53 14.65 314.07 19.07 C 298.61 23.50 284.03 28.90 269.69 34.69 C 255.36 40.49 241.94 46.59 228.70 53.69 C 215.45 60.80 202.98 67.75 190.75 75.75 C 178.51 83.74 167.65 92.50 156.25 101.25 C 144.85 110.00 134.94 119.37 124.75 129.75 C 114.56 140.13 104.52 149.50 95.77 160.77 C 87.02 172.04 77.80 183.18 70.25 195.25 C 62.71 207.33 53.52 219.75 47.92 232.92 C 42.32 246.09 31.74 259.75 28.98 273.98 C 26.21 288.20 8.75 304.51 22.75 318.25 C 36.76 331.98 50.15 311.50 52.22 297.22 C 54.29 282.95 64.90 268.63 70.23 255.23 C 75.56 241.83 84.57 229.13 91.75 216.75 C 98.92 204.36 108.78 193.78 117.25 182.25 C 125.71 170.71 135.57 161.31 145.75 150.75 C 155.93 140.19 166.45 131.84 177.75 122.75 C 189.06 113.66 200.32 105.62 212.75 97.75 C 225.19 89.89 237.23 82.62 250.92 75.92 C 264.62 69.23 278.10 63.35 292.92 57.92 C 307.75 52.50 322.33 47.45 338.33 43.33 C 354.33 39.21 371.77 36.67 388.93 33.93 C 406.08 31.18 426.72 30.14 445.00 30.00 C 463.28 29.86 484.73 30.73 502.00 33.00 C 519.27 35.27 535.96 38.07 551.98 42.02 C 567.99 45.98 583.15 50.60 597.93 56.07 C 612.70 61.54 626.13 67.46 639.77 74.23 C 653.41 81.00 665.44 88.22 677.77 96.23 C 690.10 104.24 701.60 111.97 712.75 121.25 C 723.90 130.53 733.97 139.42 744.25 149.75 C 754.53 160.09 763.44 170.15 772.70 181.30 C 781.95 192.46 789.39 204.21 797.70 216.30 C 806.01 228.39 812.43 241.39 819.23 254.77 C 826.03 268.15 832.54 282.23 837.23 296.77 C 841.92 311.31 848.98 327.52 851.02 342.98 C 853.07 358.43 861.04 379.25 859.07 394.93 C 857.11 410.60 867.89 436.19 884.77 424.77 C 901.65 413.35 886.16 390.60 887.00 375.00 C 887.84 359.40 880.38 339.50 877.78 324.22 C 875.18 308.95 867.53 293.54 862.93 279.07 C 858.33 264.61 850.77 251.07 844.32 237.68 C 837.87 224.28 830.56 211.61 822.75 199.25 C 814.95 186.89 806.10 176.18 797.25 164.75 C 788.41 153.31 779.67 143.12 769.25 132.75 C 758.82 122.38 749.53 112.83 738.25 103.75 C 726.97 94.68 716.52 85.67 704.25 77.75 C 691.97 69.83 680.56 61.65 667.23 54.77 C 653.90 47.89 640.92 41.27 626.69 35.31 C 612.47 29.34 598.03 23.84 582.68 19.32 C 567.33 14.80 550.60 10.58 534.22 7.78 C 517.85 4.97 499.18 1.66 482.00 1.00
C 478.81 0.88 474.36 1.89 472.00 0.00
L 426.00 0.00
C 423.65 1.80 419.17 1.00 416.00 1.00 Z"/>
</g>
<g fill="#FEFEFE" fill-opacity="1.00" stroke="None">
<path d="
M 482.00 1.00 
C 482.00 1.00 482.00 0.50 482.00 0.00
L 472.00 0.00
C 474.36 1.89 478.81 0.88 482.00 1.00 Z"/>
</g>
<g fill="#FEFEFE" fill-opacity="1.00" stroke="None">
<path d="
M 619.00 122.00 
C 621.85 121.71 625.14 121.81 628.00 122.00
C 624.83 121.43 622.26 121.28 619.00 122.00 Z"/>
</g>
<g fill="#FEFEFE" fill-opacity="1.00" stroke="None">
<path d="
M 628.00 122.00 
C 625.14 121.81 621.85 121.71 619.00 122.00
C 600.40 126.25 600.55 147.05 595.99 162.99 C 591.44 178.93 587.50 197.43 582.99 213.99 C 578.48 230.55 574.80 248.18 570.00 265.00 C 565.19 281.82 562.32 299.29 557.33 316.33 C 552.33 333.37 550.17 350.61 544.93 367.93 C 539.68 385.24 537.60 401.07 531.98 418.98 C 526.35 436.89 526.69 451.12 518.98 469.98 C 511.26 488.83 542.09 500.29 548.00 481.00 C 553.92 461.71 555.07 447.28 560.22 429.22 C 565.37 411.16 568.58 395.59 573.01 378.01 C 577.43 360.42 581.74 344.31 586.00 327.00 C 590.27 309.69 594.12 292.75 598.67 275.67 C 603.22 258.60 606.97 241.56 611.67 224.67 C 616.37 207.78 619.26 190.21 625.00 174.00
C 628.20 185.08 631.29 197.40 634.07 208.93 C 636.86 220.45 639.99 231.56 643.01 242.99 C 646.03 254.42 648.27 266.03 651.67 277.33 C 655.08 288.63 656.95 300.43 660.22 311.78 C 663.49 323.12 666.26 334.40 669.07 345.93 C 671.89 357.45 675.14 368.39 678.02 379.98 C 680.90 391.56 684.08 402.20 687.01 413.99 C 689.94 425.78 692.74 435.79 696.01 447.99 C 699.28 460.19 701.15 469.13 704.67 482.33 C 708.19 495.53 726.20 491.95 739.00 492.00 C 751.80 492.05 768.58 491.85 782.00 492.00 C 795.42 492.15 811.57 491.65 825.00 492.00 C 838.43 492.35 855.17 491.22 868.00 492.00 C 880.83 492.78 890.52 479.42 882.75 468.25 C 874.98 457.08 860.58 462.78 848.00 462.00 C 835.42 461.22 818.09 462.46 805.00 462.00 C 791.91 461.54 774.76 462.46 762.00 462.00 C 749.24 461.54 730.46 466.43 727.98 453.02 C 725.50 439.62 721.57 430.46 718.93 418.07 C 716.28 405.69 712.71 395.87 709.98 384.02 C 707.24 372.18 703.73 361.63 700.99 350.01 C 698.26 338.39 695.34 327.36 692.00 316.00 C 688.65 304.64 687.06 292.58 683.78 281.22 C 680.49 269.87 677.57 258.61 674.93 247.07 C 672.28 235.54 668.50 224.58 665.98 213.02 C 663.45 201.47 659.94 190.19 657.33 178.67 C 654.72 167.15 650.91 155.72 648.93 144.07 C 646.94 132.42 640.74 122.87 628.00 122.00 Z"/>
</g>
<g fill="#FEFEFE" fill-opacity="1.00" stroke="None">
<path d="
M 23.00 363.00 
C 8.88 360.71 -3.25 371.02 2.03 383.97 C 7.30 396.93 21.54 391.32 27.23 402.77 C 32.92 414.22 39.79 418.32 49.98 424.02 C 60.16 429.73 74.79 427.05 84.30 420.30 C 93.81 413.55 96.56 407.31 104.75 397.75 C 112.95 388.19 122.87 398.86 128.23 408.77 C 133.59 418.68 144.25 423.05 155.00 426.00 C 165.74 428.96 178.55 422.06 186.75 415.75 C 194.95 409.44 197.73 394.21 208.00 393.00 C 218.26 391.79 222.29 407.49 229.75 414.25 C 237.21 421.00 249.19 427.83 260.00 426.00 C 270.81 424.17 282.59 419.71 288.25 410.25 C 293.91 400.78 302.66 388.81 311.75 396.25 C 320.84 403.68 322.34 413.74 332.30 419.70 C 342.26 425.65 352.97 431.41 363.25 422.25 C 373.53 413.08 365.52 398.92 354.03 396.97 C 342.53 395.03 341.19 381.08 332.75 374.25 C 324.32 367.41 311.16 360.78 300.02 363.02 C 288.89 365.27 279.37 371.72 273.30 380.30 C 267.24 388.88 259.48 401.66 250.75 393.25 C 242.03 384.83 240.34 375.92 230.70 369.31 C 221.05 362.69 205.59 359.84 195.22 365.22 C 184.86 370.61 178.09 374.86 172.30 386.30 C 166.52 397.75 155.57 398.13 149.25 386.75 C 142.94 375.36 137.42 371.75 127.08 365.92 C 116.73 360.10 101.78 362.18 92.08 369.08 C 82.38 375.98 78.89 381.96 71.25 392.25 C 63.61 402.53 52.76 389.04 48.25 380.75 C 43.74 372.46 31.70 364.41 23.00 363.00 Z"/>
</g>
<g fill="#FEFEFE" fill-opacity="1.00" stroke="None">
<path d="
M 593.00 426.00 
C 596.73 426.67 601.20 426.00 605.00 426.00
C 622.15 426.00 642.51 429.00 658.97 424.97 C 675.43 420.95 668.35 392.59 651.00 396.00 C 633.65 399.41 613.24 394.28 596.01 396.01 C 578.78 397.73 577.74 421.18 593.00 426.00 Z"/>
</g>
<g fill="#FEFEFE" fill-opacity="1.00" stroke="None">
<path d="
M 605.00 426.00 
C 601.20 426.00 596.73 426.67 593.00 426.00
C 597.04 427.28 601.05 426.38 605.00 426.00 Z"/>
</g>
<g fill="#FEFEFE" fill-opacity="1.00" stroke="None">
<path d="
M 216.00 432.00 
C 213.09 431.80 209.91 431.80 207.00 432.00
C 195.99 433.97 183.27 439.56 177.92 450.92 C 172.57 462.27 160.22 470.75 152.75 458.25 C 145.29 445.74 140.70 441.83 129.08 434.92 C 117.45 428.02 103.28 431.92 92.23 438.23 C 81.18 444.54 80.21 455.52 70.25 463.25 C 60.28 470.98 51.50 454.61 44.77 446.23 C 38.04 437.85 25.66 430.67 13.22 431.22 C 0.79 431.78 -4.68 456.41 8.31 459.69 C 21.29 462.98 26.98 470.35 34.08 480.92 C 41.19 491.48 55.42 496.54 66.99 495.99 C 78.56 495.44 90.34 488.22 96.75 478.75 C 103.16 469.27 112.34 455.72 121.25 466.75 C 130.15 477.79 132.54 483.67 143.92 491.08 C 155.30 498.48 170.10 497.18 181.77 490.77 C 193.44 484.36 194.85 476.46 204.25 466.25 C 213.65 456.04 224.18 470.49 229.75 480.25 C 235.32 490.01 250.63 495.24 261.00 496.00 C 271.37 496.76 287.49 488.25 292.75 479.75 C 298.01 471.25 308.97 454.85 317.08 464.92 C 325.20 474.99 331.06 481.28 339.25 490.75 C 347.43 500.23 346.78 513.89 352.01 524.99 C 357.24 536.10 358.63 549.89 363.68 561.32 C 368.72 572.76 371.04 586.00 375.23 597.77 C 379.41 609.55 383.27 620.93 387.07 632.93 C 390.88 644.92 395.36 656.92 399.02 668.98 C 402.69 681.03 406.85 692.22 410.67 704.33 C 414.50 716.43 418.27 728.47 422.22 740.78 C 426.18 753.09 429.53 763.63 433.70 776.31 C 437.86 788.98 459.93 787.41 462.01 774.01 C 464.08 760.61 468.86 749.76 472.07 737.07 C 475.29 724.38 479.50 712.43 483.02 700.02 C 486.55 687.62 489.61 675.50 493.22 663.22 C 496.84 650.95 501.00 638.41 504.07 626.07 C 507.15 613.73 512.11 602.24 515.01 590.01 C 517.91 577.78 522.86 564.61 525.68 552.68 C 528.49 540.74 537.88 528.12 525.75 518.25 C 513.62 508.38 501.16 521.33 499.93 533.93 C 498.70 546.52 491.43 557.55 488.99 569.99 C 486.55 582.43 481.78 595.10 478.33 607.33 C 474.87 619.55 471.43 631.72 467.93 643.93 C 464.42 656.14 460.76 668.89 456.98 680.98 C 453.19 693.06 450.89 705.69 446.00 717.00
C 441.52 703.51 437.67 689.41 432.93 676.07 C 428.18 662.74 424.43 649.36 419.93 636.07 C 415.42 622.78 411.23 609.47 406.78 596.22 C 402.32 582.97 398.39 569.38 393.78 556.22 C 389.16 543.07 384.88 529.43 380.77 516.23 C 376.66 503.03 370.77 489.03 366.98 476.02 C 363.18 463.02 348.44 460.31 341.92 448.08 C 335.40 435.85 319.36 429.89 307.00 432.00 C 294.64 434.11 281.23 438.28 274.92 452.92 C 268.61 467.55 254.68 466.54 247.75 453.25 C 240.82 439.96 228.88 432.88 216.00 432.00 Z"/>
</g>
<g fill="#FEFEFE" fill-opacity="1.00" stroke="None">
<path d="
M 207.00 432.00 
C 209.91 431.80 213.09 431.80 216.00 432.00
C 212.85 431.44 210.20 431.43 207.00 432.00 Z"/>
</g>
<g fill="#FEFEFE" fill-opacity="1.00" stroke="None">
<path d="
M 423.00 887.00 
C 425.84 887.00 429.98 886.21 432.00 888.00
L 458.00 888.00
C 461.42 886.22 466.82 887.00 471.00 887.00
C 489.04 887.00 510.60 883.55 527.78 880.78 C 544.95 878.00 561.30 872.76 577.32 868.32 C 593.35 863.88 608.13 857.89 622.92 851.92 C 637.72 845.95 651.34 838.33 664.92 830.92 C 678.51 823.52 690.85 815.90 703.25 807.25 C 715.66 798.61 726.70 789.77 738.25 780.25 C 749.80 770.73 759.41 759.78 770.25 749.25 C 781.08 738.72 789.97 727.93 799.23 716.23 C 808.49 704.53 816.56 692.43 824.75 679.75 C 832.93 667.06 840.43 652.95 847.23 639.23 C 854.02 625.50 860.06 609.85 865.68 595.68 C 871.30 581.51 875.23 561.42 879.67 547.67 C 884.11 533.93 889.97 505.41 869.01 506.01 C 848.05 506.60 854.68 534.49 848.93 547.93 C 843.17 561.37 840.16 580.98 833.92 594.92 C 827.69 608.87 821.36 624.66 813.92 637.92 C 806.49 651.19 799.41 664.51 790.77 676.77 C 782.13 689.03 773.70 700.57 763.77 711.77 C 753.84 722.97 744.91 733.38 733.75 743.75 C 722.60 754.12 711.83 763.59 699.75 772.75 C 687.67 781.90 675.85 789.66 662.70 797.70 C 649.54 805.73 636.61 812.47 622.08 819.08 C 607.54 825.68 592.91 832.09 577.02 837.02 C 561.14 841.96 545.12 846.59 528.00 850.00 C 510.89 853.42 491.28 855.66 473.00 857.00 C 454.72 858.34 430.27 858.43 412.02 856.98 C 393.78 855.53 375.07 852.33 358.02 848.98 C 340.98 845.62 324.92 841.05 309.22 835.78 C 293.53 830.50 278.75 824.30 264.23 817.77 C 249.71 811.24 237.45 803.52 224.23 795.77 C 211.01 788.02 199.75 779.31 187.75 770.25 C 175.74 761.19 164.73 751.61 153.75 741.25 C 142.77 730.89 133.63 720.39 123.92 709.08 C 114.21 697.77 105.64 686.17 97.25 673.75 C 88.87 661.32 81.50 648.10 74.31 634.70 C 67.11 621.29 60.43 605.10 54.93 591.07 C 49.42 577.05 43.75 557.50 40.33 543.67 C 36.90 529.84 37.18 501.35 16.68 506.68 C -3.82 512.01 9.19 537.48 11.22 551.78 C 13.25 566.08 21.64 584.56 26.02 598.98 C 30.41 613.39 38.10 628.57 44.69 642.31 C 51.29 656.04 59.22 670.01 67.25 682.75 C 75.27 695.50 84.02 706.98 93.25 718.75 C 102.47 730.53 111.46 740.98 122.25 751.75 C 133.03 762.53 143.20 772.60 154.75 782.25 C 166.30 791.90 177.37 800.51 189.92 809.08 C 202.47 817.66 214.64 825.07 228.30 832.70 C 241.97 840.32 256.09 846.83 270.92 853.08 C 285.76 859.32 300.65 864.70 316.78 869.22 C 332.90 873.75 349.57 878.48 366.93 881.07 C 384.29 883.67 404.65 887.00 423.00 887.00 Z"/>
</g>
<g fill="#FEFEFE" fill-opacity="1.00" stroke="None">
<path d="
M 423.00 888.00 
L 432.00 888.00
C 429.98 886.21 425.84 887.00 423.00 887.00
C 423.00 887.00 423.00 887.50 423.00 888.00 Z"/>
</g>
<g fill="#FEFEFE" fill-opacity="1.00" stroke="None">
<path d="
M 458.00 888.00 
L 471.00 888.00
C 471.00 888.00 471.04 887.00 471.00 887.00
C 466.82 887.00 461.42 886.22 458.00 888.00 Z"/>
</g>
</svg>