<svg id="svg" version="1.1" xmlns="http://www.w3.org/2000/svg" xmlns:xlink="http://www.w3.org/1999/xlink" width="400" height="397.7603583426652" viewBox="0, 0, 400,397.7603583426652"><g id="svgg"><path id="path0" d="M189.055 0.248 C 168.917 2.006,155.079 4.453,140.498 8.836 C 77.090 27.894,29.611 72.768,9.718 132.438 C 7.585 138.839,8.068 141.482,11.753 143.569 C 16.013 145.982,20.065 143.678,21.702 137.910 C 32.306 100.557,65.428 59.848,101.692 39.598 C 134.109 21.495,164.930 13.355,200.995 13.370 C 245.806 13.389,283.105 26.187,318.624 53.731 C 347.245 75.926,370.768 112.136,380.159 148.458 C 382.541 157.670,385.635 177.320,385.675 183.483 C 385.726 191.466,394.966 194.586,398.350 187.763 L 399.287 185.874 398.432 178.409 C 397.961 174.304,397.399 169.357,397.182 167.415 C 393.129 131.099,373.373 89.921,346.459 61.695 C 312.671 26.260,272.948 7.042,220.896 0.948 C 215.801 0.351,193.492 -0.139,189.055 0.248 M276.423 54.957 C 272.580 55.909,271.299 57.700,269.473 64.677 C 264.983 81.828,259.349 104.057,251.314 136.318 C 247.716 150.766,244.519 163.483,244.210 164.577 C 243.900 165.672,242.280 172.119,240.610 178.905 C 238.940 185.692,236.405 195.811,234.977 201.393 C 231.810 213.772,231.644 215.024,232.915 216.906 C 235.789 221.160,241.370 221.248,244.178 217.082 C 244.633 216.407,245.749 212.729,246.712 208.734 C 247.659 204.806,248.684 200.697,248.990 199.602 C 249.434 198.013,267.502 125.723,272.217 106.667 C 272.840 104.149,274.459 97.791,275.814 92.537 C 277.168 87.284,278.539 81.911,278.858 80.599 C 279.608 77.521,280.042 77.121,280.534 79.054 C 280.750 79.903,281.772 83.910,282.805 87.960 C 283.838 92.010,284.909 96.308,285.186 97.512 C 285.463 98.716,286.706 103.642,287.948 108.458 C 289.190 113.274,291.168 120.975,292.343 125.572 C 295.294 137.115,297.794 146.843,299.505 153.433 C 300.301 156.498,301.642 161.692,302.485 164.975 C 304.011 170.921,310.041 194.083,314.183 209.910 C 315.717 215.771,316.606 218.475,317.196 219.064 C 318.042 219.911,387.442 220.825,391.276 220.040 C 395.860 219.101,397.790 213.275,394.743 209.577 C 392.483 206.836,394.263 206.965,358.868 206.965 L 326.865 206.965 325.419 201.294 C 324.624 198.174,323.274 192.935,322.419 189.652 C 321.563 186.368,320.053 180.547,319.063 176.716 C 318.073 172.886,315.352 162.408,313.017 153.433 C 310.683 144.458,308.355 135.413,307.845 133.333 C 307.334 131.254,306.084 126.328,305.067 122.388 C 302.100 110.898,300.082 102.949,294.763 81.791 C 292.012 70.846,289.585 61.264,289.371 60.498 C 288.245 56.472,281.669 53.658,276.423 54.957 M3.619 163.641 C -1.838 167.407,0.421 175.920,6.877 175.920 C 8.686 175.920,9.250 176.423,12.958 181.335 C 18.401 188.545,22.107 190.817,28.458 190.836 C 35.155 190.856,38.806 188.580,44.828 180.628 C 49.863 173.980,50.722 174.035,56.296 181.372 C 66.534 194.846,78.093 194.494,88.330 180.396 C 92.996 173.969,94.219 174.149,100.245 182.144 C 109.606 194.563,121.475 194.160,131.147 181.095 C 136.572 173.765,137.379 173.873,144.173 182.833 C 148.091 188.000,152.238 190.529,157.413 190.909 C 165.784 191.524,167.619 179.273,159.340 178.043 C 157.019 177.699,155.668 176.577,152.836 172.645 C 143.420 159.569,131.148 159.244,121.747 171.822 C 115.807 179.768,114.711 179.865,109.632 172.895 C 99.788 159.387,86.361 159.272,77.780 172.623 C 73.308 179.580,71.373 179.579,66.120 172.620 C 60.460 165.122,57.006 162.985,50.547 162.985 C 43.309 162.985,40.275 164.883,33.854 173.429 C 29.157 179.680,27.987 179.593,22.761 172.609 C 16.491 164.231,8.314 160.400,3.619 163.641 M272.637 177.895 C 263.725 178.129,263.944 178.076,262.262 180.398 C 260.019 183.495,260.872 187.865,264.151 190.075 C 265.561 191.025,292.984 191.109,295.431 190.170 C 298.919 188.832,300.240 183.610,297.956 180.189 C 296.048 177.331,295.591 177.290,272.637 177.895 M4.577 194.041 C 3.701 194.357,2.936 194.618,2.877 194.621 C 2.288 194.653,0.398 198.644,0.398 199.853 C 0.398 202.958,2.591 205.976,5.149 206.391 C 9.124 207.035,8.353 206.365,14.925 214.892 C 23.205 225.633,35.307 224.517,44.766 212.139 C 50.269 204.937,51.397 204.854,56.203 211.295 C 66.993 225.756,78.694 226.024,88.921 212.046 C 94.199 204.831,95.500 204.827,100.850 212.001 C 110.788 225.326,123.742 225.611,132.552 212.698 C 137.957 204.776,139.477 204.690,144.921 211.992 C 146.411 213.991,148.733 216.624,150.080 217.843 C 152.686 220.202,153.337 221.580,156.214 230.846 C 156.723 232.488,158.578 238.129,160.335 243.383 C 162.093 248.637,166.781 262.876,170.755 275.025 C 174.728 287.174,178.663 299.174,179.500 301.692 C 181.345 307.246,187.554 326.470,191.455 338.706 C 194.545 348.399,195.409 350.172,197.537 351.182 C 201.605 353.112,206.050 350.678,206.937 346.035 C 207.142 344.959,208.149 341.214,209.174 337.711 C 210.200 334.209,211.127 330.985,211.234 330.547 C 211.342 330.109,211.939 328.050,212.562 325.970 C 213.942 321.358,220.123 300.032,221.905 293.731 C 223.278 288.880,225.256 282.086,229.264 268.458 C 230.616 263.861,232.305 258.040,233.017 255.522 C 233.730 253.005,235.144 248.116,236.161 244.658 C 238.262 237.516,238.322 236.917,237.186 234.569 C 235.013 230.080,228.014 229.807,225.735 234.122 C 225.473 234.619,224.540 237.532,223.662 240.597 C 222.784 243.662,221.375 248.587,220.529 251.542 C 219.684 254.498,218.152 259.781,217.125 263.284 C 214.937 270.747,213.407 276.006,210.411 286.368 C 209.208 290.527,207.210 297.423,205.971 301.692 C 204.732 305.960,203.364 310.706,202.931 312.239 C 199.943 322.798,200.078 322.637,198.447 317.612 C 192.431 299.078,176.485 250.409,172.365 238.010 C 170.438 232.209,167.572 223.485,165.997 218.623 C 162.905 209.082,162.700 208.746,159.483 207.943 C 158.347 207.660,156.782 205.994,153.332 201.393 C 144.835 190.064,132.061 191.012,122.937 203.650 C 117.664 210.952,116.422 210.897,110.572 203.101 C 101.028 190.383,89.014 190.140,79.772 202.477 C 73.464 210.898,72.391 210.993,66.870 203.616 C 56.655 189.965,45.114 189.941,34.843 203.548 C 29.274 210.925,28.319 210.952,23.012 203.874 C 18.039 197.243,15.246 195.117,10.062 194.019 C 6.774 193.322,6.572 193.323,4.577 194.041 M7.479 227.247 C 3.312 228.551,2.115 231.340,3.190 237.239 C 18.398 320.658,88.476 385.742,174.328 396.180 C 185.030 397.481,189.231 397.746,199.204 397.749 C 247.469 397.764,292.289 381.429,329.839 350.137 C 360.299 324.753,384.574 285.491,393.384 247.363 C 397.116 231.208,396.769 228.558,390.731 227.109 C 386.092 225.996,383.820 228.815,382.052 237.876 C 376.734 265.125,363.947 292.270,345.708 315.025 C 342.554 318.959,341.983 319.622,337.318 324.745 C 330.193 332.572,321.529 340.272,310.050 348.978 C 309.070 349.722,301.035 355.125,298.706 356.607 C 210.145 412.959,87.055 381.564,35.804 289.552 C 26.414 272.696,18.933 251.791,15.897 233.928 C 15.041 228.893,11.415 226.015,7.479 227.247 " stroke="none" fill="#1f56a4" fill-rule="evenodd"></path><path id="path1" d="M0.000 83.881 L 0.001 167.761 0.843 166.059 C 4.376 158.921,15.241 161.922,22.973 172.172 C 28.429 179.406,29.100 179.359,34.926 171.335 C 44.163 158.614,56.501 159.118,66.630 172.631 C 71.679 179.368,72.286 179.305,78.192 171.442 C 87.835 158.604,99.681 159.050,109.925 172.636 C 114.962 179.317,115.837 179.245,121.315 171.704 C 127.308 163.454,134.434 160.632,142.436 163.339 C 146.498 164.713,149.304 167.158,153.826 173.261 C 156.446 176.798,157.122 177.325,159.535 177.714 C 166.703 178.868,166.847 189.947,159.710 191.288 C 153.836 192.391,147.947 188.818,141.608 180.306 C 137.594 174.915,136.251 174.930,132.204 180.410 C 121.035 195.532,109.485 195.532,98.327 180.410 C 94.148 174.747,92.634 174.867,88.292 181.210 C 78.648 195.300,65.889 195.071,55.200 180.618 C 50.705 174.540,49.704 174.698,44.008 182.386 C 34.598 195.086,22.349 194.644,12.320 181.242 C 9.279 177.179,8.298 176.318,6.704 176.318 C 4.306 176.318,1.610 174.483,0.564 172.139 C 0.106 171.113,0.030 172.904,0.024 184.876 C 0.017 198.797,0.018 198.805,0.761 197.168 C 4.212 189.569,15.412 192.642,23.085 203.293 C 28.064 210.205,29.431 210.221,34.419 203.424 C 44.625 189.519,56.944 189.435,67.079 203.200 C 72.250 210.223,73.333 210.308,77.978 204.056 C 88.883 189.378,100.793 189.170,111.324 203.473 C 116.299 210.231,117.905 210.233,122.532 203.487 C 132.060 189.597,145.310 189.507,155.305 203.264 C 157.447 206.213,158.035 206.751,160.164 207.720 C 161.497 208.325,162.808 209.089,163.077 209.417 C 163.575 210.023,164.888 213.936,178.079 254.129 C 182.174 266.607,186.132 278.607,186.873 280.796 C 187.614 282.985,190.747 292.567,193.835 302.090 C 196.922 311.612,199.584 319.745,199.749 320.163 C 199.968 320.720,200.324 319.921,201.077 317.178 C 201.643 315.118,202.945 310.567,203.972 307.065 C 204.998 303.562,206.793 297.383,207.960 293.333 C 209.128 289.284,210.920 283.104,211.943 279.602 C 212.966 276.100,215.200 268.398,216.907 262.488 C 225.954 231.165,225.243 233.301,227.063 231.948 C 231.544 228.617,238.408 231.840,238.408 237.276 C 238.408 237.980,237.706 240.897,236.848 243.756 C 235.990 246.616,235.084 249.761,234.835 250.746 C 234.586 251.731,233.862 254.239,233.226 256.318 C 232.591 258.398,231.325 262.697,230.414 265.871 C 229.502 269.045,228.046 274.060,227.178 277.015 C 226.309 279.970,225.002 284.537,224.272 287.164 C 223.542 289.791,222.683 292.746,222.363 293.731 C 222.043 294.716,220.778 299.015,219.552 303.284 C 218.326 307.552,216.850 312.657,216.272 314.627 C 215.695 316.597,214.633 320.269,213.914 322.786 C 213.195 325.303,211.582 330.856,210.330 335.124 C 209.079 339.393,207.800 344.043,207.490 345.459 C 206.295 350.896,202.980 353.173,198.191 351.842 C 195.587 351.119,194.476 349.425,192.448 343.085 C 191.433 339.910,189.731 334.627,188.666 331.343 C 187.601 328.060,184.995 320.000,182.875 313.433 C 180.755 306.866,177.721 297.552,176.133 292.736 C 174.546 287.920,170.603 275.920,167.373 266.070 C 164.142 256.219,159.932 243.413,158.016 237.612 C 156.100 231.811,154.118 225.721,153.612 224.080 C 152.768 221.344,152.438 220.845,149.654 218.109 C 147.984 216.468,145.569 213.626,144.288 211.795 C 139.791 205.366,138.363 205.452,133.206 212.460 C 122.962 226.385,110.799 226.152,100.217 211.828 C 95.590 205.566,94.372 205.534,89.852 211.550 C 83.571 219.911,79.807 222.289,72.855 222.289 C 66.010 222.289,62.218 219.971,56.478 212.279 C 51.461 205.557,50.205 205.433,45.966 211.237 C 41.055 217.963,38.605 220.083,33.921 221.661 C 25.995 224.331,18.064 220.792,12.151 211.946 C 9.983 208.703,8.412 207.428,6.025 206.976 C 3.348 206.468,1.698 205.292,0.758 203.223 C 0.033 201.627,0.017 203.705,0.009 299.801 L 0.000 398.010 94.030 397.940 C 145.746 397.902,187.254 397.816,186.269 397.749 C 97.181 391.698,21.219 327.477,4.150 243.781 C 3.615 241.154,2.886 237.779,2.531 236.281 C 1.258 230.907,4.099 226.866,9.150 226.866 C 13.788 226.866,15.466 228.855,16.702 235.821 C 20.064 254.767,28.906 277.797,39.393 294.925 C 39.594 295.254,40.408 296.587,41.201 297.887 C 44.841 303.854,51.928 313.285,58.818 321.332 C 64.934 328.475,78.387 340.849,86.567 346.856 C 88.318 348.142,90.378 349.654,91.144 350.217 C 95.391 353.334,103.573 358.358,109.652 361.579 C 112.060 362.855,114.925 364.377,116.020 364.962 C 124.502 369.489,139.526 375.017,152.239 378.288 C 247.949 402.913,346.551 349.589,376.672 256.915 C 378.687 250.717,381.863 238.074,382.448 233.925 C 383.111 229.215,385.509 226.866,389.652 226.866 C 395.539 226.866,397.255 230.392,395.599 239.084 C 390.949 263.480,380.619 288.506,366.529 309.510 C 347.601 337.727,322.908 359.739,292.139 375.824 C 268.666 388.094,239.313 396.200,212.736 397.750 C 211.642 397.814,253.328 397.899,305.373 397.938 L 400.000 398.010 400.000 199.005 L 400.000 0.000 307.761 0.072 C 257.030 0.111,216.418 0.203,217.512 0.275 C 305.514 6.104,380.108 71.949,395.981 157.811 C 397.521 166.141,397.744 167.799,399.428 183.349 C 400.403 192.347,387.045 195.516,385.847 186.571 C 385.752 185.857,385.217 181.423,384.658 176.716 C 382.793 160.990,380.739 150.906,377.079 139.502 C 357.932 79.846,309.143 34.381,248.159 19.367 C 241.757 17.790,239.063 17.240,231.244 15.909 C 195.827 9.884,154.044 15.471,119.861 30.803 C 114.755 33.094,102.933 39.134,101.891 39.986 C 101.562 40.254,100.219 41.076,98.905 41.813 C 64.540 61.085,33.612 100.144,21.646 139.384 C 19.247 147.251,7.960 146.347,7.960 138.289 C 7.960 133.449,16.302 112.939,23.493 100.100 C 35.644 78.404,50.978 60.379,70.846 44.435 C 102.252 19.232,143.462 3.242,184.677 0.268 C 185.662 0.197,144.512 0.108,93.234 0.070 L 0.000 0.000 0.000 83.881 M285.261 55.548 C 288.535 57.149,289.363 58.592,291.109 65.739 C 291.929 69.095,293.208 74.169,293.952 77.015 C 294.697 79.861,295.736 83.980,296.263 86.169 C 297.118 89.728,300.832 104.309,305.943 124.179 C 306.929 128.010,308.511 134.189,309.460 137.910 C 310.409 141.632,311.930 147.542,312.840 151.045 C 313.750 154.547,315.442 161.085,316.602 165.572 C 317.761 170.060,319.552 176.955,320.583 180.896 C 321.614 184.836,323.247 191.104,324.213 194.826 C 325.179 198.547,326.260 202.711,326.615 204.080 L 327.261 206.567 359.066 206.567 C 393.025 206.567,392.412 206.534,394.554 208.472 C 397.715 211.333,397.102 217.373,393.432 219.524 L 391.744 220.514 355.426 220.502 C 322.741 220.491,318.973 220.425,317.746 219.843 C 316.354 219.182,315.224 217.551,315.224 216.203 C 315.224 215.789,314.877 214.124,314.452 212.501 C 314.027 210.879,312.761 206.060,311.638 201.791 C 310.515 197.522,308.996 191.701,308.262 188.856 C 306.902 183.580,302.772 167.699,300.241 158.010 C 299.469 155.055,298.061 149.592,297.113 145.871 C 296.165 142.149,294.465 135.522,293.335 131.144 C 290.185 118.931,284.839 97.924,282.320 87.854 C 281.073 82.871,279.932 78.930,279.785 79.098 C 279.638 79.266,277.960 85.582,276.058 93.134 C 269.638 118.615,252.806 185.959,249.098 200.995 C 246.683 210.787,245.102 216.431,244.500 217.405 C 242.045 221.377,235.286 221.476,232.875 217.576 C 231.322 215.064,231.392 214.071,233.769 204.727 C 234.988 199.938,241.283 174.796,247.760 148.856 C 254.236 122.915,260.616 97.483,261.938 92.338 C 263.259 87.194,264.769 81.194,265.291 79.005 C 265.814 76.816,266.514 74.129,266.848 73.035 C 267.181 71.940,268.098 68.408,268.886 65.186 C 270.754 57.541,272.108 55.616,276.418 54.477 C 278.636 53.890,282.939 54.411,285.261 55.548 M296.125 178.026 C 300.581 180.382,300.640 188.133,296.221 190.388 C 294.693 191.167,266.095 191.553,264.347 190.818 C 260.147 189.052,259.430 181.312,263.215 178.612 C 265.423 177.037,293.317 176.541,296.125 178.026 " stroke="none" fill="#fbfbfb" fill-rule="evenodd"></path><path id="path2" d="M181.194 0.672 C 181.577 0.772,182.204 0.772,182.587 0.672 C 182.970 0.572,182.657 0.490,181.891 0.490 C 181.124 0.490,180.811 0.572,181.194 0.672 M189.552 13.817 C 190.154 13.909,191.139 13.909,191.741 13.817 C 192.343 13.726,191.851 13.652,190.647 13.652 C 189.443 13.652,188.950 13.726,189.552 13.817 M210.448 13.813 C 210.940 13.908,211.746 13.908,212.239 13.813 C 212.731 13.718,212.328 13.641,211.343 13.641 C 210.358 13.641,209.955 13.718,210.448 13.813 M75.209 41.024 L 73.831 42.246 75.323 41.176 C 76.642 40.229,77.072 39.801,76.701 39.801 C 76.638 39.801,75.967 40.351,75.209 41.024 M59.079 54.627 L 57.910 55.920 59.204 54.751 C 60.410 53.662,60.680 53.333,60.373 53.333 C 60.304 53.333,59.722 53.915,59.079 54.627 M342.886 57.711 C 345.286 60.119,347.340 62.090,347.449 62.090 C 347.559 62.090,345.684 60.119,343.284 57.711 C 340.883 55.303,338.829 53.333,338.720 53.333 C 338.611 53.333,340.485 55.303,342.886 57.711 M278.308 54.414 C 278.910 54.506,279.896 54.506,280.498 54.414 C 281.100 54.323,280.607 54.249,279.403 54.249 C 278.199 54.249,277.706 54.323,278.308 54.414 M70.050 63.085 C 69.083 64.070,68.382 64.876,68.491 64.876 C 68.600 64.876,69.481 64.070,70.448 63.085 C 71.415 62.100,72.116 61.294,72.007 61.294 C 71.897 61.294,71.017 62.100,70.050 63.085 M332.537 66.866 C 335.596 69.930,338.188 72.438,338.298 72.438 C 338.407 72.438,335.994 69.930,332.935 66.866 C 329.877 63.801,327.284 61.294,327.175 61.294 C 327.065 61.294,329.479 63.801,332.537 66.866 M49.340 64.378 L 47.164 66.667 49.453 64.491 C 51.579 62.470,51.924 62.090,51.628 62.090 C 51.566 62.090,50.536 63.119,49.340 64.378 M349.851 65.075 C 350.593 65.841,351.290 66.468,351.400 66.468 C 351.509 66.468,350.991 65.841,350.249 65.075 C 349.506 64.308,348.809 63.682,348.700 63.682 C 348.590 63.682,349.108 64.308,349.851 65.075 M64.652 68.159 L 63.483 69.453 64.776 68.284 C 65.982 67.194,66.253 66.866,65.945 66.866 C 65.877 66.866,65.295 67.448,64.652 68.159 M58.681 74.527 L 57.512 75.821 58.806 74.652 C 60.012 73.562,60.282 73.234,59.975 73.234 C 59.906 73.234,59.324 73.816,58.681 74.527 M48.866 162.680 C 49.802 162.764,51.235 162.763,52.050 162.677 C 52.865 162.592,52.100 162.523,50.348 162.525 C 48.597 162.526,47.930 162.596,48.866 162.680 M92.040 162.678 C 92.861 162.764,94.204 162.764,95.025 162.678 C 95.846 162.592,95.174 162.522,93.532 162.522 C 91.891 162.522,91.219 162.592,92.040 162.678 M135.224 162.679 C 136.154 162.763,137.677 162.763,138.607 162.679 C 139.537 162.596,138.776 162.527,136.915 162.527 C 135.055 162.527,134.294 162.596,135.224 162.679 M81.378 167.662 L 79.403 169.751 81.493 167.776 C 82.642 166.690,83.582 165.750,83.582 165.687 C 83.582 165.390,83.213 165.720,81.378 167.662 M124.564 167.861 L 122.388 170.149 124.677 167.974 C 126.803 165.953,127.147 165.572,126.852 165.572 C 126.790 165.572,125.760 166.602,124.564 167.861 M18.308 166.891 C 18.308 166.959,18.891 167.541,19.602 168.184 L 20.896 169.353 19.727 168.060 C 18.637 166.854,18.308 166.583,18.308 166.891 M37.392 168.259 L 36.020 169.751 37.512 168.380 C 38.333 167.625,39.005 166.954,39.005 166.887 C 39.005 166.583,38.668 166.869,37.392 168.259 M383.774 169.552 C 383.774 170.318,383.856 170.632,383.956 170.249 C 384.056 169.866,384.056 169.239,383.956 168.856 C 383.856 168.473,383.774 168.786,383.774 169.552 M397.704 169.950 C 397.704 170.716,397.786 171.030,397.886 170.647 C 397.986 170.264,397.986 169.637,397.886 169.254 C 397.786 168.871,397.704 169.184,397.704 169.950 M76.816 173.134 C 76.348 173.791,76.055 174.328,76.165 174.328 C 76.274 174.328,76.746 173.791,77.214 173.134 C 77.682 172.478,77.975 171.940,77.865 171.940 C 77.756 171.940,77.284 172.478,76.816 173.134 M31.023 176.219 L 29.652 177.711 31.144 176.340 C 31.965 175.585,32.637 174.914,32.637 174.847 C 32.637 174.543,32.300 174.830,31.023 176.219 M74.204 176.418 L 73.035 177.711 74.328 176.542 C 75.040 175.900,75.622 175.317,75.622 175.249 C 75.622 174.941,75.293 175.212,74.204 176.418 M7.995 176.418 C 8.088 176.473,8.789 177.055,9.554 177.711 L 10.945 178.905 9.776 177.612 C 9.133 176.900,8.432 176.318,8.217 176.318 C 8.003 176.318,7.903 176.363,7.995 176.418 M47.342 177.811 L 45.970 179.303 47.463 177.932 C 48.284 177.177,48.955 176.506,48.955 176.439 C 48.955 176.135,48.618 176.422,47.342 177.811 M283.860 177.410 C 285.765 177.483,288.989 177.484,291.025 177.411 C 293.061 177.339,291.502 177.279,287.562 177.279 C 283.622 177.278,281.956 177.338,283.860 177.410 M384.968 179.104 C 384.968 179.871,385.050 180.184,385.150 179.801 C 385.250 179.418,385.250 178.791,385.150 178.408 C 385.050 178.025,384.968 178.338,384.968 179.104 M164.890 184.478 C 164.893 185.572,164.970 185.973,165.062 185.368 C 165.153 184.763,165.151 183.867,165.056 183.378 C 164.962 182.888,164.887 183.383,164.890 184.478 M299.396 184.279 C 299.396 185.045,299.478 185.358,299.578 184.975 C 299.678 184.592,299.678 183.965,299.578 183.582 C 299.478 183.199,299.396 183.512,299.396 184.279 M15.522 185.274 C 16.265 186.040,16.962 186.667,17.072 186.667 C 17.181 186.667,16.663 186.040,15.920 185.274 C 15.178 184.507,14.481 183.881,14.371 183.881 C 14.262 183.881,14.780 184.507,15.522 185.274 M40.777 185.970 L 39.204 187.662 40.896 186.088 C 41.826 185.223,42.587 184.462,42.587 184.397 C 42.587 184.096,42.240 184.397,40.777 185.970 M83.959 186.169 L 82.587 187.662 84.080 186.290 C 85.469 185.013,85.755 184.677,85.451 184.677 C 85.385 184.677,84.713 185.348,83.959 186.169 M266.766 191.335 C 267.587 191.421,268.930 191.421,269.751 191.335 C 270.572 191.249,269.900 191.179,268.259 191.179 C 266.617 191.179,265.945 191.249,266.766 191.335 M49.851 193.320 C 50.453 193.411,51.438 193.411,52.040 193.320 C 52.642 193.229,52.149 193.154,50.945 193.154 C 49.741 193.154,49.249 193.229,49.851 193.320 M93.632 193.320 C 94.234 193.411,95.219 193.411,95.821 193.320 C 96.423 193.229,95.930 193.154,94.726 193.154 C 93.522 193.154,93.030 193.229,93.632 193.320 M137.811 193.320 C 138.413 193.411,139.398 193.411,140.000 193.320 C 140.602 193.229,140.109 193.154,138.905 193.154 C 137.701 193.154,137.209 193.229,137.811 193.320 M18.905 198.607 C 19.984 199.701,20.955 200.597,21.065 200.597 C 21.174 200.597,20.382 199.701,19.303 198.607 C 18.225 197.512,17.254 196.617,17.144 196.617 C 17.035 196.617,17.827 197.512,18.905 198.607 M126.747 198.308 L 125.174 200.000 126.866 198.427 C 128.439 196.964,128.740 196.617,128.439 196.617 C 128.374 196.617,127.613 197.378,126.747 198.308 M61.692 197.139 C 61.692 197.208,62.274 197.790,62.985 198.433 L 64.279 199.602 63.110 198.308 C 62.020 197.103,61.692 196.832,61.692 197.139 M342.617 206.866 C 351.225 206.925,365.195 206.925,373.661 206.866 C 382.128 206.806,375.085 206.757,358.010 206.757 C 340.935 206.757,334.008 206.806,342.617 206.866 M8.358 207.488 C 8.358 207.556,8.940 208.138,9.652 208.781 L 10.945 209.950 9.776 208.657 C 8.687 207.451,8.358 207.180,8.358 207.488 M135.895 208.657 L 134.726 209.950 136.020 208.781 C 137.226 207.692,137.496 207.363,137.189 207.363 C 137.120 207.363,136.538 207.945,135.895 208.657 M129.142 217.015 L 126.766 219.502 129.254 217.127 C 131.564 214.920,131.923 214.527,131.629 214.527 C 131.568 214.527,130.448 215.647,129.142 217.015 M16.302 217.015 C 17.278 218.055,18.128 218.905,18.192 218.905 C 18.491 218.905,18.175 218.548,16.418 216.899 L 14.527 215.124 16.302 217.015 M147.264 215.846 C 147.264 215.914,147.846 216.497,148.557 217.139 L 149.851 218.308 148.682 217.015 C 147.592 215.809,147.264 215.538,147.264 215.846 M230.547 230.722 C 230.930 230.822,231.557 230.822,231.940 230.722 C 232.323 230.622,232.010 230.540,231.244 230.540 C 230.478 230.540,230.164 230.622,230.547 230.722 M235.224 231.766 C 235.224 231.835,235.806 232.417,236.517 233.060 L 237.811 234.229 236.642 232.935 C 235.552 231.730,235.224 231.459,235.224 231.766 M2.082 233.632 C 2.082 234.398,2.164 234.711,2.264 234.328 C 2.365 233.945,2.365 233.318,2.264 232.935 C 2.164 232.552,2.082 232.866,2.082 233.632 M338.489 322.886 L 336.915 324.577 338.607 323.004 C 339.537 322.138,340.299 321.377,340.299 321.312 C 340.299 321.011,339.952 321.312,338.489 322.886 M66.269 329.552 C 68.669 331.960,70.723 333.930,70.832 333.930 C 70.942 333.930,69.067 331.960,66.667 329.552 C 64.266 327.144,62.213 325.174,62.103 325.174 C 61.994 325.174,63.868 327.144,66.269 329.552 M332.728 329.055 L 329.353 332.537 332.836 329.163 C 336.070 326.029,336.500 325.572,336.210 325.572 C 336.151 325.572,334.583 327.139,332.728 329.055 M351.219 329.254 L 350.050 330.547 351.343 329.378 C 352.055 328.735,352.637 328.153,352.637 328.085 C 352.637 327.777,352.308 328.048,351.219 329.254 M49.552 331.940 C 50.407 332.816,51.196 333.532,51.306 333.532 C 51.415 333.532,50.805 332.816,49.950 331.940 C 49.095 331.065,48.306 330.348,48.197 330.348 C 48.087 330.348,48.697 331.065,49.552 331.940 M347.839 333.035 L 346.468 334.527 347.960 333.156 C 349.349 331.879,349.636 331.542,349.332 331.542 C 349.265 331.542,348.594 332.214,347.839 333.035 M325.174 336.119 C 324.207 337.104,323.506 337.910,323.615 337.910 C 323.725 337.910,324.605 337.104,325.572 336.119 C 326.539 335.134,327.240 334.328,327.131 334.328 C 327.021 334.328,326.141 335.134,325.174 336.119 M56.510 339.204 C 58.805 341.557,60.730 343.483,60.789 343.483 C 61.076 343.483,60.591 342.972,56.617 339.097 L 52.338 334.925 56.510 339.204 M73.632 336.517 C 74.374 337.284,75.072 337.910,75.181 337.910 C 75.290 337.910,74.772 337.284,74.030 336.517 C 73.287 335.751,72.590 335.124,72.481 335.124 C 72.371 335.124,72.889 335.751,73.632 336.517 M341.471 339.801 L 340.100 341.294 341.592 339.922 C 342.981 338.645,343.268 338.308,342.964 338.308 C 342.897 338.308,342.225 338.980,341.471 339.801 M335.103 345.771 L 333.731 347.264 335.224 345.892 C 336.613 344.615,336.899 344.279,336.595 344.279 C 336.529 344.279,335.857 344.950,335.103 345.771 M63.881 346.269 C 64.736 347.144,65.525 347.861,65.634 347.861 C 65.744 347.861,65.134 347.144,64.279 346.269 C 63.424 345.393,62.634 344.677,62.525 344.677 C 62.416 344.677,63.026 345.393,63.881 346.269 M331.318 349.154 L 330.149 350.448 331.443 349.279 C 332.154 348.636,332.736 348.054,332.736 347.985 C 332.736 347.678,332.408 347.948,331.318 349.154 M107.065 360.378 C 107.065 360.487,107.602 360.854,108.259 361.194 C 108.915 361.534,109.453 361.722,109.453 361.612 C 109.453 361.503,108.915 361.136,108.259 360.796 C 107.602 360.456,107.065 360.268,107.065 360.378 M286.965 378.109 C 285.761 378.746,284.916 379.274,285.088 379.285 C 285.511 379.310,289.353 377.349,289.353 377.108 C 289.353 376.842,289.408 376.819,286.965 378.109 M195.124 384.377 C 197.478 384.447,201.328 384.447,203.682 384.377 C 206.035 384.306,204.109 384.249,199.403 384.249 C 194.697 384.249,192.771 384.306,195.124 384.377 M181.990 397.488 C 182.373 397.588,183.000 397.588,183.383 397.488 C 183.766 397.388,183.453 397.306,182.687 397.306 C 181.920 397.306,181.607 397.388,181.990 397.488 M215.627 397.495 C 216.122 397.591,216.838 397.587,217.219 397.487 C 217.599 397.388,217.194 397.310,216.318 397.314 C 215.443 397.319,215.131 397.400,215.627 397.495 " stroke="none" fill="#a5bcda" fill-rule="evenodd"></path><path id="path3" d="M179.602 1.070 C 179.985 1.170,180.612 1.170,180.995 1.070 C 181.378 0.970,181.065 0.888,180.299 0.888 C 179.532 0.888,179.219 0.970,179.602 1.070 M175.622 1.468 C 176.005 1.568,176.632 1.568,177.015 1.468 C 177.398 1.368,177.085 1.286,176.318 1.286 C 175.552 1.286,175.239 1.368,175.622 1.468 M224.975 1.468 C 225.358 1.568,225.985 1.568,226.368 1.468 C 226.751 1.368,226.438 1.286,225.672 1.286 C 224.905 1.286,224.592 1.368,224.975 1.468 M196.517 13.431 C 198.980 13.501,203.010 13.501,205.473 13.431 C 207.935 13.362,205.920 13.304,200.995 13.304 C 196.070 13.304,194.055 13.362,196.517 13.431 M186.368 13.807 C 186.751 13.907,187.378 13.907,187.761 13.807 C 188.144 13.707,187.831 13.625,187.065 13.625 C 186.299 13.625,185.985 13.707,186.368 13.807 M112.935 33.460 C 112.114 33.893,111.443 34.337,111.443 34.445 C 111.443 34.623,114.587 33.154,114.992 32.787 C 115.450 32.372,114.254 32.764,112.935 33.460 M338.706 53.930 C 339.895 55.134,340.958 56.119,341.067 56.119 C 341.177 56.119,340.294 55.134,339.104 53.930 C 337.915 52.726,336.853 51.741,336.744 51.741 C 336.634 51.741,337.517 52.726,338.706 53.930 M345.473 60.697 C 346.883 62.119,348.126 63.284,348.236 63.284 C 348.345 63.284,347.281 62.119,345.871 60.697 C 344.460 59.274,343.217 58.109,343.108 58.109 C 342.998 58.109,344.062 59.274,345.473 60.697 M325.572 59.900 C 326.315 60.667,327.012 61.294,327.121 61.294 C 327.231 61.294,326.713 60.667,325.970 59.900 C 325.228 59.134,324.530 58.507,324.421 58.507 C 324.312 58.507,324.830 59.134,325.572 59.900 M69.232 63.582 L 67.861 65.075 69.353 63.703 C 70.742 62.426,71.029 62.090,70.725 62.090 C 70.658 62.090,69.987 62.761,69.232 63.582 M332.935 66.866 C 335.336 69.274,337.389 71.244,337.499 71.244 C 337.608 71.244,335.734 69.274,333.333 66.866 C 330.933 64.458,328.879 62.488,328.770 62.488 C 328.660 62.488,330.535 64.458,332.935 66.866 M48.333 65.771 L 47.164 67.065 48.458 65.896 C 49.169 65.253,49.751 64.671,49.751 64.602 C 49.751 64.295,49.423 64.565,48.333 65.771 M59.477 73.333 L 58.308 74.627 59.602 73.458 C 60.808 72.368,61.078 72.040,60.771 72.040 C 60.702 72.040,60.120 72.622,59.477 73.333 M339.900 74.229 C 340.643 74.995,341.340 75.622,341.450 75.622 C 341.559 75.622,341.041 74.995,340.299 74.229 C 339.556 73.463,338.859 72.836,338.749 72.836 C 338.640 72.836,339.158 73.463,339.900 74.229 M8.074 137.910 C 8.077 139.005,8.154 139.405,8.246 138.800 C 8.337 138.195,8.335 137.300,8.240 136.810 C 8.146 136.321,8.071 136.816,8.074 137.910 M19.088 168.060 C 20.737 169.817,21.095 170.133,21.095 169.834 C 21.095 169.770,20.244 168.919,19.204 167.944 L 17.313 166.169 19.088 168.060 M61.294 166.891 C 61.294 166.959,61.876 167.541,62.587 168.184 L 63.881 169.353 62.712 168.060 C 61.622 166.854,61.294 166.583,61.294 166.891 M90.522 177.612 L 89.353 178.905 90.647 177.736 C 91.358 177.094,91.940 176.511,91.940 176.443 C 91.940 176.135,91.612 176.406,90.522 177.612 M269.573 177.809 C 271.719 177.881,275.122 177.881,277.135 177.809 C 279.149 177.737,277.393 177.678,273.234 177.678 C 269.075 177.679,267.427 177.738,269.573 177.809 M398.500 179.104 C 398.500 179.871,398.582 180.184,398.682 179.801 C 398.782 179.418,398.782 178.791,398.682 178.408 C 398.582 178.025,398.500 178.338,398.500 179.104 M260.797 184.478 C 260.801 185.353,260.883 185.665,260.978 185.169 C 261.073 184.674,261.070 183.958,260.970 183.577 C 260.870 183.197,260.792 183.602,260.797 184.478 M83.766 185.970 L 81.791 188.060 83.881 186.085 C 85.030 184.998,85.970 184.058,85.970 183.995 C 85.970 183.698,85.601 184.028,83.766 185.970 M127.145 185.970 L 125.572 187.662 127.264 186.088 C 128.837 184.625,129.138 184.279,128.837 184.279 C 128.772 184.279,128.011 185.040,127.145 185.970 M297.493 188.689 C 297.346 188.926,296.664 189.462,295.976 189.882 C 295.289 190.301,294.947 190.644,295.218 190.645 C 295.727 190.647,298.520 188.291,298.033 188.270 C 297.882 188.264,297.639 188.452,297.493 188.689 M276.940 190.945 C 280.292 191.011,285.665 191.011,288.880 190.944 C 292.096 190.877,289.353 190.823,282.786 190.823 C 276.219 190.823,273.588 190.878,276.940 190.945 M157.313 191.319 C 157.697 191.419,158.323 191.419,158.706 191.319 C 159.090 191.219,158.776 191.137,158.010 191.137 C 157.244 191.137,156.930 191.219,157.313 191.319 M62.869 198.706 C 63.845 199.746,64.696 200.597,64.759 200.597 C 65.058 200.597,64.742 200.240,62.985 198.590 L 61.095 196.816 62.869 198.706 M126.567 198.806 C 125.600 199.791,124.899 200.597,125.008 200.597 C 125.118 200.597,125.998 199.791,126.965 198.806 C 127.932 197.821,128.633 197.015,128.524 197.015 C 128.414 197.015,127.534 197.821,126.567 198.806 M82.562 198.706 L 81.393 200.000 82.687 198.831 C 83.398 198.188,83.980 197.606,83.980 197.537 C 83.980 197.230,83.652 197.501,82.562 198.706 M394.226 208.957 C 396.113 211.162,396.139 211.186,395.707 210.348 C 395.482 209.910,394.788 209.105,394.166 208.559 L 393.035 207.565 394.226 208.957 M40.777 217.015 L 39.204 218.706 40.896 217.133 C 41.826 216.268,42.587 215.507,42.587 215.442 C 42.587 215.140,42.240 215.442,40.777 217.015 M148.657 216.915 C 149.512 217.791,150.301 218.507,150.410 218.507 C 150.520 218.507,149.910 217.791,149.055 216.915 C 148.200 216.040,147.411 215.323,147.301 215.323 C 147.192 215.323,147.802 216.040,148.657 216.915 M103.483 215.846 C 103.483 215.914,104.065 216.497,104.776 217.139 L 106.070 218.308 104.901 217.015 C 103.811 215.809,103.483 215.538,103.483 215.846 M315.656 216.772 C 315.637 217.240,315.935 217.965,316.318 218.383 C 316.701 218.800,316.868 218.921,316.689 218.651 C 316.509 218.381,316.211 217.656,316.026 217.040 C 315.754 216.132,315.684 216.081,315.656 216.772 M336.846 220.398 C 346.658 220.457,362.599 220.457,372.269 220.398 C 381.939 220.339,373.910 220.290,354.428 220.290 C 334.945 220.290,327.033 220.339,336.846 220.398 M383.272 230.868 C 383.031 231.318,382.893 231.863,382.965 232.079 C 383.037 232.295,383.302 231.927,383.553 231.261 C 384.076 229.876,383.920 229.657,383.272 230.868 M396.120 233.433 C 396.125 234.308,396.206 234.620,396.301 234.125 C 396.397 233.630,396.393 232.913,396.293 232.533 C 396.194 232.152,396.116 232.557,396.120 233.433 M29.884 278.010 C 29.884 278.229,30.227 279.035,30.647 279.801 C 31.066 280.567,31.409 281.015,31.409 280.796 C 31.409 280.577,31.066 279.771,30.647 279.005 C 30.227 278.239,29.884 277.791,29.884 278.010 M58.507 321.717 C 58.507 321.785,59.090 322.367,59.801 323.010 L 61.095 324.179 59.926 322.886 C 58.836 321.680,58.507 321.409,58.507 321.717 M63.682 327.274 C 63.682 327.334,65.070 328.722,66.766 330.358 L 69.851 333.333 66.876 330.249 C 64.112 327.384,63.682 326.983,63.682 327.274 M333.308 328.856 L 332.139 330.149 333.433 328.980 C 334.144 328.337,334.726 327.755,334.726 327.687 C 334.726 327.379,334.398 327.650,333.308 328.856 M348.433 332.040 L 347.264 333.333 348.557 332.164 C 349.269 331.521,349.851 330.939,349.851 330.871 C 349.851 330.563,349.522 330.834,348.433 332.040 M326.144 335.622 L 324.975 336.915 326.269 335.746 C 326.980 335.103,327.562 334.521,327.562 334.453 C 327.562 334.145,327.234 334.416,326.144 335.622 M57.313 339.701 C 60.043 342.438,62.366 344.677,62.476 344.677 C 62.585 344.677,60.441 342.438,57.711 339.701 C 54.982 336.965,52.659 334.726,52.549 334.726 C 52.440 334.726,54.584 336.965,57.313 339.701 M341.485 339.403 L 337.711 343.284 341.592 339.510 C 343.726 337.435,345.473 335.689,345.473 335.630 C 345.473 335.341,344.989 335.799,341.485 339.403 M333.909 346.567 L 332.537 348.060 334.030 346.688 C 335.419 345.411,335.705 345.075,335.401 345.075 C 335.335 345.075,334.663 345.746,333.909 346.567 M187.766 384.361 C 188.261 384.456,188.977 384.453,189.358 384.353 C 189.738 384.253,189.333 384.176,188.458 384.180 C 187.582 384.184,187.271 384.266,187.766 384.361 M209.453 384.354 C 209.836 384.454,210.463 384.454,210.846 384.354 C 211.229 384.254,210.915 384.172,210.149 384.172 C 209.383 384.172,209.070 384.254,209.453 384.354 M176.020 396.692 C 176.403 396.792,177.030 396.792,177.413 396.692 C 177.796 396.592,177.483 396.510,176.716 396.510 C 175.950 396.510,175.637 396.592,176.020 396.692 M221.393 396.692 C 221.776 396.792,222.403 396.792,222.786 396.692 C 223.169 396.592,222.856 396.510,222.090 396.510 C 221.323 396.510,221.010 396.592,221.393 396.692 M217.015 397.090 C 217.398 397.190,218.025 397.190,218.408 397.090 C 218.791 396.990,218.478 396.908,217.711 396.908 C 216.945 396.908,216.632 396.990,217.015 397.090 M212.637 397.488 C 213.020 397.588,213.647 397.588,214.030 397.488 C 214.413 397.388,214.100 397.306,213.333 397.306 C 212.567 397.306,212.254 397.388,212.637 397.488 M191.746 397.893 C 192.241 397.989,192.957 397.985,193.338 397.885 C 193.719 397.786,193.313 397.708,192.438 397.712 C 191.562 397.717,191.251 397.798,191.746 397.893 M205.676 397.893 C 206.171 397.989,206.888 397.985,207.268 397.885 C 207.649 397.786,207.244 397.708,206.368 397.712 C 205.493 397.717,205.181 397.798,205.676 397.893 " stroke="none" fill="#84a4cc" fill-rule="evenodd"></path><path id="path4" d="M6.468 162.662 C 6.851 162.763,7.478 162.763,7.861 162.662 C 8.244 162.562,7.930 162.480,7.164 162.480 C 6.398 162.480,6.085 162.562,6.468 162.662 M59.701 186.070 C 60.444 186.836,61.141 187.463,61.251 187.463 C 61.360 187.463,60.842 186.836,60.100 186.070 C 59.357 185.303,58.660 184.677,58.550 184.677 C 58.441 184.677,58.959 185.303,59.701 186.070 M28.164 222.371 C 28.659 222.466,29.375 222.463,29.756 222.363 C 30.136 222.263,29.731 222.186,28.856 222.190 C 27.980 222.194,27.669 222.276,28.164 222.371 M71.940 222.370 C 72.433 222.465,73.239 222.465,73.731 222.370 C 74.224 222.276,73.821 222.198,72.836 222.198 C 71.851 222.198,71.448 222.276,71.940 222.370 M116.119 222.370 C 116.612 222.465,117.418 222.465,117.910 222.370 C 118.403 222.276,118.000 222.198,117.015 222.198 C 116.030 222.198,115.627 222.276,116.119 222.370 " stroke="none" fill="#8ca4cd" fill-rule="evenodd"></path></g></svg>