<?xml version="1.0" standalone="no"?>
<!DOCTYPE svg PUBLIC "-//W3C//DTD SVG 20010904//EN"
 "http://www.w3.org/TR/2001/REC-SVG-20010904/DTD/svg10.dtd">
<svg version="1.0" xmlns="http://www.w3.org/2000/svg"
 width="893.000000pt" height="888.000000pt" viewBox="0 0 893.000000 888.000000"
 preserveAspectRatio="xMidYMid meet">

<g transform="translate(0.000000,888.000000) scale(0.100000,-0.100000)"
fill="#fdfffd" stroke="none">
<path d="M4220 8874 c-19 -2 -91 -9 -160 -14 -763 -66 -1526 -329 -2150 -743
-662 -439 -1160 -1003 -1490 -1690 -110 -229 -240 -570 -240 -632 0 -46 38
-96 93 -124 43 -21 52 -22 91 -11 66 18 90 51 136 185 264 767 726 1401 1375
1887 545 408 1206 684 1912 797 433 70 956 70 1393 1 1561 -248 2817 -1338
3268 -2835 77 -254 161 -732 162 -915 1 -103 62 -170 155 -170 83 0 145 58
145 135 0 22 -11 137 -25 255 -59 526 -183 963 -398 1412 -469 979 -1301 1753
-2312 2150 -391 154 -757 244 -1200 294 -131 14 -670 28 -755 18z"/>
<path d="M6140 7644 c-42 -18 -68 -41 -85 -74 -20 -39 -134 -483 -556 -2165
-172 -682 -314 -1260 -316 -1285 -10 -88 51 -150 149 -150 47 0 60 4 92 33
l38 32 353 1410 c429 1715 427 1708 439 1694 1 -2 35 -132 75 -289 39 -157 91
-361 115 -455 24 -93 87 -339 140 -545 88 -345 137 -538 307 -1190 127 -487
158 -606 163 -631 13 -61 -24 -59 876 -59 926 -1 860 -7 901 78 36 73 14 151
-54 192 -31 19 -56 20 -754 20 l-722 0 -10 38 c-5 20 -40 152 -76 292 -36 140
-82 316 -101 390 -20 74 -48 185 -64 246 -137 527 -463 1803 -542 2123 -46
184 -54 208 -85 242 -20 22 -53 44 -80 53 -58 20 -157 20 -203 0z"/>
<path d="M95 5240 c-43 -17 -78 -67 -82 -117 -9 -90 39 -154 127 -169 58 -9
76 -23 134 -104 104 -144 193 -210 309 -228 75 -12 147 0 222 37 70 35 112 75
203 197 62 82 70 89 105 92 47 4 58 -5 135 -108 126 -168 214 -222 360 -222
132 0 231 58 333 195 95 125 107 137 149 137 42 0 54 -12 149 -137 104 -138
201 -195 336 -195 146 1 241 62 367 237 58 80 80 97 124 93 36 -3 44 -10 117
-106 44 -57 101 -121 128 -142 95 -75 239 -106 296 -64 93 70 95 190 4 251
-19 13 -46 23 -60 23 -40 0 -64 22 -146 129 -120 159 -221 217 -365 209 -138
-8 -223 -64 -344 -227 -101 -135 -134 -141 -213 -40 -27 34 -66 85 -89 113
-143 181 -381 207 -551 61 -23 -20 -71 -76 -107 -124 -117 -159 -145 -160
-255 -7 -121 166 -217 226 -363 226 -128 0 -231 -62 -338 -205 -131 -174 -151
-176 -263 -25 -96 130 -157 182 -251 213 -52 18 -137 21 -171 7z"/>
<path d="M5927 4910 c-39 -7 -85 -55 -97 -101 -15 -55 3 -115 47 -156 l34 -33
333 0 c330 0 333 0 367 23 86 57 92 191 11 252 -26 19 -43 20 -347 20 -176 0
-332 -2 -348 -5z"/>
<path d="M125 4560 c-96 -21 -143 -124 -99 -216 18 -38 69 -74 105 -74 43 0
88 -34 139 -105 109 -151 194 -215 311 -236 51 -9 82 -9 123 -1 122 25 196 79
300 222 119 161 143 161 262 -1 123 -167 213 -222 359 -222 148 0 243 59 371
233 58 79 94 110 128 110 24 0 65 -40 135 -133 76 -102 113 -137 181 -172 111
-56 237 -54 351 7 67 35 90 58 184 181 39 50 82 98 96 106 45 25 82 1 159
-103 37 -50 92 -113 122 -141 l55 -50 151 -455 c281 -848 670 -2040 750 -2300
29 -95 59 -143 102 -165 40 -21 99 -19 138 5 35 21 72 74 72 102 0 10 25 104
56 210 31 106 93 321 139 478 46 157 117 404 159 550 155 534 236 814 305
1046 49 165 47 199 -14 253 -71 62 -184 47 -225 -30 -9 -16 -56 -169 -73 -234
-2 -11 -37 -130 -76 -265 -40 -135 -97 -328 -126 -430 -316 -1091 -296 -1026
-306 -1009 -10 18 -19 47 -189 569 -78 239 -152 467 -165 505 -150 451 -445
1354 -445 1362 0 24 -53 73 -91 85 -34 10 -53 28 -121 116 -123 160 -217 210
-374 200 -135 -9 -236 -79 -344 -239 -63 -91 -108 -117 -161 -89 -10 6 -48 50
-84 99 -80 109 -140 165 -213 199 -50 24 -70 27 -157 27 -89 0 -106 -3 -155
-28 -72 -36 -111 -72 -200 -187 -85 -109 -96 -119 -130 -120 -38 0 -64 23
-141 126 -78 104 -131 152 -205 186 -41 19 -66 23 -149 23 -87 0 -107 -3 -155
-26 -76 -36 -110 -67 -196 -180 -81 -107 -106 -129 -144 -129 -34 1 -56 21
-129 118 -94 125 -150 173 -234 202 -66 22 -114 29 -152 20z"/>
<path d="M157 3806 c-47 -17 -64 -32 -84 -70 -21 -41 -19 -79 17 -249 144
-691 452 -1324 919 -1887 142 -172 434 -458 616 -604 808 -648 1784 -990 2825
-990 1099 0 2115 376 2945 1090 730 628 1229 1478 1425 2427 24 120 28 156 20
186 -20 75 -102 122 -179 101 -44 -12 -99 -60 -106 -93 -2 -12 -16 -81 -30
-154 -104 -535 -357 -1104 -694 -1563 -166 -226 -424 -504 -643 -693 -754
-648 -1729 -1007 -2733 -1007 -647 0 -1254 137 -1823 411 -196 94 -304 155
-476 266 -636 414 -1146 992 -1471 1668 -145 302 -270 683 -319 974 -19 114
-38 149 -96 179 -51 25 -61 26 -113 8z"/>
</g>
</svg>
