<svg xmlns="http://www.w3.org/2000/svg" xmlns:v="https://svgstorm.com"
viewBox = "0 0 893 888"
width="893"
height="888">
<g fill="None" fill-opacity="0.0" stroke="#000000" stroke-opacity="0.00" stroke-width="0.3"><path d="
M 0.00 373.00 
C 0.50 373.00 1.00 373.00 1.00 373.00
C 4.58 355.33 32.61 362.73 40.70 372.30 C 48.78 381.87 61.46 403.75 72.30 390.30 C 83.14 376.86 89.37 364.40 107.00 363.00
C 110.21 362.38 112.88 362.49 116.00 363.00
C 125.77 363.53 137.22 370.73 142.75 378.25 C 148.28 385.76 156.62 400.80 165.75 393.75 C 174.88 386.70 176.02 376.54 185.25 370.25 C 194.48 363.96 209.54 360.04 220.01 363.99 C 230.48 367.94 237.98 373.43 243.30 383.70 C 248.63 393.96 260.29 399.95 266.77 388.77 C 273.25 377.59 278.00 373.19 287.75 366.75 C 297.49 360.31 313.37 361.66 323.07 366.93 C 332.78 372.20 337.44 379.93 343.92 389.08 C 350.40 398.24 365.20 395.17 366.99 409.01 C 368.78 422.85 355.23 429.50 343.78 425.22 C 332.33 420.94 326.36 415.86 320.00 406.00
C 317.21 402.60 313.11 395.90 309.00 394.00
C 295.57 390.27 291.96 409.54 281.77 416.77 C 271.58 424.00 256.62 430.71 242.98 424.02 C 229.33 417.34 226.15 409.58 216.25 397.75 C 206.34 385.93 196.23 404.27 189.08 413.08 C 181.94 421.90 163.62 431.12 151.33 425.67 C 139.04 420.22 130.22 416.32 122.75 402.25 C 115.28 388.18 102.58 396.75 96.08 409.08 C 89.58 421.41 73.70 427.40 61.78 426.22 C 49.86 425.05 34.75 419.35 29.70 406.30 C 24.65 393.26 5.54 394.23 1.00 382.00
C 0.94 381.84 0.00 382.00 0.00 382.00
L 0.00 442.00
C 6.70 427.88 21.82 430.00 33.70 436.30 C 45.57 442.61 47.63 453.07 57.75 462.25 C 67.88 471.43 76.64 454.66 83.75 445.75 C 90.86 436.84 106.04 428.94 118.07 431.93 C 130.11 434.91 142.38 439.48 148.30 452.70 C 154.23 465.91 167.54 468.84 174.30 455.30 C 181.06 441.77 189.61 438.71 201.68 432.68 C 213.74 426.64 229.73 435.90 238.25 442.75 C 246.77 449.61 252.88 470.48 265.00 465.00
C 268.62 463.05 273.56 455.19 276.00 452.00
C 285.18 436.70 302.64 427.66 320.22 432.78 C 337.80 437.90 342.94 454.29 357.08 463.92 C 371.21 473.56 371.57 495.21 377.93 511.07 C 384.28 526.94 389.10 545.59 394.92 562.08 C 400.75 578.57 405.67 596.59 411.78 613.22 C 417.88 629.86 421.91 648.07 428.32 664.68 C 434.73 681.29 437.80 699.60 446.00 715.00
C 449.32 708.68 449.90 700.73 453.00 694.00
C 455.65 685.16 458.64 675.57 461.00 667.00
C 461.44 663.97 462.14 661.87 463.00 659.00
C 465.56 650.45 467.20 641.53 470.00 633.00
C 470.12 632.65 470.75 632.25 471.00 632.00
C 472.14 627.63 472.41 622.72 474.77 618.77 C 477.14 614.82 475.20 607.91 479.00 605.00
C 479.01 604.50 479.00 604.00 479.00 604.00
C 479.38 593.91 484.94 583.22 487.33 573.33 C 489.71 563.43 493.03 552.82 496.00 543.00
C 496.11 542.65 496.74 542.24 497.00 542.00
C 499.42 533.45 500.04 519.63 510.00 516.00
C 529.48 508.90 533.36 531.07 527.03 544.03 C 520.69 556.98 519.97 573.32 515.01 587.01 C 510.05 600.70 506.44 615.30 502.22 629.22 C 498.01 643.15 494.15 658.28 490.07 672.07 C 485.99 685.87 481.12 701.05 477.68 714.68 C 474.24 728.31 468.13 744.36 465.22 757.22 C 462.32 770.09 456.99 794.14 439.00 783.00
C 432.22 778.80 428.29 767.50 428.00 760.00
C 427.98 759.50 428.00 759.00 428.00 759.00
C 424.46 754.64 423.55 746.47 422.00 741.00
C 421.75 740.75 421.07 740.35 421.00 740.00
C 418.59 727.82 413.40 715.98 410.00 704.00
C 409.70 703.79 409.07 703.35 409.00 703.00
C 406.02 687.92 399.70 672.66 395.00 658.00
C 393.57 654.69 392.10 651.42 391.00 648.00
C 386.55 634.10 382.25 620.00 378.00 606.00
C 375.00 599.35 372.18 591.27 370.00 584.00
C 368.67 579.56 366.75 574.60 366.00 570.00
C 365.92 569.51 366.00 569.00 366.00 569.00
C 361.03 562.88 361.11 552.66 357.68 545.32 C 354.25 537.98 352.57 528.72 350.00 521.00
C 347.00 514.36 344.66 506.37 343.00 499.00
C 340.19 490.34 330.94 487.07 327.00 479.00
C 326.80 478.60 327.00 478.00 327.00 478.00
C 321.57 474.46 319.65 464.87 314.00 462.00
C 302.98 457.37 296.36 475.72 288.75 482.75 C 281.14 489.78 266.51 499.27 254.93 495.07 C 243.35 490.87 232.39 488.40 226.23 475.77 C 220.07 463.14 207.65 458.39 200.23 471.23 C 192.81 484.07 186.86 487.33 174.92 493.92 C 162.98 500.52 148.25 492.42 138.25 486.75 C 128.24 481.08 126.13 464.22 114.97 462.03 C 103.82 459.83 98.38 479.39 89.75 485.75 C 81.13 492.12 65.28 499.55 53.93 494.07 C 42.57 488.60 33.23 485.07 27.25 472.75 C 21.27 460.44 6.37 462.47 0.00 451.00
L 0.00 888.00
L 409.00 888.00
C 408.15 887.38 405.91 886.25 405.00 886.00
C 389.04 883.67 370.43 882.27 354.98 879.02 C 339.52 875.78 324.28 871.74 309.78 867.22 C 295.27 862.71 281.27 858.08 267.92 852.08 C 254.58 846.07 241.74 840.61 229.32 833.68 C 216.90 826.75 205.42 819.91 193.92 812.08 C 182.42 804.25 170.92 796.40 160.30 787.70 C 149.69 779.00 140.23 770.05 130.25 760.75 C 120.28 751.44 112.06 741.29 102.75 731.25 C 93.44 721.20 86.34 709.99 78.08 698.92 C 69.83 687.85 63.23 676.05 56.08 663.92 C 48.92 651.80 42.60 638.71 36.23 625.77 C 29.86 612.83 26.58 597.77 20.68 584.32 C 14.78 570.87 14.39 552.69 8.67 539.33 C 2.95 525.97 6.00 501.07 24.67 506.33 C 43.34 511.59 34.83 534.06 40.99 547.01 C 47.16 559.95 48.03 577.64 54.33 590.67 C 60.63 603.70 65.18 618.45 71.98 631.03 C 78.77 643.60 85.51 655.31 92.77 667.23 C 100.03 679.15 108.22 689.26 116.75 700.25 C 125.29 711.23 134.01 720.98 143.25 730.75 C 152.50 740.52 162.32 749.57 172.75 758.25 C 183.18 766.92 193.96 775.71 205.25 783.75 C 216.54 791.79 228.51 798.03 240.74 805.26 C 252.98 812.48 265.60 817.91 279.03 823.97 C 292.45 830.04 306.48 834.21 321.02 838.98 C 335.57 843.74 351.26 847.00 367.00 850.00 C 382.74 853.00 401.45 855.87 418.00 857.00
C 420.97 857.20 424.02 857.00 427.00 857.00
C 428.67 857.00 430.33 857.00 432.00 857.00
C 441.67 857.00 451.33 857.00 461.00 857.00
C 465.00 857.00 469.00 857.00 473.00 857.00
C 475.31 856.78 479.08 856.23 482.00 856.00
C 490.89 855.29 500.00 853.87 509.00 853.00
C 547.61 845.69 588.34 835.51 624.00 818.00
C 624.25 817.74 624.67 817.17 625.00 817.00
C 654.32 801.81 683.41 785.87 709.00 764.00
C 723.69 751.44 738.41 738.74 751.00 724.00
C 752.86 721.82 755.05 719.95 757.00 718.00
C 767.23 706.03 776.23 695.07 785.30 682.30 C 794.37 669.53 802.75 656.17 810.31 642.31 C 817.86 628.44 824.26 613.14 830.77 598.77 C 837.28 584.40 841.52 563.99 846.78 549.78 C 852.03 535.57 847.64 506.75 868.00 506.00
C 891.65 505.13 880.36 536.83 877.02 551.02 C 873.68 565.22 867.05 587.52 861.23 602.23 C 855.40 616.94 848.65 633.98 841.08 648.08 C 833.51 662.18 825.48 677.16 816.25 690.25 C 807.01 703.34 798.58 716.03 788.23 728.23 C 777.88 740.43 767.43 751.39 755.75 762.75 C 744.08 774.11 732.62 783.95 719.92 793.92 C 707.21 803.89 694.80 812.25 680.77 820.77 C 666.75 829.29 652.64 837.69 637.32 844.32 C 622.00 850.95 607.52 858.55 590.77 863.77 C 574.02 868.99 555.95 874.41 537.99 877.99 C 520.03 881.57 498.14 886.00 479.00 886.00
C 478.54 886.16 477.23 887.39 477.00 888.00
L 893.00 888.00
L 893.00 460.00
C 891.35 451.41 891.32 439.52 893.00 431.00
L 893.00 0.00
L 485.00 0.00
C 485.00 0.50 485.00 1.00 485.00 1.00
C 502.31 1.00 521.49 5.31 538.01 7.99 C 554.53 10.67 570.71 16.33 586.22 20.78 C 601.74 25.22 616.35 31.05 630.69 37.31 C 645.04 43.56 658.23 50.20 671.25 57.75 C 684.26 65.31 696.88 72.35 708.75 81.25 C 720.61 90.16 731.72 98.56 742.75 108.25 C 753.79 117.93 763.47 127.61 773.75 138.25 C 784.03 148.88 792.09 160.03 801.30 171.70 C 810.51 183.36 818.38 194.98 826.25 207.75 C 834.13 220.52 840.82 233.41 847.77 247.23 C 854.72 261.05 859.94 275.91 865.33 290.67 C 870.71 305.43 874.99 322.62 878.99 338.01 C 882.99 353.40 884.40 375.35 887.78 390.22 C 891.16 405.09 890.40 435.90 869.00 426.00
C 852.73 418.48 858.94 390.79 855.02 374.98 C 851.11 359.16 849.25 337.07 843.68 321.32 C 838.11 305.58 833.28 288.64 826.23 273.77 C 819.18 258.90 813.23 243.98 804.70 230.31 C 796.16 216.63 788.39 203.77 778.70 191.30 C 769.01 178.84 760.21 167.21 749.00 156.00
C 743.75 150.75 738.20 145.20 733.00 140.00
C 717.51 124.51 698.62 109.96 681.00 98.00
C 678.58 96.71 676.33 95.77 674.00 94.00
C 666.76 89.56 658.43 83.30 651.00 80.00
C 649.64 79.61 649.07 79.52 648.00 79.00
C 642.90 76.54 637.82 73.38 633.00 71.00
C 614.73 64.42 600.35 56.27 581.32 50.68 C 562.29 45.09 544.41 39.63 523.93 36.07 C 503.45 32.52 478.77 30.63 457.00 30.00 C 435.23 29.37 409.50 30.97 388.98 33.98 C 368.45 36.98 346.93 40.45 327.99 45.99 C 309.05 51.53 292.05 57.55 274.78 64.78 C 257.50 72.00 241.83 80.06 226.25 89.25 C 210.68 98.45 196.93 107.29 182.92 117.92 C 168.91 128.54 156.75 139.93 144.25 152.25 C 131.75 164.56 120.85 176.91 110.25 190.25 C 99.64 203.59 90.19 220.23 81.23 234.23 C 72.27 248.23 64.08 268.97 58.02 283.02 C 51.97 297.08 47.11 330.63 26.78 321.22 C 6.45 311.81 25.79 285.02 30.32 270.32 C 34.85 255.62 46.03 235.20 53.92 220.92 C 61.82 206.65 72.10 190.41 82.30 177.30 C 92.51 164.20 103.22 148.92 116.00 138.00
C 122.61 131.39 128.91 124.06 136.00 118.00
C 201.93 61.66 277.29 21.89 362.00 7.00
C 365.03 6.47 367.91 6.50 371.00 6.00
C 376.97 4.38 384.39 3.36 391.00 3.00
C 395.44 2.28 401.78 1.54 406.00 0.00
L 0.00 0.00
L 0.00 373.00
M 730.00 461.00 
C 737.44 464.48 748.66 459.42 757.00 461.00 C 765.34 462.58 775.19 460.27 784.00 461.00 C 792.81 461.73 802.99 460.57 812.00 461.00 C 821.01 461.43 829.90 460.60 839.00 461.00 C 848.10 461.40 857.86 460.38 867.00 461.00
C 884.15 462.17 890.48 486.42 872.00 491.00
C 866.64 492.33 860.05 492.00 854.00 492.00
C 844.01 492.00 833.22 491.89 824.00 491.00
C 811.38 491.00 797.50 491.63 785.00 491.00 C 772.50 490.37 758.04 492.67 746.00 491.00 C 733.96 489.33 718.61 495.31 708.00 490.00
C 697.98 484.99 701.43 466.55 697.00 457.00 C 692.57 447.45 691.32 433.03 687.67 422.33 C 684.02 411.63 681.94 398.57 678.67 387.33 C 675.41 376.08 672.88 363.79 669.67 352.33 C 666.47 340.87 663.41 329.01 660.67 317.33 C 657.93 305.65 654.01 294.48 651.22 282.78 C 648.44 271.07 645.66 259.00 642.67 247.33 C 639.68 235.65 636.14 224.20 633.68 212.32 C 631.21 200.44 626.31 188.15 625.00 176.00
C 615.99 191.57 614.39 211.31 609.07 229.07 C 603.75 246.84 599.81 267.02 595.02 285.02 C 590.23 303.03 585.44 323.22 581.02 341.02 C 576.61 358.83 571.20 379.06 567.07 396.07 C 562.95 413.09 557.30 437.16 553.22 452.22 C 549.15 467.29 547.10 501.05 525.00 490.00
C 515.73 485.36 515.45 474.76 518.99 465.99 C 522.54 457.22 522.97 446.96 526.00 438.00
C 526.18 437.46 526.71 436.46 527.00 436.00
C 534.38 414.16 536.36 390.35 543.33 368.33 C 550.29 346.31 553.33 323.09 560.00 301.00
C 560.11 300.65 560.75 300.25 561.00 300.00
C 562.28 295.11 562.53 289.87 564.00 285.00
C 564.11 284.65 564.70 284.21 565.00 284.00
C 575.82 242.56 583.60 200.03 596.00 159.00
C 596.11 158.65 596.75 158.25 597.00 158.00
C 599.93 146.79 599.65 130.95 611.00 124.00
C 619.50 118.79 630.02 120.70 638.25 125.75 C 646.47 130.81 646.77 142.12 649.00 151.00 C 651.22 159.89 653.81 169.78 655.98 179.02 C 658.14 188.27 661.19 198.28 663.33 207.67 C 665.46 217.06 668.54 225.79 670.78 235.22 C 673.02 244.65 675.07 254.95 677.78 264.22 C 680.48 273.49 682.47 282.69 684.98 292.02 C 687.49 301.35 689.73 311.38 692.32 320.68 C 694.91 329.97 696.95 339.38 699.33 348.67 C 701.71 357.96 704.21 368.02 706.98 377.02 C 709.74 386.03 710.82 396.49 713.98 405.02 C 717.14 413.56 717.53 426.06 721.33 433.67 C 725.13 441.28 723.26 456.38 730.00 461.00
M 589.00 425.00 
C 576.95 419.43 579.90 402.19 590.00 397.00
C 590.72 396.63 591.19 396.17 592.00 396.00
C 602.57 393.75 616.15 396.00 627.00 396.00
C 640.06 396.00 661.03 389.71 666.31 405.70 C 671.58 421.68 652.49 430.17 638.00 426.00 C 623.51 421.83 602.82 431.39 589.00 425.00 Z"/>
</g>
<g fill="None" fill-opacity="0.0" stroke="#6C7C95" stroke-opacity="0.70" stroke-width="0.3"><path d="
M 391.00 3.00 
C 397.89 2.63 404.88 1.59 411.00 1.00
C 410.65 0.95 410.17 0.34 410.00 0.00
L 406.00 0.00
C 401.78 1.54 395.44 2.28 391.00 3.00 Z"/>
</g>
<g fill="None" fill-opacity="0.0" stroke="#99ADC9" stroke-opacity="0.92" stroke-width="0.3"><path d="
M 411.00 1.00 
C 415.64 1.67 422.13 1.33 426.00 0.00
L 410.00 0.00
C 410.17 0.34 410.65 0.95 411.00 1.00 Z"/>
</g>
<g fill="None" fill-opacity="0.0" stroke="#2057A2" stroke-opacity="0.99" stroke-width="0.3"><path d="
M 411.00 1.00 
C 404.88 1.59 397.89 2.63 391.00 3.00
C 384.39 3.36 376.97 4.38 371.00 6.00
C 367.91 6.84 364.63 6.83 362.00 7.00
C 277.29 21.89 201.93 61.66 136.00 118.00
C 129.39 124.61 123.09 131.94 116.00 138.00
C 103.22 148.92 92.51 164.20 82.30 177.30 C 72.10 190.41 61.82 206.65 53.92 220.92 C 46.03 235.20 34.85 255.62 30.32 270.32 C 25.79 285.02 6.45 311.81 26.78 321.22 C 47.11 330.63 51.97 297.08 58.02 283.02 C 64.08 268.97 72.27 248.23 81.23 234.23 C 90.19 220.23 99.64 203.59 110.25 190.25 C 120.85 176.91 131.75 164.56 144.25 152.25 C 156.75 139.93 168.91 128.54 182.92 117.92 C 196.93 107.29 210.68 98.45 226.25 89.25 C 241.83 80.06 257.50 72.00 274.78 64.78 C 292.05 57.55 309.05 51.53 327.99 45.99 C 346.93 40.45 368.45 36.98 388.98 33.98 C 409.50 30.97 435.23 29.37 457.00 30.00 C 478.77 30.63 503.45 32.52 523.93 36.07 C 544.41 39.63 562.29 45.09 581.32 50.68 C 600.35 56.27 614.73 64.42 633.00 71.00
C 638.49 72.98 643.37 75.80 648.00 79.00
C 649.07 79.52 649.64 79.61 651.00 80.00
C 658.99 82.30 667.66 89.19 674.00 94.00
C 676.33 95.77 678.58 96.71 681.00 98.00
C 698.00 107.07 713.26 121.40 728.00 134.00
C 738.49 142.97 749.08 153.56 758.00 164.00
C 767.85 175.52 776.66 186.13 785.75 198.25 C 794.84 210.37 801.80 223.02 809.77 236.23 C 817.74 249.44 823.38 263.69 829.98 278.02 C 836.57 292.36 841.15 308.53 846.32 323.68 C 851.49 338.83 852.80 359.93 857.00 375.00 C 861.20 390.07 854.53 416.95 869.00 426.00
C 890.40 435.90 891.16 405.09 887.78 390.22 C 884.40 375.35 882.99 353.40 878.99 338.01 C 874.99 322.62 870.71 305.43 865.33 290.67 C 859.94 275.91 854.72 261.05 847.77 247.23 C 840.82 233.41 834.13 220.52 826.25 207.75 C 818.38 194.98 810.51 183.36 801.30 171.70 C 792.09 160.03 784.03 148.88 773.75 138.25 C 763.47 127.61 753.79 117.93 742.75 108.25 C 731.72 98.56 720.61 90.16 708.75 81.25 C 696.88 72.35 684.26 65.31 671.25 57.75 C 658.23 50.20 645.04 43.56 630.69 37.31 C 616.35 31.05 601.74 25.22 586.22 20.78 C 570.71 16.33 554.53 10.67 538.01 7.99 C 521.49 5.31 502.31 1.00 485.00 1.00
C 480.83 1.00 475.34 1.82 472.00 0.00
L 426.00 0.00
C 422.13 1.33 415.64 1.67 411.00 1.00 Z"/>
</g>
<g fill="None" fill-opacity="0.0" stroke="#859BB9" stroke-opacity="0.86" stroke-width="0.3"><path d="
M 485.00 1.00 
C 485.00 1.00 485.00 0.50 485.00 0.00
L 472.00 0.00
C 475.34 1.82 480.83 1.00 485.00 1.00 Z"/>
</g>
<g fill="None" fill-opacity="0.0" stroke="#6A89B3" stroke-opacity="0.90" stroke-width="0.3"><path d="
M 362.00 7.00 
C 364.63 6.83 367.91 6.84 371.00 6.00
C 367.91 6.50 365.03 6.47 362.00 7.00 Z"/>
</g>
<g fill="None" fill-opacity="0.0" stroke="#788FAF" stroke-opacity="0.84" stroke-width="0.3"><path d="
M 648.00 79.00 
C 643.37 75.80 638.49 72.98 633.00 71.00
C 637.82 73.38 642.90 76.54 648.00 79.00 Z"/>
</g>
<g fill="None" fill-opacity="0.0" stroke="#7A8EAA" stroke-opacity="0.80" stroke-width="0.3"><path d="
M 674.00 94.00 
C 667.66 89.19 658.99 82.30 651.00 80.00
C 658.43 83.30 666.76 89.56 674.00 94.00 Z"/>
</g>
<g fill="None" fill-opacity="0.0" stroke="#8FA0B7" stroke-opacity="0.83" stroke-width="0.3"><path d="
M 733.00 140.00 
C 731.24 138.24 729.71 135.71 728.00 134.00
C 713.26 121.40 698.00 107.07 681.00 98.00
C 698.62 109.96 717.51 124.51 733.00 140.00 Z"/>
</g>
<g fill="None" fill-opacity="0.0" stroke="#58677B" stroke-opacity="0.59" stroke-width="0.3"><path d="
M 116.00 138.00 
C 123.09 131.94 129.39 124.61 136.00 118.00
C 128.91 124.06 122.61 131.39 116.00 138.00 Z"/>
</g>
<g fill="None" fill-opacity="0.0" stroke="#1F56A2" stroke-opacity="0.99" stroke-width="0.3"><path d="
M 611.00 124.00 
C 599.65 132.19 605.50 149.69 597.00 158.00
C 596.75 158.25 596.11 158.65 596.00 159.00
C 598.44 166.09 592.63 175.40 591.22 183.22 C 589.81 191.04 587.08 201.19 585.01 209.01 C 582.94 216.83 581.03 226.09 578.67 233.67 C 576.31 241.25 575.01 252.19 572.02 259.02 C 569.04 265.86 570.80 279.90 565.00 284.00
C 564.70 284.21 564.11 284.65 564.00 285.00
C 565.19 288.45 564.03 297.04 561.00 300.00
C 560.75 300.25 560.11 300.65 560.00 301.00
C 563.27 310.48 554.38 323.46 553.07 334.07 C 551.77 344.69 547.26 357.91 544.68 368.68 C 542.10 379.44 539.61 391.63 536.22 402.22 C 532.84 412.82 532.87 426.75 527.00 436.00
C 526.71 436.46 526.18 437.46 526.00 438.00
C 526.19 451.82 509.13 479.12 525.00 490.00
C 547.10 501.05 549.15 467.29 553.22 452.22 C 557.30 437.16 562.95 413.09 567.07 396.07 C 571.20 379.06 576.61 358.83 581.02 341.02 C 585.44 323.22 590.23 303.03 595.02 285.02 C 599.81 267.02 603.75 246.84 609.07 229.07 C 614.39 211.31 615.99 191.57 625.00 176.00
C 624.89 175.01 623.47 174.22 624.00 173.00
C 629.94 185.77 632.39 202.75 636.33 217.67 C 640.27 232.60 644.29 247.88 647.98 263.02 C 651.67 278.16 655.95 293.03 659.78 308.22 C 663.60 323.41 667.52 339.17 671.78 354.22 C 676.03 369.28 678.52 385.07 682.99 400.01 C 687.46 414.95 690.78 430.02 694.98 445.02 C 699.17 460.03 702.10 475.73 708.00 490.00
C 718.61 495.31 733.96 489.33 746.00 491.00 C 758.04 492.67 772.50 490.37 785.00 491.00 C 797.50 491.63 811.38 491.00 824.00 491.00
C 834.00 491.00 844.00 491.00 854.00 491.00
C 859.85 491.00 866.20 491.72 872.00 491.00
C 890.48 486.42 884.15 462.17 867.00 461.00
C 856.73 461.30 845.05 462.81 834.00 462.00 C 822.95 461.19 809.93 463.03 799.00 462.00 C 788.07 460.97 774.31 463.93 764.00 462.00 C 753.69 460.07 738.13 466.58 730.00 461.00
C 723.26 456.38 725.13 441.28 721.33 433.67 C 717.53 426.06 717.14 413.56 713.98 405.02 C 710.82 396.49 709.74 386.03 706.98 377.02 C 704.21 368.02 701.71 357.96 699.33 348.67 C 696.95 339.38 694.91 329.97 692.32 320.68 C 689.73 311.38 687.49 301.35 684.98 292.02 C 682.47 282.69 680.48 273.49 677.78 264.22 C 675.07 254.95 673.02 244.65 670.78 235.22 C 668.54 225.79 665.46 217.06 663.33 207.67 C 661.19 198.28 658.14 188.27 655.98 179.02 C 653.81 169.78 651.22 159.89 649.00 151.00 C 646.77 142.12 646.47 130.81 638.25 125.75 C 630.02 120.70 619.50 118.79 611.00 124.00 Z"/>
</g>
<g fill="None" fill-opacity="0.0" stroke="#A2B1C6" stroke-opacity="0.87" stroke-width="0.3"><path d="
M 597.00 158.00 
C 605.50 149.69 599.65 132.19 611.00 124.00
C 599.65 130.95 599.93 146.79 597.00 158.00 Z"/>
</g>
<g fill="None" fill-opacity="0.0" stroke="#85A3CB" stroke-opacity="0.98" stroke-width="0.3"><path d="
M 733.00 140.00 
C 738.25 145.25 743.80 150.80 749.00 156.00
C 751.75 158.75 755.29 161.29 758.00 164.00
C 749.08 153.56 738.49 142.97 728.00 134.00
C 729.71 135.71 731.24 138.24 733.00 140.00 Z"/>
</g>
<g fill="None" fill-opacity="0.0" stroke="#787879" stroke-opacity="0.48" stroke-width="0.3"><path d="
M 749.00 156.00 
C 743.80 150.80 738.25 145.25 733.00 140.00
C 738.20 145.20 743.75 150.75 749.00 156.00 Z"/>
</g>
<g fill="None" fill-opacity="0.0" stroke="#BDC5D1" stroke-opacity="0.87" stroke-width="0.3"><path d="
M 869.00 426.00 
C 854.53 416.95 861.20 390.07 857.00 375.00 C 852.80 359.93 851.49 338.83 846.32 323.68 C 841.15 308.53 836.57 292.36 829.98 278.02 C 823.38 263.69 817.74 249.44 809.77 236.23 C 801.80 223.02 794.84 210.37 785.75 198.25 C 776.66 186.13 767.85 175.52 758.00 164.00
C 755.29 161.29 751.75 158.75 749.00 156.00
C 760.21 167.21 769.01 178.84 778.70 191.30 C 788.39 203.77 796.16 216.63 804.70 230.31 C 813.23 243.98 819.18 258.90 826.23 273.77 C 833.28 288.64 838.11 305.58 843.68 321.32 C 849.25 337.07 851.11 359.16 855.02 374.98 C 858.94 390.79 852.73 418.48 869.00 426.00 Z"/>
</g>
<g fill="None" fill-opacity="0.0" stroke="#A1B0C4" stroke-opacity="0.87" stroke-width="0.3"><path d="
M 565.00 284.00 
C 570.80 279.90 569.04 265.86 572.02 259.02 C 575.01 252.19 576.31 241.25 578.67 233.67 C 581.03 226.09 582.94 216.83 585.01 209.01 C 587.08 201.19 589.81 191.04 591.22 183.22 C 592.63 175.40 598.44 166.09 596.00 159.00
C 583.60 200.03 575.82 242.56 565.00 284.00 Z"/>
</g>
<g fill="None" fill-opacity="0.0" stroke="#ADB8C8" stroke-opacity="0.86" stroke-width="0.3"><path d="
M 625.00 176.00 
C 626.31 188.15 631.21 200.44 633.68 212.32 C 636.14 224.20 639.68 235.65 642.67 247.33 C 645.66 259.00 648.44 271.07 651.22 282.78 C 654.01 294.48 657.93 305.65 660.67 317.33 C 663.41 329.01 666.47 340.87 669.67 352.33 C 672.88 363.79 675.41 376.08 678.67 387.33 C 681.94 398.57 684.02 411.63 687.67 422.33 C 691.32 433.03 692.57 447.45 697.00 457.00 C 701.43 466.55 697.98 484.99 708.00 490.00
C 702.10 475.73 699.17 460.03 694.98 445.02 C 690.78 430.02 687.46 414.95 682.99 400.01 C 678.52 385.07 676.03 369.28 671.78 354.22 C 667.52 339.17 663.60 323.41 659.78 308.22 C 655.95 293.03 651.67 278.16 647.98 263.02 C 644.29 247.88 640.27 232.60 636.33 217.67 C 632.39 202.75 629.94 185.77 624.00 173.00
C 623.47 174.22 624.89 175.01 625.00 176.00 Z"/>
</g>
<g fill="None" fill-opacity="0.0" stroke="#A8B7CB" stroke-opacity="0.89" stroke-width="0.3"><path d="
M 561.00 300.00 
C 564.03 297.04 565.19 288.45 564.00 285.00
C 562.53 289.87 562.28 295.11 561.00 300.00 Z"/>
</g>
<g fill="None" fill-opacity="0.0" stroke="#9EADC2" stroke-opacity="0.86" stroke-width="0.3"><path d="
M 527.00 436.00 
C 532.87 426.75 532.84 412.82 536.22 402.22 C 539.61 391.63 542.10 379.44 544.68 368.68 C 547.26 357.91 551.77 344.69 553.07 334.07 C 554.38 323.46 563.27 310.48 560.00 301.00
C 553.33 323.09 550.29 346.31 543.33 368.33 C 536.36 390.35 534.38 414.16 527.00 436.00 Z"/>
</g>
<g fill="None" fill-opacity="0.0" stroke="#2457A1" stroke-opacity="0.98" stroke-width="0.3"><path d="
M 1.00 373.00 
C 1.26 375.84 1.26 379.16 1.00 382.00
C 5.54 394.23 24.65 393.26 29.70 406.30 C 34.75 419.35 49.86 425.05 61.78 426.22 C 73.70 427.40 89.58 421.41 96.08 409.08 C 102.58 396.75 115.28 388.18 122.75 402.25 C 130.22 416.32 139.04 420.22 151.33 425.67 C 163.62 431.12 181.94 421.90 189.08 413.08 C 196.23 404.27 206.34 385.93 216.25 397.75 C 226.15 409.58 229.33 417.34 242.98 424.02 C 256.62 430.71 271.58 424.00 281.77 416.77 C 291.96 409.54 295.57 390.27 309.00 394.00
C 313.04 395.12 317.20 401.66 320.00 406.00
C 326.36 415.86 332.33 420.94 343.78 425.22 C 355.23 429.50 368.78 422.85 366.99 409.01 C 365.20 395.17 350.40 398.24 343.92 389.08 C 337.44 379.93 332.78 372.20 323.07 366.93 C 313.37 361.66 297.49 360.31 287.75 366.75 C 278.00 373.19 273.25 377.59 266.77 388.77 C 260.29 399.95 248.63 393.96 243.30 383.70 C 237.98 373.43 230.48 367.94 220.01 363.99 C 209.54 360.04 194.48 363.96 185.25 370.25 C 176.02 376.54 174.88 386.70 165.75 393.75 C 156.62 400.80 148.28 385.76 142.75 378.25 C 137.22 370.73 125.77 363.53 116.00 363.00
C 113.09 362.84 109.91 362.77 107.00 363.00
C 89.37 364.40 83.14 376.86 72.30 390.30 C 61.46 403.75 48.78 381.87 40.70 372.30 C 32.61 362.73 4.58 355.33 1.00 373.00 Z"/>
</g>
<g fill="None" fill-opacity="0.0" stroke="#1F2223" stroke-opacity="0.16" stroke-width="0.3"><path d="
M 107.00 363.00 
C 109.91 362.77 113.09 362.84 116.00 363.00
C 112.88 362.49 110.21 362.38 107.00 363.00 Z"/>
</g>
<g fill="None" fill-opacity="0.0" stroke="#7A8DA8" stroke-opacity="0.78" stroke-width="0.3"><path d="
M 0.00 382.00 
C 0.00 382.00 0.94 381.84 1.00 382.00
C 1.26 379.16 1.26 375.84 1.00 373.00
C 1.00 373.00 0.50 373.00 0.00 373.00
L 0.00 382.00 Z"/>
</g>
<g fill="None" fill-opacity="0.0" stroke="#687FA0" stroke-opacity="0.78" stroke-width="0.3"><path d="
M 309.00 394.00 
C 313.11 395.90 317.21 402.60 320.00 406.00
C 317.20 401.66 313.04 395.12 309.00 394.00 Z"/>
</g>
<g fill="None" fill-opacity="0.0" stroke="#1F56A2" stroke-opacity="0.99" stroke-width="0.3"><path d="
M 590.00 397.00 
C 583.06 403.47 578.13 419.01 589.00 425.00
C 602.82 431.39 623.51 421.83 638.00 426.00 C 652.49 430.17 671.58 421.68 666.31 405.70 C 661.03 389.71 640.06 396.00 627.00 396.00
C 615.99 397.07 602.85 396.07 592.00 396.00
C 591.19 396.17 590.72 396.63 590.00 397.00 Z"/>
</g>
<g fill="None" fill-opacity="0.0" stroke="#577BAD" stroke-opacity="0.91" stroke-width="0.3"><path d="
M 627.00 396.00 
C 616.15 396.00 602.57 393.75 592.00 396.00
C 602.85 396.07 615.99 397.07 627.00 396.00 Z"/>
</g>
<g fill="None" fill-opacity="0.0" stroke="#8FA1BA" stroke-opacity="0.84" stroke-width="0.3"><path d="
M 589.00 425.00 
C 578.13 419.01 583.06 403.47 590.00 397.00
C 579.90 402.19 576.95 419.43 589.00 425.00 Z"/>
</g>
<g fill="None" fill-opacity="0.0" stroke="#2056A1" stroke-opacity="0.98" stroke-width="0.3"><path d="
M 0.00 442.00 
L 0.00 451.00
C 6.37 462.47 21.27 460.44 27.25 472.75 C 33.23 485.07 42.57 488.60 53.93 494.07 C 65.28 499.55 81.13 492.12 89.75 485.75 C 98.38 479.39 103.82 459.83 114.97 462.03 C 126.13 464.22 128.24 481.08 138.25 486.75 C 148.25 492.42 162.98 500.52 174.92 493.92 C 186.86 487.33 192.81 484.07 200.23 471.23 C 207.65 458.39 220.07 463.14 226.23 475.77 C 232.39 488.40 243.35 490.87 254.93 495.07 C 266.51 499.27 281.14 489.78 288.75 482.75 C 296.36 475.72 302.98 457.37 314.00 462.00
C 319.44 464.29 324.11 473.35 327.00 478.00
C 327.00 478.00 326.80 478.60 327.00 479.00
C 334.34 484.13 341.11 490.60 343.00 499.00
C 344.66 506.37 347.00 514.36 350.00 521.00
C 353.29 528.28 356.46 536.65 358.33 544.67 C 360.20 552.70 365.68 560.61 366.00 569.00
C 366.00 569.00 365.92 569.51 366.00 570.00
C 369.49 574.06 369.37 580.01 370.00 584.00
C 372.18 591.27 375.00 599.35 378.00 606.00
C 383.82 618.88 388.67 634.99 391.00 648.00
C 392.10 651.42 393.57 654.69 395.00 658.00
C 397.84 664.57 401.30 672.93 402.93 680.07 C 404.55 687.22 410.75 696.45 409.00 703.00
C 409.07 703.35 409.70 703.79 410.00 704.00
C 414.27 707.02 414.07 716.90 416.32 721.68 C 418.58 726.46 422.23 735.40 421.00 740.00
C 421.07 740.35 421.75 740.75 422.00 741.00
C 424.95 743.89 427.83 754.68 428.00 759.00
C 428.00 759.00 427.98 759.50 428.00 760.00
C 434.17 764.72 431.56 777.58 439.00 783.00
C 456.99 794.14 462.32 770.09 465.22 757.22 C 468.13 744.36 474.24 728.31 477.68 714.68 C 481.12 701.05 485.99 685.87 490.07 672.07 C 494.15 658.28 498.01 643.15 502.22 629.22 C 506.44 615.30 510.05 600.70 515.01 587.01 C 519.97 573.32 520.69 556.98 527.03 544.03 C 533.36 531.07 529.48 508.90 510.00 516.00
C 499.14 521.08 504.04 535.48 497.00 542.00
C 496.74 542.24 496.11 542.65 496.00 543.00
C 498.74 550.95 490.63 564.76 488.67 573.67 C 486.71 582.58 483.18 596.00 479.00 604.00
C 479.00 604.00 479.01 604.50 479.00 605.00
C 478.86 611.01 475.15 627.95 471.00 632.00
C 470.75 632.25 470.12 632.65 470.00 633.00
C 471.81 639.77 465.70 652.35 463.00 659.00
C 462.14 661.87 461.44 663.97 461.00 667.00
C 459.67 676.12 456.35 685.78 453.00 694.00
C 449.90 700.73 449.32 708.68 446.00 715.00
C 437.80 699.60 434.73 681.29 428.32 664.68 C 421.91 648.07 417.88 629.86 411.78 613.22 C 405.67 596.59 400.75 578.57 394.92 562.08 C 389.10 545.59 384.28 526.94 377.93 511.07 C 371.57 495.21 371.21 473.56 357.08 463.92 C 342.94 454.29 337.80 437.90 320.22 432.78 C 302.64 427.66 285.18 436.70 276.00 452.00
C 273.58 456.03 269.51 462.96 265.00 465.00
C 252.88 470.48 246.77 449.61 238.25 442.75 C 229.73 435.90 213.74 426.64 201.68 432.68 C 189.61 438.71 181.06 441.77 174.30 455.30 C 167.54 468.84 154.23 465.91 148.30 452.70 C 142.38 439.48 130.11 434.91 118.07 431.93 C 106.04 428.94 90.86 436.84 83.75 445.75 C 76.64 454.66 67.88 471.43 57.75 462.25 C 47.63 453.07 45.57 442.61 33.70 436.30 C 21.82 430.00 6.70 427.88 0.00 442.00 Z"/>
</g>
<g fill="None" fill-opacity="0.0" stroke="#202020" stroke-opacity="0.13" stroke-width="0.3"><path d="
M 893.00 460.00 
L 893.00 431.00
C 891.32 439.52 891.35 451.41 893.00 460.00 Z"/>
</g>
<g fill="None" fill-opacity="0.0" stroke="#92A4BC" stroke-opacity="0.85" stroke-width="0.3"><path d="
M 525.00 490.00 
C 509.13 479.12 526.19 451.82 526.00 438.00
C 522.97 446.96 522.54 457.22 518.99 465.99 C 515.45 474.76 515.73 485.36 525.00 490.00 Z"/>
</g>
<g fill="None" fill-opacity="0.0" stroke="#6B83A3" stroke-opacity="0.80" stroke-width="0.3"><path d="
M 265.00 465.00 
C 269.51 462.96 273.58 456.03 276.00 452.00
C 273.56 455.19 268.62 463.05 265.00 465.00 Z"/>
</g>
<g fill="None" fill-opacity="0.0" stroke="#292F37" stroke-opacity="0.25" stroke-width="0.3"><path d="
M 867.00 461.00 
C 857.86 460.38 848.10 461.40 839.00 461.00 C 829.90 460.60 821.01 461.43 812.00 461.00 C 802.99 460.57 792.81 461.73 784.00 461.00 C 775.19 460.27 765.34 462.58 757.00 461.00 C 748.66 459.42 737.44 464.48 730.00 461.00
C 738.13 466.58 753.69 460.07 764.00 462.00 C 774.31 463.93 788.07 460.97 799.00 462.00 C 809.93 463.03 822.95 461.19 834.00 462.00 C 845.05 462.81 856.73 461.30 867.00 461.00 Z"/>
</g>
<g fill="None" fill-opacity="0.0" stroke="#6D85A6" stroke-opacity="0.81" stroke-width="0.3"><path d="
M 327.00 478.00 
C 324.11 473.35 319.44 464.29 314.00 462.00
C 319.65 464.87 321.57 474.46 327.00 478.00 Z"/>
</g>
<g fill="None" fill-opacity="0.0" stroke="#687A94" stroke-opacity="0.71" stroke-width="0.3"><path d="
M 343.00 499.00 
C 341.11 490.60 334.34 484.13 327.00 479.00
C 330.94 487.07 340.19 490.34 343.00 499.00 Z"/>
</g>
<g fill="None" fill-opacity="0.0" stroke="#313F53" stroke-opacity="0.42" stroke-width="0.3"><path d="
M 854.00 492.00 
C 853.96 492.00 854.00 491.00 854.00 491.00
C 844.00 491.00 834.00 491.00 824.00 491.00
C 833.22 491.89 844.01 492.00 854.00 492.00 Z"/>
</g>
<g fill="None" fill-opacity="0.0" stroke="#455D7D" stroke-opacity="0.65" stroke-width="0.3"><path d="
M 854.00 492.00 
C 860.05 492.00 866.64 492.33 872.00 491.00
C 866.20 491.72 859.85 491.00 854.00 491.00
C 854.00 491.00 853.96 492.00 854.00 492.00 Z"/>
</g>
<g fill="None" fill-opacity="0.0" stroke="#2056A1" stroke-opacity="0.98" stroke-width="0.3"><path d="
M 405.00 886.00 
C 408.09 886.45 410.80 886.83 414.00 887.00
C 420.18 887.34 427.65 885.92 433.00 888.00
L 457.00 888.00
C 460.03 886.47 465.23 886.68 469.00 887.00
C 471.75 886.73 475.58 886.00 479.00 886.00
C 498.14 886.00 520.03 881.57 537.99 877.99 C 555.95 874.41 574.02 868.99 590.77 863.77 C 607.52 858.55 622.00 850.95 637.32 844.32 C 652.64 837.69 666.75 829.29 680.77 820.77 C 694.80 812.25 707.21 803.89 719.92 793.92 C 732.62 783.95 744.08 774.11 755.75 762.75 C 767.43 751.39 777.88 740.43 788.23 728.23 C 798.58 716.03 807.01 703.34 816.25 690.25 C 825.48 677.16 833.51 662.18 841.08 648.08 C 848.65 633.98 855.40 616.94 861.23 602.23 C 867.05 587.52 873.68 565.22 877.02 551.02 C 880.36 536.83 891.65 505.13 868.00 506.00
C 850.31 507.93 853.71 533.85 849.02 547.02 C 844.34 560.20 840.83 579.54 835.02 593.02 C 829.22 606.51 823.09 621.22 816.23 634.23 C 809.37 647.24 802.16 660.05 794.08 672.08 C 786.01 684.12 777.94 695.65 768.70 706.70 C 759.45 717.74 749.99 727.44 739.75 737.75 C 729.51 748.06 718.98 757.07 708.00 766.00
C 702.95 774.26 689.68 779.17 682.25 785.25 C 674.83 791.34 663.29 798.79 654.77 802.77 C 646.25 806.75 633.37 818.09 625.00 817.00
C 624.67 817.17 624.25 817.74 624.00 818.00
C 615.38 827.00 600.19 827.39 588.98 832.98 C 577.76 838.56 563.42 841.24 550.93 844.93 C 538.43 848.62 522.39 851.70 509.00 853.00
C 500.00 853.87 490.89 855.29 482.00 856.00
C 479.38 856.51 476.25 857.00 473.00 857.00
C 469.00 857.00 465.00 857.00 461.00 857.00
C 451.89 857.88 441.05 857.97 432.00 857.00
C 430.33 857.00 428.67 857.00 427.00 857.00
C 423.96 857.32 421.06 857.55 418.00 857.00
C 401.45 855.87 382.74 853.00 367.00 850.00 C 351.26 847.00 335.57 843.74 321.02 838.98 C 306.48 834.21 292.45 830.04 279.03 823.97 C 265.60 817.91 252.98 812.48 240.74 805.26 C 228.51 798.03 216.54 791.79 205.25 783.75 C 193.96 775.71 183.18 766.92 172.75 758.25 C 162.32 749.57 152.50 740.52 143.25 730.75 C 134.01 720.98 125.29 711.23 116.75 700.25 C 108.22 689.26 100.03 679.15 92.77 667.23 C 85.51 655.31 78.77 643.60 71.98 631.03 C 65.18 618.45 60.63 603.70 54.33 590.67 C 48.03 577.64 47.16 559.95 40.99 547.01 C 34.83 534.06 43.34 511.59 24.67 506.33 C 6.00 501.07 2.95 525.97 8.67 539.33 C 14.39 552.69 14.78 570.87 20.68 584.32 C 26.58 597.77 29.86 612.83 36.23 625.77 C 42.60 638.71 48.92 651.80 56.08 663.92 C 63.23 676.05 69.83 687.85 78.08 698.92 C 86.34 709.99 93.44 721.20 102.75 731.25 C 112.06 741.29 120.28 751.44 130.25 760.75 C 140.23 770.05 149.69 779.00 160.30 787.70 C 170.92 796.40 182.42 804.25 193.92 812.08 C 205.42 819.91 216.90 826.75 229.32 833.68 C 241.74 840.61 254.58 846.07 267.92 852.08 C 281.27 858.08 295.27 862.71 309.78 867.22 C 324.28 871.74 339.52 875.78 354.98 879.02 C 370.43 882.27 389.04 883.67 405.00 886.00 Z"/>
</g>
<g fill="None" fill-opacity="0.0" stroke="#B3BECC" stroke-opacity="0.87" stroke-width="0.3"><path d="
M 757.00 718.00 
C 755.14 720.18 752.95 722.05 751.00 724.00
C 738.41 738.74 723.69 751.44 709.00 764.00
C 708.49 764.55 708.36 765.41 708.00 766.00
C 718.98 757.07 729.51 748.06 739.75 737.75 C 749.99 727.44 759.45 717.74 768.70 706.70 C 777.94 695.65 786.01 684.12 794.08 672.08 C 802.16 660.05 809.37 647.24 816.23 634.23 C 823.09 621.22 829.22 606.51 835.02 593.02 C 840.83 579.54 844.34 560.20 849.02 547.02 C 853.71 533.85 850.31 507.93 868.00 506.00
C 847.64 506.75 852.03 535.57 846.78 549.78 C 841.52 563.99 837.28 584.40 830.77 598.77 C 824.26 613.14 817.86 628.44 810.31 642.31 C 802.75 656.17 794.37 669.53 785.30 682.30 C 776.23 695.07 767.23 706.03 757.00 718.00 Z"/>
</g>
<g fill="None" fill-opacity="0.0" stroke="#8FA3BF" stroke-opacity="0.88" stroke-width="0.3"><path d="
M 497.00 542.00 
C 504.04 535.48 499.14 521.08 510.00 516.00
C 500.04 519.63 499.42 533.45 497.00 542.00 Z"/>
</g>
<g fill="None" fill-opacity="0.0" stroke="#7287A4" stroke-opacity="0.78" stroke-width="0.3"><path d="
M 366.00 569.00 
C 365.68 560.61 360.20 552.70 358.33 544.67 C 356.46 536.65 353.29 528.28 350.00 521.00
C 352.57 528.72 354.25 537.98 357.68 545.32 C 361.11 552.66 361.03 562.88 366.00 569.00 Z"/>
</g>
<g fill="None" fill-opacity="0.0" stroke="#90A1B9" stroke-opacity="0.84" stroke-width="0.3"><path d="
M 479.00 604.00 
C 483.18 596.00 486.71 582.58 488.67 573.67 C 490.63 564.76 498.74 550.95 496.00 543.00
C 493.03 552.82 489.71 563.43 487.33 573.33 C 484.94 583.22 479.38 593.91 479.00 604.00 Z"/>
</g>
<g fill="None" fill-opacity="0.0" stroke="#7A90AD" stroke-opacity="0.82" stroke-width="0.3"><path d="
M 370.00 584.00 
C 369.37 580.01 369.49 574.06 366.00 570.00
C 366.75 574.60 368.67 579.56 370.00 584.00 Z"/>
</g>
<g fill="None" fill-opacity="0.0" stroke="#8B9EB7" stroke-opacity="0.84" stroke-width="0.3"><path d="
M 471.00 632.00 
C 475.15 627.95 478.86 611.01 479.00 605.00
C 475.20 607.91 477.14 614.82 474.77 618.77 C 472.41 622.72 472.14 627.63 471.00 632.00 Z"/>
</g>
<g fill="None" fill-opacity="0.0" stroke="#768BA7" stroke-opacity="0.79" stroke-width="0.3"><path d="
M 391.00 648.00 
C 388.67 634.99 383.82 618.88 378.00 606.00
C 382.25 620.00 386.55 634.10 391.00 648.00 Z"/>
</g>
<g fill="None" fill-opacity="0.0" stroke="#8C9DB5" stroke-opacity="0.82" stroke-width="0.3"><path d="
M 463.00 659.00 
C 465.70 652.35 471.81 639.77 470.00 633.00
C 467.20 641.53 465.56 650.45 463.00 659.00 Z"/>
</g>
<g fill="None" fill-opacity="0.0" stroke="#798EAB" stroke-opacity="0.81" stroke-width="0.3"><path d="
M 409.00 703.00 
C 410.75 696.45 404.55 687.22 402.93 680.07 C 401.30 672.93 397.84 664.57 395.00 658.00
C 399.70 672.66 406.02 687.92 409.00 703.00 Z"/>
</g>
<g fill="None" fill-opacity="0.0" stroke="#8A9FBC" stroke-opacity="0.87" stroke-width="0.3"><path d="
M 453.00 694.00 
C 456.35 685.78 459.67 676.12 461.00 667.00
C 458.64 675.57 455.65 685.16 453.00 694.00 Z"/>
</g>
<g fill="None" fill-opacity="0.0" stroke="#798FAC" stroke-opacity="0.81" stroke-width="0.3"><path d="
M 421.00 740.00 
C 422.23 735.40 418.58 726.46 416.32 721.68 C 414.07 716.90 414.27 707.02 410.00 704.00
C 413.40 715.98 418.59 727.82 421.00 740.00 Z"/>
</g>
<g fill="None" fill-opacity="0.0" stroke="#474746" stroke-opacity="0.28" stroke-width="0.3"><path d="
M 751.00 724.00 
C 752.95 722.05 755.14 720.18 757.00 718.00
C 755.05 719.95 752.86 721.82 751.00 724.00 Z"/>
</g>
<g fill="None" fill-opacity="0.0" stroke="#8496AF" stroke-opacity="0.80" stroke-width="0.3"><path d="
M 428.00 759.00 
C 427.83 754.68 424.95 743.89 422.00 741.00
C 423.55 746.47 424.46 754.64 428.00 759.00 Z"/>
</g>
<g fill="None" fill-opacity="0.0" stroke="#7E92AE" stroke-opacity="0.82" stroke-width="0.3"><path d="
M 439.00 783.00 
C 431.56 777.58 434.17 764.72 428.00 760.00
C 428.29 767.50 432.22 778.80 439.00 783.00 Z"/>
</g>
<g fill="None" fill-opacity="0.0" stroke="#8394AB" stroke-opacity="0.78" stroke-width="0.3"><path d="
M 625.00 817.00 
C 633.37 818.09 646.25 806.75 654.77 802.77 C 663.29 798.79 674.83 791.34 682.25 785.25 C 689.68 779.17 702.95 774.26 708.00 766.00
C 708.36 765.41 708.49 764.55 709.00 764.00
C 683.41 785.87 654.32 801.81 625.00 817.00 Z"/>
</g>
<g fill="None" fill-opacity="0.0" stroke="#7F90A6" stroke-opacity="0.76" stroke-width="0.3"><path d="
M 509.00 853.00 
C 522.39 851.70 538.43 848.62 550.93 844.93 C 563.42 841.24 577.76 838.56 588.98 832.98 C 600.19 827.39 615.38 827.00 624.00 818.00
C 588.34 835.51 547.61 845.69 509.00 853.00 Z"/>
</g>
<g fill="None" fill-opacity="0.0" stroke="#6E7F96" stroke-opacity="0.71" stroke-width="0.3"><path d="
M 473.00 857.00 
C 476.25 857.00 479.38 856.51 482.00 856.00
C 479.08 856.23 475.31 856.78 473.00 857.00 Z"/>
</g>
<g fill="None" fill-opacity="0.0" stroke="#4B678F" stroke-opacity="0.75" stroke-width="0.3"><path d="
M 427.00 857.00 
C 424.02 857.00 420.97 857.20 418.00 857.00
C 421.06 857.55 423.96 857.32 427.00 857.00 Z"/>
</g>
<g fill="None" fill-opacity="0.0" stroke="#34393F" stroke-opacity="0.28" stroke-width="0.3"><path d="
M 461.00 857.00 
C 451.33 857.00 441.67 857.00 432.00 857.00
C 441.05 857.97 451.89 857.88 461.00 857.00 Z"/>
</g>
<g fill="None" fill-opacity="0.0" stroke="#323539" stroke-opacity="0.24" stroke-width="0.3"><path d="
M 409.00 888.00 
L 414.00 888.00
C 414.00 887.50 414.00 887.00 414.00 887.00
C 410.80 886.83 408.09 886.45 405.00 886.00
C 405.91 886.25 408.15 887.38 409.00 888.00 Z"/>
</g>
<g fill="None" fill-opacity="0.0" stroke="#344B6B" stroke-opacity="0.57" stroke-width="0.3"><path d="
M 469.00 887.00 
C 470.00 887.09 471.73 886.54 472.00 888.00
L 477.00 888.00
C 477.23 887.39 478.54 886.16 479.00 886.00
C 475.58 886.00 471.75 886.73 469.00 887.00 Z"/>
</g>
<g fill="None" fill-opacity="0.0" stroke="#7D91AE" stroke-opacity="0.81" stroke-width="0.3"><path d="
M 414.00 888.00 
L 433.00 888.00
C 427.65 885.92 420.18 887.34 414.00 887.00
C 414.00 887.00 414.00 887.50 414.00 888.00 Z"/>
</g>
<g fill="None" fill-opacity="0.0" stroke="#627997" stroke-opacity="0.74" stroke-width="0.3"><path d="
M 457.00 888.00 
L 472.00 888.00
C 471.73 886.54 470.00 887.09 469.00 887.00
C 465.23 886.68 460.03 886.47 457.00 888.00 Z"/>
</g>
<g fill="#000000" fill-opacity="0.00" stroke="None">
<path d="
M 0.00 373.00 
C 0.50 373.00 1.00 373.00 1.00 373.00
C 4.58 355.33 32.61 362.73 40.70 372.30 C 48.78 381.87 61.46 403.75 72.30 390.30 C 83.14 376.86 89.37 364.40 107.00 363.00
C 110.21 362.38 112.88 362.49 116.00 363.00
C 125.77 363.53 137.22 370.73 142.75 378.25 C 148.28 385.76 156.62 400.80 165.75 393.75 C 174.88 386.70 176.02 376.54 185.25 370.25 C 194.48 363.96 209.54 360.04 220.01 363.99 C 230.48 367.94 237.98 373.43 243.30 383.70 C 248.63 393.96 260.29 399.95 266.77 388.77 C 273.25 377.59 278.00 373.19 287.75 366.75 C 297.49 360.31 313.37 361.66 323.07 366.93 C 332.78 372.20 337.44 379.93 343.92 389.08 C 350.40 398.24 365.20 395.17 366.99 409.01 C 368.78 422.85 355.23 429.50 343.78 425.22 C 332.33 420.94 326.36 415.86 320.00 406.00
C 317.21 402.60 313.11 395.90 309.00 394.00
C 295.57 390.27 291.96 409.54 281.77 416.77 C 271.58 424.00 256.62 430.71 242.98 424.02 C 229.33 417.34 226.15 409.58 216.25 397.75 C 206.34 385.93 196.23 404.27 189.08 413.08 C 181.94 421.90 163.62 431.12 151.33 425.67 C 139.04 420.22 130.22 416.32 122.75 402.25 C 115.28 388.18 102.58 396.75 96.08 409.08 C 89.58 421.41 73.70 427.40 61.78 426.22 C 49.86 425.05 34.75 419.35 29.70 406.30 C 24.65 393.26 5.54 394.23 1.00 382.00
C 0.94 381.84 0.00 382.00 0.00 382.00
L 0.00 442.00
C 6.70 427.88 21.82 430.00 33.70 436.30 C 45.57 442.61 47.63 453.07 57.75 462.25 C 67.88 471.43 76.64 454.66 83.75 445.75 C 90.86 436.84 106.04 428.94 118.07 431.93 C 130.11 434.91 142.38 439.48 148.30 452.70 C 154.23 465.91 167.54 468.84 174.30 455.30 C 181.06 441.77 189.61 438.71 201.68 432.68 C 213.74 426.64 229.73 435.90 238.25 442.75 C 246.77 449.61 252.88 470.48 265.00 465.00
C 268.62 463.05 273.56 455.19 276.00 452.00
C 285.18 436.70 302.64 427.66 320.22 432.78 C 337.80 437.90 342.94 454.29 357.08 463.92 C 371.21 473.56 371.57 495.21 377.93 511.07 C 384.28 526.94 389.10 545.59 394.92 562.08 C 400.75 578.57 405.67 596.59 411.78 613.22 C 417.88 629.86 421.91 648.07 428.32 664.68 C 434.73 681.29 437.80 699.60 446.00 715.00
C 449.32 708.68 449.90 700.73 453.00 694.00
C 455.65 685.16 458.64 675.57 461.00 667.00
C 461.44 663.97 462.14 661.87 463.00 659.00
C 465.56 650.45 467.20 641.53 470.00 633.00
C 470.12 632.65 470.75 632.25 471.00 632.00
C 472.14 627.63 472.41 622.72 474.77 618.77 C 477.14 614.82 475.20 607.91 479.00 605.00
C 479.01 604.50 479.00 604.00 479.00 604.00
C 479.38 593.91 484.94 583.22 487.33 573.33 C 489.71 563.43 493.03 552.82 496.00 543.00
C 496.11 542.65 496.74 542.24 497.00 542.00
C 499.42 533.45 500.04 519.63 510.00 516.00
C 529.48 508.90 533.36 531.07 527.03 544.03 C 520.69 556.98 519.97 573.32 515.01 587.01 C 510.05 600.70 506.44 615.30 502.22 629.22 C 498.01 643.15 494.15 658.28 490.07 672.07 C 485.99 685.87 481.12 701.05 477.68 714.68 C 474.24 728.31 468.13 744.36 465.22 757.22 C 462.32 770.09 456.99 794.14 439.00 783.00
C 432.22 778.80 428.29 767.50 428.00 760.00
C 427.98 759.50 428.00 759.00 428.00 759.00
C 424.46 754.64 423.55 746.47 422.00 741.00
C 421.75 740.75 421.07 740.35 421.00 740.00
C 418.59 727.82 413.40 715.98 410.00 704.00
C 409.70 703.79 409.07 703.35 409.00 703.00
C 406.02 687.92 399.70 672.66 395.00 658.00
C 393.57 654.69 392.10 651.42 391.00 648.00
C 386.55 634.10 382.25 620.00 378.00 606.00
C 375.00 599.35 372.18 591.27 370.00 584.00
C 368.67 579.56 366.75 574.60 366.00 570.00
C 365.92 569.51 366.00 569.00 366.00 569.00
C 361.03 562.88 361.11 552.66 357.68 545.32 C 354.25 537.98 352.57 528.72 350.00 521.00
C 347.00 514.36 344.66 506.37 343.00 499.00
C 340.19 490.34 330.94 487.07 327.00 479.00
C 326.80 478.60 327.00 478.00 327.00 478.00
C 321.57 474.46 319.65 464.87 314.00 462.00
C 302.98 457.37 296.36 475.72 288.75 482.75 C 281.14 489.78 266.51 499.27 254.93 495.07 C 243.35 490.87 232.39 488.40 226.23 475.77 C 220.07 463.14 207.65 458.39 200.23 471.23 C 192.81 484.07 186.86 487.33 174.92 493.92 C 162.98 500.52 148.25 492.42 138.25 486.75 C 128.24 481.08 126.13 464.22 114.97 462.03 C 103.82 459.83 98.38 479.39 89.75 485.75 C 81.13 492.12 65.28 499.55 53.93 494.07 C 42.57 488.60 33.23 485.07 27.25 472.75 C 21.27 460.44 6.37 462.47 0.00 451.00
L 0.00 888.00
L 409.00 888.00
C 408.15 887.38 405.91 886.25 405.00 886.00
C 389.04 883.67 370.43 882.27 354.98 879.02 C 339.52 875.78 324.28 871.74 309.78 867.22 C 295.27 862.71 281.27 858.08 267.92 852.08 C 254.58 846.07 241.74 840.61 229.32 833.68 C 216.90 826.75 205.42 819.91 193.92 812.08 C 182.42 804.25 170.92 796.40 160.30 787.70 C 149.69 779.00 140.23 770.05 130.25 760.75 C 120.28 751.44 112.06 741.29 102.75 731.25 C 93.44 721.20 86.34 709.99 78.08 698.92 C 69.83 687.85 63.23 676.05 56.08 663.92 C 48.92 651.80 42.60 638.71 36.23 625.77 C 29.86 612.83 26.58 597.77 20.68 584.32 C 14.78 570.87 14.39 552.69 8.67 539.33 C 2.95 525.97 6.00 501.07 24.67 506.33 C 43.34 511.59 34.83 534.06 40.99 547.01 C 47.16 559.95 48.03 577.64 54.33 590.67 C 60.63 603.70 65.18 618.45 71.98 631.03 C 78.77 643.60 85.51 655.31 92.77 667.23 C 100.03 679.15 108.22 689.26 116.75 700.25 C 125.29 711.23 134.01 720.98 143.25 730.75 C 152.50 740.52 162.32 749.57 172.75 758.25 C 183.18 766.92 193.96 775.71 205.25 783.75 C 216.54 791.79 228.51 798.03 240.74 805.26 C 252.98 812.48 265.60 817.91 279.03 823.97 C 292.45 830.04 306.48 834.21 321.02 838.98 C 335.57 843.74 351.26 847.00 367.00 850.00 C 382.74 853.00 401.45 855.87 418.00 857.00
C 420.97 857.20 424.02 857.00 427.00 857.00
C 428.67 857.00 430.33 857.00 432.00 857.00
C 441.67 857.00 451.33 857.00 461.00 857.00
C 465.00 857.00 469.00 857.00 473.00 857.00
C 475.31 856.78 479.08 856.23 482.00 856.00
C 490.89 855.29 500.00 853.87 509.00 853.00
C 547.61 845.69 588.34 835.51 624.00 818.00
C 624.25 817.74 624.67 817.17 625.00 817.00
C 654.32 801.81 683.41 785.87 709.00 764.00
C 723.69 751.44 738.41 738.74 751.00 724.00
C 752.86 721.82 755.05 719.95 757.00 718.00
C 767.23 706.03 776.23 695.07 785.30 682.30 C 794.37 669.53 802.75 656.17 810.31 642.31 C 817.86 628.44 824.26 613.14 830.77 598.77 C 837.28 584.40 841.52 563.99 846.78 549.78 C 852.03 535.57 847.64 506.75 868.00 506.00
C 891.65 505.13 880.36 536.83 877.02 551.02 C 873.68 565.22 867.05 587.52 861.23 602.23 C 855.40 616.94 848.65 633.98 841.08 648.08 C 833.51 662.18 825.48 677.16 816.25 690.25 C 807.01 703.34 798.58 716.03 788.23 728.23 C 777.88 740.43 767.43 751.39 755.75 762.75 C 744.08 774.11 732.62 783.95 719.92 793.92 C 707.21 803.89 694.80 812.25 680.77 820.77 C 666.75 829.29 652.64 837.69 637.32 844.32 C 622.00 850.95 607.52 858.55 590.77 863.77 C 574.02 868.99 555.95 874.41 537.99 877.99 C 520.03 881.57 498.14 886.00 479.00 886.00
C 478.54 886.16 477.23 887.39 477.00 888.00
L 893.00 888.00
L 893.00 460.00
C 891.35 451.41 891.32 439.52 893.00 431.00
L 893.00 0.00
L 485.00 0.00
C 485.00 0.50 485.00 1.00 485.00 1.00
C 502.31 1.00 521.49 5.31 538.01 7.99 C 554.53 10.67 570.71 16.33 586.22 20.78 C 601.74 25.22 616.35 31.05 630.69 37.31 C 645.04 43.56 658.23 50.20 671.25 57.75 C 684.26 65.31 696.88 72.35 708.75 81.25 C 720.61 90.16 731.72 98.56 742.75 108.25 C 753.79 117.93 763.47 127.61 773.75 138.25 C 784.03 148.88 792.09 160.03 801.30 171.70 C 810.51 183.36 818.38 194.98 826.25 207.75 C 834.13 220.52 840.82 233.41 847.77 247.23 C 854.72 261.05 859.94 275.91 865.33 290.67 C 870.71 305.43 874.99 322.62 878.99 338.01 C 882.99 353.40 884.40 375.35 887.78 390.22 C 891.16 405.09 890.40 435.90 869.00 426.00
C 852.73 418.48 858.94 390.79 855.02 374.98 C 851.11 359.16 849.25 337.07 843.68 321.32 C 838.11 305.58 833.28 288.64 826.23 273.77 C 819.18 258.90 813.23 243.98 804.70 230.31 C 796.16 216.63 788.39 203.77 778.70 191.30 C 769.01 178.84 760.21 167.21 749.00 156.00
C 743.75 150.75 738.20 145.20 733.00 140.00
C 717.51 124.51 698.62 109.96 681.00 98.00
C 678.58 96.71 676.33 95.77 674.00 94.00
C 666.76 89.56 658.43 83.30 651.00 80.00
C 649.64 79.61 649.07 79.52 648.00 79.00
C 642.90 76.54 637.82 73.38 633.00 71.00
C 614.73 64.42 600.35 56.27 581.32 50.68 C 562.29 45.09 544.41 39.63 523.93 36.07 C 503.45 32.52 478.77 30.63 457.00 30.00 C 435.23 29.37 409.50 30.97 388.98 33.98 C 368.45 36.98 346.93 40.45 327.99 45.99 C 309.05 51.53 292.05 57.55 274.78 64.78 C 257.50 72.00 241.83 80.06 226.25 89.25 C 210.68 98.45 196.93 107.29 182.92 117.92 C 168.91 128.54 156.75 139.93 144.25 152.25 C 131.75 164.56 120.85 176.91 110.25 190.25 C 99.64 203.59 90.19 220.23 81.23 234.23 C 72.27 248.23 64.08 268.97 58.02 283.02 C 51.97 297.08 47.11 330.63 26.78 321.22 C 6.45 311.81 25.79 285.02 30.32 270.32 C 34.85 255.62 46.03 235.20 53.92 220.92 C 61.82 206.65 72.10 190.41 82.30 177.30 C 92.51 164.20 103.22 148.92 116.00 138.00
C 122.61 131.39 128.91 124.06 136.00 118.00
C 201.93 61.66 277.29 21.89 362.00 7.00
C 365.03 6.47 367.91 6.50 371.00 6.00
C 376.97 4.38 384.39 3.36 391.00 3.00
C 395.44 2.28 401.78 1.54 406.00 0.00
L 0.00 0.00
L 0.00 373.00
M 730.00 461.00 
C 737.44 464.48 748.66 459.42 757.00 461.00 C 765.34 462.58 775.19 460.27 784.00 461.00 C 792.81 461.73 802.99 460.57 812.00 461.00 C 821.01 461.43 829.90 460.60 839.00 461.00 C 848.10 461.40 857.86 460.38 867.00 461.00
C 884.15 462.17 890.48 486.42 872.00 491.00
C 866.64 492.33 860.05 492.00 854.00 492.00
C 844.01 492.00 833.22 491.89 824.00 491.00
C 811.38 491.00 797.50 491.63 785.00 491.00 C 772.50 490.37 758.04 492.67 746.00 491.00 C 733.96 489.33 718.61 495.31 708.00 490.00
C 697.98 484.99 701.43 466.55 697.00 457.00 C 692.57 447.45 691.32 433.03 687.67 422.33 C 684.02 411.63 681.94 398.57 678.67 387.33 C 675.41 376.08 672.88 363.79 669.67 352.33 C 666.47 340.87 663.41 329.01 660.67 317.33 C 657.93 305.65 654.01 294.48 651.22 282.78 C 648.44 271.07 645.66 259.00 642.67 247.33 C 639.68 235.65 636.14 224.20 633.68 212.32 C 631.21 200.44 626.31 188.15 625.00 176.00
C 615.99 191.57 614.39 211.31 609.07 229.07 C 603.75 246.84 599.81 267.02 595.02 285.02 C 590.23 303.03 585.44 323.22 581.02 341.02 C 576.61 358.83 571.20 379.06 567.07 396.07 C 562.95 413.09 557.30 437.16 553.22 452.22 C 549.15 467.29 547.10 501.05 525.00 490.00
C 515.73 485.36 515.45 474.76 518.99 465.99 C 522.54 457.22 522.97 446.96 526.00 438.00
C 526.18 437.46 526.71 436.46 527.00 436.00
C 534.38 414.16 536.36 390.35 543.33 368.33 C 550.29 346.31 553.33 323.09 560.00 301.00
C 560.11 300.65 560.75 300.25 561.00 300.00
C 562.28 295.11 562.53 289.87 564.00 285.00
C 564.11 284.65 564.70 284.21 565.00 284.00
C 575.82 242.56 583.60 200.03 596.00 159.00
C 596.11 158.65 596.75 158.25 597.00 158.00
C 599.93 146.79 599.65 130.95 611.00 124.00
C 619.50 118.79 630.02 120.70 638.25 125.75 C 646.47 130.81 646.77 142.12 649.00 151.00 C 651.22 159.89 653.81 169.78 655.98 179.02 C 658.14 188.27 661.19 198.28 663.33 207.67 C 665.46 217.06 668.54 225.79 670.78 235.22 C 673.02 244.65 675.07 254.95 677.78 264.22 C 680.48 273.49 682.47 282.69 684.98 292.02 C 687.49 301.35 689.73 311.38 692.32 320.68 C 694.91 329.97 696.95 339.38 699.33 348.67 C 701.71 357.96 704.21 368.02 706.98 377.02 C 709.74 386.03 710.82 396.49 713.98 405.02 C 717.14 413.56 717.53 426.06 721.33 433.67 C 725.13 441.28 723.26 456.38 730.00 461.00
M 589.00 425.00 
C 576.95 419.43 579.90 402.19 590.00 397.00
C 590.72 396.63 591.19 396.17 592.00 396.00
C 602.57 393.75 616.15 396.00 627.00 396.00
C 640.06 396.00 661.03 389.71 666.31 405.70 C 671.58 421.68 652.49 430.17 638.00 426.00 C 623.51 421.83 602.82 431.39 589.00 425.00 Z"/>
</g>
<g fill="#6C7C95" fill-opacity="0.70" stroke="None">
<path d="
M 391.00 3.00 
C 397.89 2.63 404.88 1.59 411.00 1.00
C 410.65 0.95 410.17 0.34 410.00 0.00
L 406.00 0.00
C 401.78 1.54 395.44 2.28 391.00 3.00 Z"/>
</g>
<g fill="#99ADC9" fill-opacity="0.92" stroke="None">
<path d="
M 411.00 1.00 
C 415.64 1.67 422.13 1.33 426.00 0.00
L 410.00 0.00
C 410.17 0.34 410.65 0.95 411.00 1.00 Z"/>
</g>
<g fill="#2057A2" fill-opacity="0.99" stroke="None">
<path d="
M 411.00 1.00 
C 404.88 1.59 397.89 2.63 391.00 3.00
C 384.39 3.36 376.97 4.38 371.00 6.00
C 367.91 6.84 364.63 6.83 362.00 7.00
C 277.29 21.89 201.93 61.66 136.00 118.00
C 129.39 124.61 123.09 131.94 116.00 138.00
C 103.22 148.92 92.51 164.20 82.30 177.30 C 72.10 190.41 61.82 206.65 53.92 220.92 C 46.03 235.20 34.85 255.62 30.32 270.32 C 25.79 285.02 6.45 311.81 26.78 321.22 C 47.11 330.63 51.97 297.08 58.02 283.02 C 64.08 268.97 72.27 248.23 81.23 234.23 C 90.19 220.23 99.64 203.59 110.25 190.25 C 120.85 176.91 131.75 164.56 144.25 152.25 C 156.75 139.93 168.91 128.54 182.92 117.92 C 196.93 107.29 210.68 98.45 226.25 89.25 C 241.83 80.06 257.50 72.00 274.78 64.78 C 292.05 57.55 309.05 51.53 327.99 45.99 C 346.93 40.45 368.45 36.98 388.98 33.98 C 409.50 30.97 435.23 29.37 457.00 30.00 C 478.77 30.63 503.45 32.52 523.93 36.07 C 544.41 39.63 562.29 45.09 581.32 50.68 C 600.35 56.27 614.73 64.42 633.00 71.00
C 638.49 72.98 643.37 75.80 648.00 79.00
C 649.07 79.52 649.64 79.61 651.00 80.00
C 658.99 82.30 667.66 89.19 674.00 94.00
C 676.33 95.77 678.58 96.71 681.00 98.00
C 698.00 107.07 713.26 121.40 728.00 134.00
C 738.49 142.97 749.08 153.56 758.00 164.00
C 767.85 175.52 776.66 186.13 785.75 198.25 C 794.84 210.37 801.80 223.02 809.77 236.23 C 817.74 249.44 823.38 263.69 829.98 278.02 C 836.57 292.36 841.15 308.53 846.32 323.68 C 851.49 338.83 852.80 359.93 857.00 375.00 C 861.20 390.07 854.53 416.95 869.00 426.00
C 890.40 435.90 891.16 405.09 887.78 390.22 C 884.40 375.35 882.99 353.40 878.99 338.01 C 874.99 322.62 870.71 305.43 865.33 290.67 C 859.94 275.91 854.72 261.05 847.77 247.23 C 840.82 233.41 834.13 220.52 826.25 207.75 C 818.38 194.98 810.51 183.36 801.30 171.70 C 792.09 160.03 784.03 148.88 773.75 138.25 C 763.47 127.61 753.79 117.93 742.75 108.25 C 731.72 98.56 720.61 90.16 708.75 81.25 C 696.88 72.35 684.26 65.31 671.25 57.75 C 658.23 50.20 645.04 43.56 630.69 37.31 C 616.35 31.05 601.74 25.22 586.22 20.78 C 570.71 16.33 554.53 10.67 538.01 7.99 C 521.49 5.31 502.31 1.00 485.00 1.00
C 480.83 1.00 475.34 1.82 472.00 0.00
L 426.00 0.00
C 422.13 1.33 415.64 1.67 411.00 1.00 Z"/>
</g>
<g fill="#859BB9" fill-opacity="0.86" stroke="None">
<path d="
M 485.00 1.00 
C 485.00 1.00 485.00 0.50 485.00 0.00
L 472.00 0.00
C 475.34 1.82 480.83 1.00 485.00 1.00 Z"/>
</g>
<g fill="#6A89B3" fill-opacity="0.90" stroke="None">
<path d="
M 362.00 7.00 
C 364.63 6.83 367.91 6.84 371.00 6.00
C 367.91 6.50 365.03 6.47 362.00 7.00 Z"/>
</g>
<g fill="#788FAF" fill-opacity="0.84" stroke="None">
<path d="
M 648.00 79.00 
C 643.37 75.80 638.49 72.98 633.00 71.00
C 637.82 73.38 642.90 76.54 648.00 79.00 Z"/>
</g>
<g fill="#7A8EAA" fill-opacity="0.80" stroke="None">
<path d="
M 674.00 94.00 
C 667.66 89.19 658.99 82.30 651.00 80.00
C 658.43 83.30 666.76 89.56 674.00 94.00 Z"/>
</g>
<g fill="#8FA0B7" fill-opacity="0.83" stroke="None">
<path d="
M 733.00 140.00 
C 731.24 138.24 729.71 135.71 728.00 134.00
C 713.26 121.40 698.00 107.07 681.00 98.00
C 698.62 109.96 717.51 124.51 733.00 140.00 Z"/>
</g>
<g fill="#58677B" fill-opacity="0.59" stroke="None">
<path d="
M 116.00 138.00 
C 123.09 131.94 129.39 124.61 136.00 118.00
C 128.91 124.06 122.61 131.39 116.00 138.00 Z"/>
</g>
<g fill="#1F56A2" fill-opacity="0.99" stroke="None">
<path d="
M 611.00 124.00 
C 599.65 132.19 605.50 149.69 597.00 158.00
C 596.75 158.25 596.11 158.65 596.00 159.00
C 598.44 166.09 592.63 175.40 591.22 183.22 C 589.81 191.04 587.08 201.19 585.01 209.01 C 582.94 216.83 581.03 226.09 578.67 233.67 C 576.31 241.25 575.01 252.19 572.02 259.02 C 569.04 265.86 570.80 279.90 565.00 284.00
C 564.70 284.21 564.11 284.65 564.00 285.00
C 565.19 288.45 564.03 297.04 561.00 300.00
C 560.75 300.25 560.11 300.65 560.00 301.00
C 563.27 310.48 554.38 323.46 553.07 334.07 C 551.77 344.69 547.26 357.91 544.68 368.68 C 542.10 379.44 539.61 391.63 536.22 402.22 C 532.84 412.82 532.87 426.75 527.00 436.00
C 526.71 436.46 526.18 437.46 526.00 438.00
C 526.19 451.82 509.13 479.12 525.00 490.00
C 547.10 501.05 549.15 467.29 553.22 452.22 C 557.30 437.16 562.95 413.09 567.07 396.07 C 571.20 379.06 576.61 358.83 581.02 341.02 C 585.44 323.22 590.23 303.03 595.02 285.02 C 599.81 267.02 603.75 246.84 609.07 229.07 C 614.39 211.31 615.99 191.57 625.00 176.00
C 624.89 175.01 623.47 174.22 624.00 173.00
C 629.94 185.77 632.39 202.75 636.33 217.67 C 640.27 232.60 644.29 247.88 647.98 263.02 C 651.67 278.16 655.95 293.03 659.78 308.22 C 663.60 323.41 667.52 339.17 671.78 354.22 C 676.03 369.28 678.52 385.07 682.99 400.01 C 687.46 414.95 690.78 430.02 694.98 445.02 C 699.17 460.03 702.10 475.73 708.00 490.00
C 718.61 495.31 733.96 489.33 746.00 491.00 C 758.04 492.67 772.50 490.37 785.00 491.00 C 797.50 491.63 811.38 491.00 824.00 491.00
C 834.00 491.00 844.00 491.00 854.00 491.00
C 859.85 491.00 866.20 491.72 872.00 491.00
C 890.48 486.42 884.15 462.17 867.00 461.00
C 856.73 461.30 845.05 462.81 834.00 462.00 C 822.95 461.19 809.93 463.03 799.00 462.00 C 788.07 460.97 774.31 463.93 764.00 462.00 C 753.69 460.07 738.13 466.58 730.00 461.00
C 723.26 456.38 725.13 441.28 721.33 433.67 C 717.53 426.06 717.14 413.56 713.98 405.02 C 710.82 396.49 709.74 386.03 706.98 377.02 C 704.21 368.02 701.71 357.96 699.33 348.67 C 696.95 339.38 694.91 329.97 692.32 320.68 C 689.73 311.38 687.49 301.35 684.98 292.02 C 682.47 282.69 680.48 273.49 677.78 264.22 C 675.07 254.95 673.02 244.65 670.78 235.22 C 668.54 225.79 665.46 217.06 663.33 207.67 C 661.19 198.28 658.14 188.27 655.98 179.02 C 653.81 169.78 651.22 159.89 649.00 151.00 C 646.77 142.12 646.47 130.81 638.25 125.75 C 630.02 120.70 619.50 118.79 611.00 124.00 Z"/>
</g>
<g fill="#A2B1C6" fill-opacity="0.87" stroke="None">
<path d="
M 597.00 158.00 
C 605.50 149.69 599.65 132.19 611.00 124.00
C 599.65 130.95 599.93 146.79 597.00 158.00 Z"/>
</g>
<g fill="#85A3CB" fill-opacity="0.98" stroke="None">
<path d="
M 733.00 140.00 
C 738.25 145.25 743.80 150.80 749.00 156.00
C 751.75 158.75 755.29 161.29 758.00 164.00
C 749.08 153.56 738.49 142.97 728.00 134.00
C 729.71 135.71 731.24 138.24 733.00 140.00 Z"/>
</g>
<g fill="#787879" fill-opacity="0.48" stroke="None">
<path d="
M 749.00 156.00 
C 743.80 150.80 738.25 145.25 733.00 140.00
C 738.20 145.20 743.75 150.75 749.00 156.00 Z"/>
</g>
<g fill="#BDC5D1" fill-opacity="0.87" stroke="None">
<path d="
M 869.00 426.00 
C 854.53 416.95 861.20 390.07 857.00 375.00 C 852.80 359.93 851.49 338.83 846.32 323.68 C 841.15 308.53 836.57 292.36 829.98 278.02 C 823.38 263.69 817.74 249.44 809.77 236.23 C 801.80 223.02 794.84 210.37 785.75 198.25 C 776.66 186.13 767.85 175.52 758.00 164.00
C 755.29 161.29 751.75 158.75 749.00 156.00
C 760.21 167.21 769.01 178.84 778.70 191.30 C 788.39 203.77 796.16 216.63 804.70 230.31 C 813.23 243.98 819.18 258.90 826.23 273.77 C 833.28 288.64 838.11 305.58 843.68 321.32 C 849.25 337.07 851.11 359.16 855.02 374.98 C 858.94 390.79 852.73 418.48 869.00 426.00 Z"/>
</g>
<g fill="#A1B0C4" fill-opacity="0.87" stroke="None">
<path d="
M 565.00 284.00 
C 570.80 279.90 569.04 265.86 572.02 259.02 C 575.01 252.19 576.31 241.25 578.67 233.67 C 581.03 226.09 582.94 216.83 585.01 209.01 C 587.08 201.19 589.81 191.04 591.22 183.22 C 592.63 175.40 598.44 166.09 596.00 159.00
C 583.60 200.03 575.82 242.56 565.00 284.00 Z"/>
</g>
<g fill="#ADB8C8" fill-opacity="0.86" stroke="None">
<path d="
M 625.00 176.00 
C 626.31 188.15 631.21 200.44 633.68 212.32 C 636.14 224.20 639.68 235.65 642.67 247.33 C 645.66 259.00 648.44 271.07 651.22 282.78 C 654.01 294.48 657.93 305.65 660.67 317.33 C 663.41 329.01 666.47 340.87 669.67 352.33 C 672.88 363.79 675.41 376.08 678.67 387.33 C 681.94 398.57 684.02 411.63 687.67 422.33 C 691.32 433.03 692.57 447.45 697.00 457.00 C 701.43 466.55 697.98 484.99 708.00 490.00
C 702.10 475.73 699.17 460.03 694.98 445.02 C 690.78 430.02 687.46 414.95 682.99 400.01 C 678.52 385.07 676.03 369.28 671.78 354.22 C 667.52 339.17 663.60 323.41 659.78 308.22 C 655.95 293.03 651.67 278.16 647.98 263.02 C 644.29 247.88 640.27 232.60 636.33 217.67 C 632.39 202.75 629.94 185.77 624.00 173.00
C 623.47 174.22 624.89 175.01 625.00 176.00 Z"/>
</g>
<g fill="#A8B7CB" fill-opacity="0.89" stroke="None">
<path d="
M 561.00 300.00 
C 564.03 297.04 565.19 288.45 564.00 285.00
C 562.53 289.87 562.28 295.11 561.00 300.00 Z"/>
</g>
<g fill="#9EADC2" fill-opacity="0.86" stroke="None">
<path d="
M 527.00 436.00 
C 532.87 426.75 532.84 412.82 536.22 402.22 C 539.61 391.63 542.10 379.44 544.68 368.68 C 547.26 357.91 551.77 344.69 553.07 334.07 C 554.38 323.46 563.27 310.48 560.00 301.00
C 553.33 323.09 550.29 346.31 543.33 368.33 C 536.36 390.35 534.38 414.16 527.00 436.00 Z"/>
</g>
<g fill="#2457A1" fill-opacity="0.98" stroke="None">
<path d="
M 1.00 373.00 
C 1.26 375.84 1.26 379.16 1.00 382.00
C 5.54 394.23 24.65 393.26 29.70 406.30 C 34.75 419.35 49.86 425.05 61.78 426.22 C 73.70 427.40 89.58 421.41 96.08 409.08 C 102.58 396.75 115.28 388.18 122.75 402.25 C 130.22 416.32 139.04 420.22 151.33 425.67 C 163.62 431.12 181.94 421.90 189.08 413.08 C 196.23 404.27 206.34 385.93 216.25 397.75 C 226.15 409.58 229.33 417.34 242.98 424.02 C 256.62 430.71 271.58 424.00 281.77 416.77 C 291.96 409.54 295.57 390.27 309.00 394.00
C 313.04 395.12 317.20 401.66 320.00 406.00
C 326.36 415.86 332.33 420.94 343.78 425.22 C 355.23 429.50 368.78 422.85 366.99 409.01 C 365.20 395.17 350.40 398.24 343.92 389.08 C 337.44 379.93 332.78 372.20 323.07 366.93 C 313.37 361.66 297.49 360.31 287.75 366.75 C 278.00 373.19 273.25 377.59 266.77 388.77 C 260.29 399.95 248.63 393.96 243.30 383.70 C 237.98 373.43 230.48 367.94 220.01 363.99 C 209.54 360.04 194.48 363.96 185.25 370.25 C 176.02 376.54 174.88 386.70 165.75 393.75 C 156.62 400.80 148.28 385.76 142.75 378.25 C 137.22 370.73 125.77 363.53 116.00 363.00
C 113.09 362.84 109.91 362.77 107.00 363.00
C 89.37 364.40 83.14 376.86 72.30 390.30 C 61.46 403.75 48.78 381.87 40.70 372.30 C 32.61 362.73 4.58 355.33 1.00 373.00 Z"/>
</g>
<g fill="#1F2223" fill-opacity="0.16" stroke="None">
<path d="
M 107.00 363.00 
C 109.91 362.77 113.09 362.84 116.00 363.00
C 112.88 362.49 110.21 362.38 107.00 363.00 Z"/>
</g>
<g fill="#7A8DA8" fill-opacity="0.78" stroke="None">
<path d="
M 0.00 382.00 
C 0.00 382.00 0.94 381.84 1.00 382.00
C 1.26 379.16 1.26 375.84 1.00 373.00
C 1.00 373.00 0.50 373.00 0.00 373.00
L 0.00 382.00 Z"/>
</g>
<g fill="#687FA0" fill-opacity="0.78" stroke="None">
<path d="
M 309.00 394.00 
C 313.11 395.90 317.21 402.60 320.00 406.00
C 317.20 401.66 313.04 395.12 309.00 394.00 Z"/>
</g>
<g fill="#1F56A2" fill-opacity="0.99" stroke="None">
<path d="
M 590.00 397.00 
C 583.06 403.47 578.13 419.01 589.00 425.00
C 602.82 431.39 623.51 421.83 638.00 426.00 C 652.49 430.17 671.58 421.68 666.31 405.70 C 661.03 389.71 640.06 396.00 627.00 396.00
C 615.99 397.07 602.85 396.07 592.00 396.00
C 591.19 396.17 590.72 396.63 590.00 397.00 Z"/>
</g>
<g fill="#577BAD" fill-opacity="0.91" stroke="None">
<path d="
M 627.00 396.00 
C 616.15 396.00 602.57 393.75 592.00 396.00
C 602.85 396.07 615.99 397.07 627.00 396.00 Z"/>
</g>
<g fill="#8FA1BA" fill-opacity="0.84" stroke="None">
<path d="
M 589.00 425.00 
C 578.13 419.01 583.06 403.47 590.00 397.00
C 579.90 402.19 576.95 419.43 589.00 425.00 Z"/>
</g>
<g fill="#2056A1" fill-opacity="0.98" stroke="None">
<path d="
M 0.00 442.00 
L 0.00 451.00
C 6.37 462.47 21.27 460.44 27.25 472.75 C 33.23 485.07 42.57 488.60 53.93 494.07 C 65.28 499.55 81.13 492.12 89.75 485.75 C 98.38 479.39 103.82 459.83 114.97 462.03 C 126.13 464.22 128.24 481.08 138.25 486.75 C 148.25 492.42 162.98 500.52 174.92 493.92 C 186.86 487.33 192.81 484.07 200.23 471.23 C 207.65 458.39 220.07 463.14 226.23 475.77 C 232.39 488.40 243.35 490.87 254.93 495.07 C 266.51 499.27 281.14 489.78 288.75 482.75 C 296.36 475.72 302.98 457.37 314.00 462.00
C 319.44 464.29 324.11 473.35 327.00 478.00
C 327.00 478.00 326.80 478.60 327.00 479.00
C 334.34 484.13 341.11 490.60 343.00 499.00
C 344.66 506.37 347.00 514.36 350.00 521.00
C 353.29 528.28 356.46 536.65 358.33 544.67 C 360.20 552.70 365.68 560.61 366.00 569.00
C 366.00 569.00 365.92 569.51 366.00 570.00
C 369.49 574.06 369.37 580.01 370.00 584.00
C 372.18 591.27 375.00 599.35 378.00 606.00
C 383.82 618.88 388.67 634.99 391.00 648.00
C 392.10 651.42 393.57 654.69 395.00 658.00
C 397.84 664.57 401.30 672.93 402.93 680.07 C 404.55 687.22 410.75 696.45 409.00 703.00
C 409.07 703.35 409.70 703.79 410.00 704.00
C 414.27 707.02 414.07 716.90 416.32 721.68 C 418.58 726.46 422.23 735.40 421.00 740.00
C 421.07 740.35 421.75 740.75 422.00 741.00
C 424.95 743.89 427.83 754.68 428.00 759.00
C 428.00 759.00 427.98 759.50 428.00 760.00
C 434.17 764.72 431.56 777.58 439.00 783.00
C 456.99 794.14 462.32 770.09 465.22 757.22 C 468.13 744.36 474.24 728.31 477.68 714.68 C 481.12 701.05 485.99 685.87 490.07 672.07 C 494.15 658.28 498.01 643.15 502.22 629.22 C 506.44 615.30 510.05 600.70 515.01 587.01 C 519.97 573.32 520.69 556.98 527.03 544.03 C 533.36 531.07 529.48 508.90 510.00 516.00
C 499.14 521.08 504.04 535.48 497.00 542.00
C 496.74 542.24 496.11 542.65 496.00 543.00
C 498.74 550.95 490.63 564.76 488.67 573.67 C 486.71 582.58 483.18 596.00 479.00 604.00
C 479.00 604.00 479.01 604.50 479.00 605.00
C 478.86 611.01 475.15 627.95 471.00 632.00
C 470.75 632.25 470.12 632.65 470.00 633.00
C 471.81 639.77 465.70 652.35 463.00 659.00
C 462.14 661.87 461.44 663.97 461.00 667.00
C 459.67 676.12 456.35 685.78 453.00 694.00
C 449.90 700.73 449.32 708.68 446.00 715.00
C 437.80 699.60 434.73 681.29 428.32 664.68 C 421.91 648.07 417.88 629.86 411.78 613.22 C 405.67 596.59 400.75 578.57 394.92 562.08 C 389.10 545.59 384.28 526.94 377.93 511.07 C 371.57 495.21 371.21 473.56 357.08 463.92 C 342.94 454.29 337.80 437.90 320.22 432.78 C 302.64 427.66 285.18 436.70 276.00 452.00
C 273.58 456.03 269.51 462.96 265.00 465.00
C 252.88 470.48 246.77 449.61 238.25 442.75 C 229.73 435.90 213.74 426.64 201.68 432.68 C 189.61 438.71 181.06 441.77 174.30 455.30 C 167.54 468.84 154.23 465.91 148.30 452.70 C 142.38 439.48 130.11 434.91 118.07 431.93 C 106.04 428.94 90.86 436.84 83.75 445.75 C 76.64 454.66 67.88 471.43 57.75 462.25 C 47.63 453.07 45.57 442.61 33.70 436.30 C 21.82 430.00 6.70 427.88 0.00 442.00 Z"/>
</g>
<g fill="#202020" fill-opacity="0.13" stroke="None">
<path d="
M 893.00 460.00 
L 893.00 431.00
C 891.32 439.52 891.35 451.41 893.00 460.00 Z"/>
</g>
<g fill="#92A4BC" fill-opacity="0.85" stroke="None">
<path d="
M 525.00 490.00 
C 509.13 479.12 526.19 451.82 526.00 438.00
C 522.97 446.96 522.54 457.22 518.99 465.99 C 515.45 474.76 515.73 485.36 525.00 490.00 Z"/>
</g>
<g fill="#6B83A3" fill-opacity="0.80" stroke="None">
<path d="
M 265.00 465.00 
C 269.51 462.96 273.58 456.03 276.00 452.00
C 273.56 455.19 268.62 463.05 265.00 465.00 Z"/>
</g>
<g fill="#292F37" fill-opacity="0.25" stroke="None">
<path d="
M 867.00 461.00 
C 857.86 460.38 848.10 461.40 839.00 461.00 C 829.90 460.60 821.01 461.43 812.00 461.00 C 802.99 460.57 792.81 461.73 784.00 461.00 C 775.19 460.27 765.34 462.58 757.00 461.00 C 748.66 459.42 737.44 464.48 730.00 461.00
C 738.13 466.58 753.69 460.07 764.00 462.00 C 774.31 463.93 788.07 460.97 799.00 462.00 C 809.93 463.03 822.95 461.19 834.00 462.00 C 845.05 462.81 856.73 461.30 867.00 461.00 Z"/>
</g>
<g fill="#6D85A6" fill-opacity="0.81" stroke="None">
<path d="
M 327.00 478.00 
C 324.11 473.35 319.44 464.29 314.00 462.00
C 319.65 464.87 321.57 474.46 327.00 478.00 Z"/>
</g>
<g fill="#687A94" fill-opacity="0.71" stroke="None">
<path d="
M 343.00 499.00 
C 341.11 490.60 334.34 484.13 327.00 479.00
C 330.94 487.07 340.19 490.34 343.00 499.00 Z"/>
</g>
<g fill="#313F53" fill-opacity="0.42" stroke="None">
<path d="
M 854.00 492.00 
C 853.96 492.00 854.00 491.00 854.00 491.00
C 844.00 491.00 834.00 491.00 824.00 491.00
C 833.22 491.89 844.01 492.00 854.00 492.00 Z"/>
</g>
<g fill="#455D7D" fill-opacity="0.65" stroke="None">
<path d="
M 854.00 492.00 
C 860.05 492.00 866.64 492.33 872.00 491.00
C 866.20 491.72 859.85 491.00 854.00 491.00
C 854.00 491.00 853.96 492.00 854.00 492.00 Z"/>
</g>
<g fill="#2056A1" fill-opacity="0.98" stroke="None">
<path d="
M 405.00 886.00 
C 408.09 886.45 410.80 886.83 414.00 887.00
C 420.18 887.34 427.65 885.92 433.00 888.00
L 457.00 888.00
C 460.03 886.47 465.23 886.68 469.00 887.00
C 471.75 886.73 475.58 886.00 479.00 886.00
C 498.14 886.00 520.03 881.57 537.99 877.99 C 555.95 874.41 574.02 868.99 590.77 863.77 C 607.52 858.55 622.00 850.95 637.32 844.32 C 652.64 837.69 666.75 829.29 680.77 820.77 C 694.80 812.25 707.21 803.89 719.92 793.92 C 732.62 783.95 744.08 774.11 755.75 762.75 C 767.43 751.39 777.88 740.43 788.23 728.23 C 798.58 716.03 807.01 703.34 816.25 690.25 C 825.48 677.16 833.51 662.18 841.08 648.08 C 848.65 633.98 855.40 616.94 861.23 602.23 C 867.05 587.52 873.68 565.22 877.02 551.02 C 880.36 536.83 891.65 505.13 868.00 506.00
C 850.31 507.93 853.71 533.85 849.02 547.02 C 844.34 560.20 840.83 579.54 835.02 593.02 C 829.22 606.51 823.09 621.22 816.23 634.23 C 809.37 647.24 802.16 660.05 794.08 672.08 C 786.01 684.12 777.94 695.65 768.70 706.70 C 759.45 717.74 749.99 727.44 739.75 737.75 C 729.51 748.06 718.98 757.07 708.00 766.00
C 702.95 774.26 689.68 779.17 682.25 785.25 C 674.83 791.34 663.29 798.79 654.77 802.77 C 646.25 806.75 633.37 818.09 625.00 817.00
C 624.67 817.17 624.25 817.74 624.00 818.00
C 615.38 827.00 600.19 827.39 588.98 832.98 C 577.76 838.56 563.42 841.24 550.93 844.93 C 538.43 848.62 522.39 851.70 509.00 853.00
C 500.00 853.87 490.89 855.29 482.00 856.00
C 479.38 856.51 476.25 857.00 473.00 857.00
C 469.00 857.00 465.00 857.00 461.00 857.00
C 451.89 857.88 441.05 857.97 432.00 857.00
C 430.33 857.00 428.67 857.00 427.00 857.00
C 423.96 857.32 421.06 857.55 418.00 857.00
C 401.45 855.87 382.74 853.00 367.00 850.00 C 351.26 847.00 335.57 843.74 321.02 838.98 C 306.48 834.21 292.45 830.04 279.03 823.97 C 265.60 817.91 252.98 812.48 240.74 805.26 C 228.51 798.03 216.54 791.79 205.25 783.75 C 193.96 775.71 183.18 766.92 172.75 758.25 C 162.32 749.57 152.50 740.52 143.25 730.75 C 134.01 720.98 125.29 711.23 116.75 700.25 C 108.22 689.26 100.03 679.15 92.77 667.23 C 85.51 655.31 78.77 643.60 71.98 631.03 C 65.18 618.45 60.63 603.70 54.33 590.67 C 48.03 577.64 47.16 559.95 40.99 547.01 C 34.83 534.06 43.34 511.59 24.67 506.33 C 6.00 501.07 2.95 525.97 8.67 539.33 C 14.39 552.69 14.78 570.87 20.68 584.32 C 26.58 597.77 29.86 612.83 36.23 625.77 C 42.60 638.71 48.92 651.80 56.08 663.92 C 63.23 676.05 69.83 687.85 78.08 698.92 C 86.34 709.99 93.44 721.20 102.75 731.25 C 112.06 741.29 120.28 751.44 130.25 760.75 C 140.23 770.05 149.69 779.00 160.30 787.70 C 170.92 796.40 182.42 804.25 193.92 812.08 C 205.42 819.91 216.90 826.75 229.32 833.68 C 241.74 840.61 254.58 846.07 267.92 852.08 C 281.27 858.08 295.27 862.71 309.78 867.22 C 324.28 871.74 339.52 875.78 354.98 879.02 C 370.43 882.27 389.04 883.67 405.00 886.00 Z"/>
</g>
<g fill="#B3BECC" fill-opacity="0.87" stroke="None">
<path d="
M 757.00 718.00 
C 755.14 720.18 752.95 722.05 751.00 724.00
C 738.41 738.74 723.69 751.44 709.00 764.00
C 708.49 764.55 708.36 765.41 708.00 766.00
C 718.98 757.07 729.51 748.06 739.75 737.75 C 749.99 727.44 759.45 717.74 768.70 706.70 C 777.94 695.65 786.01 684.12 794.08 672.08 C 802.16 660.05 809.37 647.24 816.23 634.23 C 823.09 621.22 829.22 606.51 835.02 593.02 C 840.83 579.54 844.34 560.20 849.02 547.02 C 853.71 533.85 850.31 507.93 868.00 506.00
C 847.64 506.75 852.03 535.57 846.78 549.78 C 841.52 563.99 837.28 584.40 830.77 598.77 C 824.26 613.14 817.86 628.44 810.31 642.31 C 802.75 656.17 794.37 669.53 785.30 682.30 C 776.23 695.07 767.23 706.03 757.00 718.00 Z"/>
</g>
<g fill="#8FA3BF" fill-opacity="0.88" stroke="None">
<path d="
M 497.00 542.00 
C 504.04 535.48 499.14 521.08 510.00 516.00
C 500.04 519.63 499.42 533.45 497.00 542.00 Z"/>
</g>
<g fill="#7287A4" fill-opacity="0.78" stroke="None">
<path d="
M 366.00 569.00 
C 365.68 560.61 360.20 552.70 358.33 544.67 C 356.46 536.65 353.29 528.28 350.00 521.00
C 352.57 528.72 354.25 537.98 357.68 545.32 C 361.11 552.66 361.03 562.88 366.00 569.00 Z"/>
</g>
<g fill="#90A1B9" fill-opacity="0.84" stroke="None">
<path d="
M 479.00 604.00 
C 483.18 596.00 486.71 582.58 488.67 573.67 C 490.63 564.76 498.74 550.95 496.00 543.00
C 493.03 552.82 489.71 563.43 487.33 573.33 C 484.94 583.22 479.38 593.91 479.00 604.00 Z"/>
</g>
<g fill="#7A90AD" fill-opacity="0.82" stroke="None">
<path d="
M 370.00 584.00 
C 369.37 580.01 369.49 574.06 366.00 570.00
C 366.75 574.60 368.67 579.56 370.00 584.00 Z"/>
</g>
<g fill="#8B9EB7" fill-opacity="0.84" stroke="None">
<path d="
M 471.00 632.00 
C 475.15 627.95 478.86 611.01 479.00 605.00
C 475.20 607.91 477.14 614.82 474.77 618.77 C 472.41 622.72 472.14 627.63 471.00 632.00 Z"/>
</g>
<g fill="#768BA7" fill-opacity="0.79" stroke="None">
<path d="
M 391.00 648.00 
C 388.67 634.99 383.82 618.88 378.00 606.00
C 382.25 620.00 386.55 634.10 391.00 648.00 Z"/>
</g>
<g fill="#8C9DB5" fill-opacity="0.82" stroke="None">
<path d="
M 463.00 659.00 
C 465.70 652.35 471.81 639.77 470.00 633.00
C 467.20 641.53 465.56 650.45 463.00 659.00 Z"/>
</g>
<g fill="#798EAB" fill-opacity="0.81" stroke="None">
<path d="
M 409.00 703.00 
C 410.75 696.45 404.55 687.22 402.93 680.07 C 401.30 672.93 397.84 664.57 395.00 658.00
C 399.70 672.66 406.02 687.92 409.00 703.00 Z"/>
</g>
<g fill="#8A9FBC" fill-opacity="0.87" stroke="None">
<path d="
M 453.00 694.00 
C 456.35 685.78 459.67 676.12 461.00 667.00
C 458.64 675.57 455.65 685.16 453.00 694.00 Z"/>
</g>
<g fill="#798FAC" fill-opacity="0.81" stroke="None">
<path d="
M 421.00 740.00 
C 422.23 735.40 418.58 726.46 416.32 721.68 C 414.07 716.90 414.27 707.02 410.00 704.00
C 413.40 715.98 418.59 727.82 421.00 740.00 Z"/>
</g>
<g fill="#474746" fill-opacity="0.28" stroke="None">
<path d="
M 751.00 724.00 
C 752.95 722.05 755.14 720.18 757.00 718.00
C 755.05 719.95 752.86 721.82 751.00 724.00 Z"/>
</g>
<g fill="#8496AF" fill-opacity="0.80" stroke="None">
<path d="
M 428.00 759.00 
C 427.83 754.68 424.95 743.89 422.00 741.00
C 423.55 746.47 424.46 754.64 428.00 759.00 Z"/>
</g>
<g fill="#7E92AE" fill-opacity="0.82" stroke="None">
<path d="
M 439.00 783.00 
C 431.56 777.58 434.17 764.72 428.00 760.00
C 428.29 767.50 432.22 778.80 439.00 783.00 Z"/>
</g>
<g fill="#8394AB" fill-opacity="0.78" stroke="None">
<path d="
M 625.00 817.00 
C 633.37 818.09 646.25 806.75 654.77 802.77 C 663.29 798.79 674.83 791.34 682.25 785.25 C 689.68 779.17 702.95 774.26 708.00 766.00
C 708.36 765.41 708.49 764.55 709.00 764.00
C 683.41 785.87 654.32 801.81 625.00 817.00 Z"/>
</g>
<g fill="#7F90A6" fill-opacity="0.76" stroke="None">
<path d="
M 509.00 853.00 
C 522.39 851.70 538.43 848.62 550.93 844.93 C 563.42 841.24 577.76 838.56 588.98 832.98 C 600.19 827.39 615.38 827.00 624.00 818.00
C 588.34 835.51 547.61 845.69 509.00 853.00 Z"/>
</g>
<g fill="#6E7F96" fill-opacity="0.71" stroke="None">
<path d="
M 473.00 857.00 
C 476.25 857.00 479.38 856.51 482.00 856.00
C 479.08 856.23 475.31 856.78 473.00 857.00 Z"/>
</g>
<g fill="#4B678F" fill-opacity="0.75" stroke="None">
<path d="
M 427.00 857.00 
C 424.02 857.00 420.97 857.20 418.00 857.00
C 421.06 857.55 423.96 857.32 427.00 857.00 Z"/>
</g>
<g fill="#34393F" fill-opacity="0.28" stroke="None">
<path d="
M 461.00 857.00 
C 451.33 857.00 441.67 857.00 432.00 857.00
C 441.05 857.97 451.89 857.88 461.00 857.00 Z"/>
</g>
<g fill="#323539" fill-opacity="0.24" stroke="None">
<path d="
M 409.00 888.00 
L 414.00 888.00
C 414.00 887.50 414.00 887.00 414.00 887.00
C 410.80 886.83 408.09 886.45 405.00 886.00
C 405.91 886.25 408.15 887.38 409.00 888.00 Z"/>
</g>
<g fill="#344B6B" fill-opacity="0.57" stroke="None">
<path d="
M 469.00 887.00 
C 470.00 887.09 471.73 886.54 472.00 888.00
L 477.00 888.00
C 477.23 887.39 478.54 886.16 479.00 886.00
C 475.58 886.00 471.75 886.73 469.00 887.00 Z"/>
</g>
<g fill="#7D91AE" fill-opacity="0.81" stroke="None">
<path d="
M 414.00 888.00 
L 433.00 888.00
C 427.65 885.92 420.18 887.34 414.00 887.00
C 414.00 887.00 414.00 887.50 414.00 888.00 Z"/>
</g>
<g fill="#627997" fill-opacity="0.74" stroke="None">
<path d="
M 457.00 888.00 
L 472.00 888.00
C 471.73 886.54 470.00 887.09 469.00 887.00
C 465.23 886.68 460.03 886.47 457.00 888.00 Z"/>
</g>
</svg>